<ttFont>
    <TTGlyph name=".notdef" xMin="50" yMin="0" xMax="450" yMax="696">
      <contour>
        <pt x="50" y="696" on="1"/>
        <pt x="450" y="696" on="1"/>
        <pt x="450" y="0" on="1"/>
        <pt x="50" y="0" on="1"/>
      </contour>
      <contour>
        <pt x="399" y="46" on="1"/>
        <pt x="399" y="650" on="1"/>
        <pt x="101" y="650" on="1"/>
        <pt x="101" y="46" on="1"/>
      </contour>
    </TTGlyph>
    <TTGlyph name="A" xMin="27" yMin="0" xMax="530" yMax="682">
      <contour>
        <pt x="435" y="202" on="1"/>
        <pt x="121" y="202" on="1"/>
        <pt x="52" y="0" on="1"/>
        <pt x="27" y="0" on="1"/>
        <pt x="263" y="682" on="1"/>
        <pt x="294" y="682" on="1"/>
        <pt x="530" y="0" on="1"/>
        <pt x="504" y="0" on="1"/>
      </contour>
      <contour>
        <pt x="427" y="225" on="1"/>
        <pt x="279" y="662" on="1"/>
        <pt x="129" y="225" on="1"/>
      </contour>
    </TTGlyph>
    <TTGlyph name="AE" xMin="12" yMin="0" xMax="713" yMax="682">
      <contour>
        <pt x="713" y="23" on="1"/>
        <pt x="713" y="0" on="1"/>
        <pt x="464" y="0" on="1"/>
        <pt x="412" y="196" on="1"/>
        <pt x="111" y="196" on="1"/>
        <pt x="36" y="0" on="1"/>
        <pt x="12" y="0" on="1"/>
        <pt x="275" y="682" on="1"/>
        <pt x="660" y="682" on="1"/>
        <pt x="657" y="658" on="1"/>
        <pt x="315" y="658" on="1"/>
        <pt x="391" y="371" on="1"/>
        <pt x="652" y="371" on="1"/>
        <pt x="652" y="348" on="1"/>
        <pt x="397" y="348" on="1"/>
        <pt x="482" y="23" on="1"/>
      </contour>
      <contour>
        <pt x="406" y="219" on="1"/>
        <pt x="290" y="662" on="1"/>
        <pt x="120" y="219" on="1"/>
      </contour>
    </TTGlyph>
    <TTGlyph name="AEacute" xMin="12" yMin="0" xMax="713" yMax="863">
      <component glyphName="AE" x="0" y="0" flags="0x0"/>
      <component glyphName="acutecomb.case" x="561" y="0" flags="0x0"/>
    </TTGlyph>
    <TTGlyph name="Aacute" xMin="27" yMin="0" xMax="530" yMax="863">
      <component glyphName="A" x="0" y="0" flags="0x0"/>
      <component glyphName="acutecomb.case" x="394" y="0" flags="0x0"/>
    </TTGlyph>
    <TTGlyph name="Abreve" xMin="27" yMin="0" xMax="530" yMax="852">
      <component glyphName="A" x="0" y="0" flags="0x0"/>
      <component glyphName="uni0306.case" x="402" y="0" flags="0x0"/>
    </TTGlyph>
    <TTGlyph name="Acircumflex" xMin="27" yMin="0" xMax="530" yMax="871">
      <component glyphName="A" x="0" y="0" flags="0x0"/>
      <component glyphName="uni0302.case" x="437" y="0" flags="0x0"/>
    </TTGlyph>
    <TTGlyph name="Adieresis" xMin="27" yMin="0" xMax="530" yMax="840">
      <component glyphName="A" x="0" y="0" flags="0x0"/>
      <component glyphName="uni0308.case" x="414" y="0" flags="0x0"/>
    </TTGlyph>
    <TTGlyph name="Agrave" xMin="27" yMin="0" xMax="530" yMax="863">
      <component glyphName="A" x="0" y="0" flags="0x0"/>
      <component glyphName="gravecomb.case" x="396" y="0" flags="0x0"/>
    </TTGlyph>
    <TTGlyph name="Alpha" xMin="27" yMin="0" xMax="530" yMax="682">
      <contour>
        <pt x="435" y="202" on="1"/>
        <pt x="121" y="202" on="1"/>
        <pt x="52" y="0" on="1"/>
        <pt x="27" y="0" on="1"/>
        <pt x="263" y="682" on="1"/>
        <pt x="294" y="682" on="1"/>
        <pt x="530" y="0" on="1"/>
        <pt x="504" y="0" on="1"/>
      </contour>
      <contour>
        <pt x="427" y="225" on="1"/>
        <pt x="279" y="662" on="1"/>
        <pt x="129" y="225" on="1"/>
      </contour>
    </TTGlyph>
    <TTGlyph name="Alphatonos" xMin="27" yMin="0" xMax="530" yMax="688">
      <component glyphName="tonos.case" x="36" y="0" flags="0x0"/>
      <component glyphName="A" x="0" y="0" flags="0x0"/>
    </TTGlyph>
    <TTGlyph name="Amacron" xMin="27" yMin="0" xMax="530" yMax="834">
      <component glyphName="A" x="0" y="0" flags="0x0"/>
      <component glyphName="uni0304.case" x="405" y="0" flags="0x0"/>
    </TTGlyph>
    <TTGlyph name="Aogonek" xMin="27" yMin="-203" xMax="532" yMax="682">
      <contour>
        <pt x="499" y="-179" on="0"/>
        <pt x="532" y="-173" on="1"/>
        <pt x="529" y="-197" on="1"/>
        <pt x="499" y="-203" on="0"/>
        <pt x="476" y="-203" on="1"/>
        <pt x="429" y="-203" on="0"/>
        <pt x="380" y="-159" on="0"/>
        <pt x="380" y="-122" on="1"/>
        <pt x="380" y="-81" on="0"/>
        <pt x="442" y="-20" on="0"/>
        <pt x="502" y="6" on="1"/>
        <pt x="435" y="202" on="1"/>
        <pt x="121" y="202" on="1"/>
        <pt x="52" y="0" on="1"/>
        <pt x="27" y="0" on="1"/>
        <pt x="263" y="682" on="1"/>
        <pt x="294" y="682" on="1"/>
        <pt x="530" y="2" on="1"/>
        <pt x="531" y="0" on="1"/>
        <pt x="468" y="-29" on="0"/>
        <pt x="407" y="-81" on="0"/>
        <pt x="407" y="-121" on="1"/>
        <pt x="407" y="-149" on="0"/>
        <pt x="442" y="-179" on="0"/>
        <pt x="476" y="-179" on="1"/>
      </contour>
      <contour>
        <pt x="427" y="225" on="1"/>
        <pt x="279" y="662" on="1"/>
        <pt x="129" y="225" on="1"/>
      </contour>
    </TTGlyph>
    <TTGlyph name="Aring" xMin="27" yMin="0" xMax="530" yMax="928">
      <component glyphName="A" x="0" y="0" flags="0x0"/>
      <component glyphName="uni030A.case" x="387" y="0" flags="0x0"/>
    </TTGlyph>
    <TTGlyph name="Aringacute" xMin="27" yMin="0" xMax="530" yMax="1008">
      <contour>
        <pt x="193" y="908" on="1"/>
        <pt x="186" y="925" on="1"/>
        <pt x="361" y="1008" on="1"/>
        <pt x="373" y="983" on="1"/>
      </contour>
      <contour>
        <pt x="197" y="845" on="0"/>
        <pt x="242" y="888" on="0"/>
        <pt x="278" y="888" on="1"/>
        <pt x="315" y="888" on="0"/>
        <pt x="359" y="845" on="0"/>
        <pt x="359" y="809" on="1"/>
        <pt x="359" y="773" on="0"/>
        <pt x="315" y="729" on="0"/>
        <pt x="278" y="729" on="1"/>
        <pt x="241" y="729" on="0"/>
        <pt x="197" y="773" on="0"/>
        <pt x="197" y="809" on="1"/>
      </contour>
      <contour>
        <pt x="336" y="838" on="0"/>
        <pt x="306" y="869" on="0"/>
        <pt x="278" y="869" on="1"/>
        <pt x="250" y="869" on="0"/>
        <pt x="220" y="837" on="0"/>
        <pt x="220" y="809" on="1"/>
        <pt x="220" y="780" on="0"/>
        <pt x="250" y="749" on="0"/>
        <pt x="278" y="749" on="1"/>
        <pt x="306" y="749" on="0"/>
        <pt x="336" y="780" on="0"/>
        <pt x="336" y="809" on="1"/>
      </contour>
      <contour>
        <pt x="435" y="202" on="1"/>
        <pt x="121" y="202" on="1"/>
        <pt x="52" y="0" on="1"/>
        <pt x="27" y="0" on="1"/>
        <pt x="263" y="682" on="1"/>
        <pt x="294" y="682" on="1"/>
        <pt x="530" y="0" on="1"/>
        <pt x="504" y="0" on="1"/>
      </contour>
      <contour>
        <pt x="427" y="225" on="1"/>
        <pt x="279" y="662" on="1"/>
        <pt x="129" y="225" on="1"/>
      </contour>
    </TTGlyph>
    <TTGlyph name="Atilde" xMin="27" yMin="0" xMax="530" yMax="868">
      <component glyphName="A" x="0" y="0" flags="0x0"/>
      <component glyphName="tildecomb.case" x="433" y="0" flags="0x0"/>
    </TTGlyph>
    <TTGlyph name="B" xMin="122" yMin="0" xMax="526" yMax="682">
      <contour>
        <pt x="435" y="358" on="0"/>
        <pt x="526" y="268" on="0"/>
        <pt x="526" y="185" on="1"/>
        <pt x="526" y="95" on="0"/>
        <pt x="407" y="0" on="0"/>
        <pt x="300" y="0" on="1"/>
        <pt x="122" y="0" on="1"/>
        <pt x="122" y="682" on="1"/>
        <pt x="264" y="682" on="1"/>
        <pt x="374" y="682" on="0"/>
        <pt x="491" y="596" on="0"/>
        <pt x="491" y="513" on="1"/>
        <pt x="491" y="448" on="0"/>
        <pt x="423" y="371" on="0"/>
        <pt x="364" y="362" on="1"/>
      </contour>
      <contour>
        <pt x="147" y="658" on="1"/>
        <pt x="147" y="371" on="1"/>
        <pt x="316" y="371" on="1"/>
        <pt x="384" y="371" on="0"/>
        <pt x="466" y="448" on="0"/>
        <pt x="466" y="512" on="1"/>
        <pt x="466" y="585" on="0"/>
        <pt x="364" y="658" on="0"/>
        <pt x="267" y="658" on="1"/>
      </contour>
      <contour>
        <pt x="395" y="23" on="0"/>
        <pt x="501" y="104" on="0"/>
        <pt x="501" y="185" on="1"/>
        <pt x="501" y="264" on="0"/>
        <pt x="402" y="349" on="0"/>
        <pt x="321" y="349" on="1"/>
        <pt x="147" y="349" on="1"/>
        <pt x="147" y="23" on="1"/>
        <pt x="301" y="23" on="1"/>
      </contour>
    </TTGlyph>
    <TTGlyph name="Beta" xMin="122" yMin="0" xMax="526" yMax="682">
      <component glyphName="B" x="0" y="0" flags="0x0"/>
    </TTGlyph>
    <TTGlyph name="C" xMin="77" yMin="-10" xMax="514" yMax="692">
      <contour>
        <pt x="397" y="692" on="0"/>
        <pt x="471" y="662" on="0"/>
        <pt x="506" y="633" on="1"/>
        <pt x="492" y="615" on="1"/>
        <pt x="457" y="643" on="0"/>
        <pt x="392" y="668" on="0"/>
        <pt x="346" y="668" on="1"/>
        <pt x="276" y="668" on="0"/>
        <pt x="166" y="598" on="0"/>
        <pt x="103" y="452" on="0"/>
        <pt x="103" y="341" on="1"/>
        <pt x="103" y="236" on="0"/>
        <pt x="165" y="88" on="0"/>
        <pt x="274" y="14" on="0"/>
        <pt x="343" y="14" on="1"/>
        <pt x="395" y="14" on="0"/>
        <pt x="464" y="44" on="0"/>
        <pt x="499" y="72" on="1"/>
        <pt x="514" y="54" on="1"/>
        <pt x="480" y="24" on="0"/>
        <pt x="397" y="-10" on="0"/>
        <pt x="342" y="-10" on="1"/>
        <pt x="265" y="-10" on="0"/>
        <pt x="145" y="71" on="0"/>
        <pt x="77" y="229" on="0"/>
        <pt x="77" y="341" on="1"/>
        <pt x="77" y="455" on="0"/>
        <pt x="147" y="613" on="0"/>
        <pt x="268" y="692" on="0"/>
        <pt x="344" y="692" on="1"/>
      </contour>
    </TTGlyph>
    <TTGlyph name="Cacute" xMin="77" yMin="-10" xMax="514" yMax="863">
      <component glyphName="C" x="0" y="0" flags="0x0"/>
      <component glyphName="acutecomb.case" x="458" y="0" flags="0x0"/>
    </TTGlyph>
    <TTGlyph name="Cacute.loclPLK" xMin="77" yMin="-10" xMax="514" yMax="888">
      <component glyphName="C" x="0" y="0" flags="0x0"/>
      <component glyphName="acute.case.loclPLK" x="225" y="0" flags="0x0"/>
    </TTGlyph>
    <TTGlyph name="Ccaron" xMin="77" yMin="-10" xMax="514" yMax="865">
      <component glyphName="C" x="0" y="0" flags="0x0"/>
      <component glyphName="uni030C.case" x="490" y="0" flags="0x0"/>
    </TTGlyph>
    <TTGlyph name="Ccedilla" xMin="77" yMin="-213" xMax="514" yMax="692">
      <contour>
        <pt x="434" y="-79" on="0"/>
        <pt x="434" y="-140" on="1"/>
        <pt x="434" y="-174" on="0"/>
        <pt x="385" y="-213" on="0"/>
        <pt x="349" y="-213" on="1"/>
        <pt x="311" y="-213" on="0"/>
        <pt x="280" y="-195" on="1"/>
        <pt x="290" y="-176" on="1"/>
        <pt x="313" y="-191" on="0"/>
        <pt x="349" y="-191" on="1"/>
        <pt x="375" y="-191" on="0"/>
        <pt x="409" y="-166" on="0"/>
        <pt x="409" y="-140" on="1"/>
        <pt x="409" y="-115" on="0"/>
        <pt x="367" y="-92" on="0"/>
        <pt x="320" y="-91" on="1"/>
        <pt x="326" y="-9" on="1"/>
        <pt x="253" y="-5" on="0"/>
        <pt x="141" y="79" on="0"/>
        <pt x="77" y="234" on="0"/>
        <pt x="77" y="341" on="1"/>
        <pt x="77" y="455" on="0"/>
        <pt x="147" y="613" on="0"/>
        <pt x="268" y="692" on="0"/>
        <pt x="344" y="692" on="1"/>
        <pt x="397" y="692" on="0"/>
        <pt x="471" y="662" on="0"/>
        <pt x="506" y="633" on="1"/>
        <pt x="492" y="615" on="1"/>
        <pt x="457" y="643" on="0"/>
        <pt x="392" y="668" on="0"/>
        <pt x="346" y="668" on="1"/>
        <pt x="276" y="668" on="0"/>
        <pt x="166" y="598" on="0"/>
        <pt x="103" y="452" on="0"/>
        <pt x="103" y="341" on="1"/>
        <pt x="103" y="236" on="0"/>
        <pt x="165" y="88" on="0"/>
        <pt x="274" y="14" on="0"/>
        <pt x="343" y="14" on="1"/>
        <pt x="395" y="14" on="0"/>
        <pt x="464" y="44" on="0"/>
        <pt x="499" y="72" on="1"/>
        <pt x="514" y="54" on="1"/>
        <pt x="479" y="24" on="0"/>
        <pt x="398" y="-9" on="0"/>
        <pt x="344" y="-10" on="1"/>
        <pt x="343" y="-73" on="1"/>
      </contour>
    </TTGlyph>
    <TTGlyph name="Ccircumflex" xMin="77" yMin="-10" xMax="514" yMax="871">
      <component glyphName="C" x="0" y="0" flags="0x0"/>
      <component glyphName="uni0302.case" x="500" y="0" flags="0x0"/>
    </TTGlyph>
    <TTGlyph name="Cdotaccent" xMin="77" yMin="-10" xMax="514" yMax="852">
      <component glyphName="C" x="0" y="0" flags="0x0"/>
      <component glyphName="uni0307.case" x="393" y="0" flags="0x0"/>
    </TTGlyph>
    <TTGlyph name="Chi" xMin="16" yMin="0" xMax="471" yMax="682">
      <component glyphName="X" x="0" y="0" flags="0x0"/>
    </TTGlyph>
    <TTGlyph name="D" xMin="122" yMin="0" xMax="543" yMax="682">
      <contour>
        <pt x="377" y="682" on="0"/>
        <pt x="543" y="538" on="0"/>
        <pt x="543" y="348" on="1"/>
        <pt x="543" y="154" on="0"/>
        <pt x="373" y="0" on="0"/>
        <pt x="250" y="0" on="1"/>
        <pt x="122" y="0" on="1"/>
        <pt x="122" y="682" on="1"/>
        <pt x="246" y="682" on="1"/>
      </contour>
      <contour>
        <pt x="147" y="658" on="1"/>
        <pt x="147" y="23" on="1"/>
        <pt x="250" y="23" on="1"/>
        <pt x="366" y="23" on="0"/>
        <pt x="517" y="167" on="0"/>
        <pt x="517" y="348" on="1"/>
        <pt x="517" y="529" on="0"/>
        <pt x="365" y="658" on="0"/>
        <pt x="243" y="658" on="1"/>
      </contour>
    </TTGlyph>
    <TTGlyph name="Dcaron" xMin="122" yMin="0" xMax="543" yMax="865">
      <component glyphName="D" x="0" y="0" flags="0x0"/>
      <component glyphName="uni030C.case" x="443" y="0" flags="0x0"/>
    </TTGlyph>
    <TTGlyph name="Dcroat" xMin="26" yMin="0" xMax="541" yMax="682">
      <component glyphName="Eth" x="0" y="0" flags="0x0"/>
    </TTGlyph>
    <TTGlyph name="Delta" xMin="27" yMin="0" xMax="540" yMax="682">
      <contour>
        <pt x="540" y="0" on="1"/>
        <pt x="27" y="0" on="1"/>
        <pt x="269" y="682" on="1"/>
        <pt x="300" y="682" on="1"/>
      </contour>
      <contour>
        <pt x="60" y="22" on="1"/>
        <pt x="507" y="22" on="1"/>
        <pt x="285" y="662" on="1"/>
      </contour>
    </TTGlyph>
    <TTGlyph name="E" xMin="122" yMin="0" xMax="451" yMax="682">
      <contour>
        <pt x="441" y="658" on="1"/>
        <pt x="147" y="658" on="1"/>
        <pt x="147" y="371" on="1"/>
        <pt x="401" y="371" on="1"/>
        <pt x="401" y="348" on="1"/>
        <pt x="147" y="348" on="1"/>
        <pt x="147" y="23" on="1"/>
        <pt x="451" y="23" on="1"/>
        <pt x="451" y="0" on="1"/>
        <pt x="122" y="0" on="1"/>
        <pt x="122" y="682" on="1"/>
        <pt x="444" y="682" on="1"/>
      </contour>
    </TTGlyph>
    <TTGlyph name="Eacute" xMin="122" yMin="0" xMax="451" yMax="863">
      <component glyphName="E" x="0" y="0" flags="0x0"/>
      <component glyphName="acutecomb.case" x="402" y="0" flags="0x0"/>
    </TTGlyph>
    <TTGlyph name="Ebreve" xMin="122" yMin="0" xMax="451" yMax="852">
      <component glyphName="E" x="0" y="0" flags="0x0"/>
      <component glyphName="uni0306.case" x="411" y="0" flags="0x0"/>
    </TTGlyph>
    <TTGlyph name="Ecaron" xMin="122" yMin="0" xMax="451" yMax="865">
      <component glyphName="E" x="0" y="0" flags="0x0"/>
      <component glyphName="uni030C.case" x="435" y="0" flags="0x0"/>
    </TTGlyph>
    <TTGlyph name="Ecircumflex" xMin="122" yMin="0" xMax="451" yMax="871">
      <component glyphName="E" x="0" y="0" flags="0x0"/>
      <component glyphName="uni0302.case" x="445" y="0" flags="0x0"/>
    </TTGlyph>
    <TTGlyph name="Edieresis" xMin="122" yMin="0" xMax="451" yMax="840">
      <component glyphName="E" x="0" y="0" flags="0x0"/>
      <component glyphName="uni0308.case" x="423" y="0" flags="0x0"/>
    </TTGlyph>
    <TTGlyph name="Edotaccent" xMin="122" yMin="0" xMax="451" yMax="852">
      <component glyphName="E" x="0" y="0" flags="0x0"/>
      <component glyphName="uni0307.case" x="337" y="0" flags="0x0"/>
    </TTGlyph>
    <TTGlyph name="Egrave" xMin="122" yMin="0" xMax="451" yMax="863">
      <component glyphName="E" x="0" y="0" flags="0x0"/>
      <component glyphName="gravecomb.case" x="404" y="0" flags="0x0"/>
    </TTGlyph>
    <TTGlyph name="Emacron" xMin="122" yMin="0" xMax="451" yMax="834">
      <component glyphName="E" x="0" y="0" flags="0x0"/>
      <component glyphName="uni0304.case" x="414" y="0" flags="0x0"/>
    </TTGlyph>
    <TTGlyph name="Eng" xMin="122" yMin="-198" xMax="540" yMax="682">
      <contour>
        <pt x="540" y="-140" on="0"/>
        <pt x="485" y="-198" on="0"/>
        <pt x="440" y="-198" on="1"/>
        <pt x="391" y="-198" on="0"/>
        <pt x="352" y="-167" on="1"/>
        <pt x="364" y="-150" on="1"/>
        <pt x="398" y="-175" on="0"/>
        <pt x="440" y="-175" on="1"/>
        <pt x="474" y="-175" on="0"/>
        <pt x="515" y="-131" on="0"/>
        <pt x="515" y="-84" on="1"/>
        <pt x="515" y="0" on="1"/>
        <pt x="509" y="0" on="1"/>
        <pt x="143" y="654" on="1"/>
        <pt x="146" y="600" on="0"/>
        <pt x="146" y="467" on="1"/>
        <pt x="146" y="0" on="1"/>
        <pt x="122" y="0" on="1"/>
        <pt x="122" y="682" on="1"/>
        <pt x="153" y="682" on="1"/>
        <pt x="519" y="28" on="1"/>
        <pt x="516" y="88" on="0"/>
        <pt x="516" y="211" on="1"/>
        <pt x="516" y="682" on="1"/>
        <pt x="540" y="682" on="1"/>
        <pt x="540" y="-85" on="1"/>
      </contour>
    </TTGlyph>
    <TTGlyph name="Eng.ss01" xMin="122" yMin="-198" xMax="537" yMax="692">
      <contour>
        <pt x="448" y="692" on="0"/>
        <pt x="537" y="591" on="0"/>
        <pt x="537" y="496" on="1"/>
        <pt x="537" y="-85" on="1"/>
        <pt x="537" y="-140" on="0"/>
        <pt x="482" y="-198" on="0"/>
        <pt x="437" y="-198" on="1"/>
        <pt x="388" y="-198" on="0"/>
        <pt x="349" y="-167" on="1"/>
        <pt x="361" y="-150" on="1"/>
        <pt x="395" y="-175" on="0"/>
        <pt x="437" y="-175" on="1"/>
        <pt x="471" y="-175" on="0"/>
        <pt x="512" y="-131" on="0"/>
        <pt x="512" y="-84" on="1"/>
        <pt x="512" y="492" on="1"/>
        <pt x="512" y="581" on="0"/>
        <pt x="436" y="668" on="0"/>
        <pt x="367" y="668" on="1"/>
        <pt x="297" y="668" on="0"/>
        <pt x="192" y="598" on="0"/>
        <pt x="147" y="537" on="1"/>
        <pt x="147" y="0" on="1"/>
        <pt x="122" y="0" on="1"/>
        <pt x="122" y="682" on="1"/>
        <pt x="144" y="682" on="1"/>
        <pt x="146" y="568" on="1"/>
        <pt x="236" y="692" on="0"/>
        <pt x="368" y="692" on="1"/>
      </contour>
    </TTGlyph>
    <TTGlyph name="Eogonek" xMin="122" yMin="-203" xMax="451" yMax="682">
      <contour>
        <pt x="362" y="-29" on="0"/>
        <pt x="301" y="-81" on="0"/>
        <pt x="301" y="-121" on="1"/>
        <pt x="301" y="-149" on="0"/>
        <pt x="336" y="-179" on="0"/>
        <pt x="370" y="-179" on="1"/>
        <pt x="393" y="-179" on="0"/>
        <pt x="426" y="-173" on="1"/>
        <pt x="423" y="-197" on="1"/>
        <pt x="393" y="-203" on="0"/>
        <pt x="370" y="-203" on="1"/>
        <pt x="323" y="-203" on="0"/>
        <pt x="274" y="-159" on="0"/>
        <pt x="274" y="-122" on="1"/>
        <pt x="274" y="-83" on="0"/>
        <pt x="330" y="-26" on="0"/>
        <pt x="384" y="0" on="1"/>
        <pt x="122" y="0" on="1"/>
        <pt x="122" y="682" on="1"/>
        <pt x="444" y="682" on="1"/>
        <pt x="441" y="658" on="1"/>
        <pt x="147" y="658" on="1"/>
        <pt x="147" y="371" on="1"/>
        <pt x="401" y="371" on="1"/>
        <pt x="401" y="348" on="1"/>
        <pt x="147" y="348" on="1"/>
        <pt x="147" y="23" on="1"/>
        <pt x="451" y="23" on="1"/>
        <pt x="451" y="0" on="1"/>
        <pt x="425" y="0" on="1"/>
      </contour>
    </TTGlyph>
    <TTGlyph name="Epsilon" xMin="122" yMin="0" xMax="451" yMax="682">
      <contour>
        <pt x="441" y="658" on="1"/>
        <pt x="147" y="658" on="1"/>
        <pt x="147" y="371" on="1"/>
        <pt x="401" y="371" on="1"/>
        <pt x="401" y="348" on="1"/>
        <pt x="147" y="348" on="1"/>
        <pt x="147" y="23" on="1"/>
        <pt x="451" y="23" on="1"/>
        <pt x="451" y="0" on="1"/>
        <pt x="122" y="0" on="1"/>
        <pt x="122" y="682" on="1"/>
        <pt x="444" y="682" on="1"/>
      </contour>
    </TTGlyph>
    <TTGlyph name="Epsilontonos" xMin="30" yMin="0" xMax="487" yMax="688">
      <component glyphName="tonos.case" x="0" y="0" flags="0x0"/>
      <component glyphName="E" x="36" y="0" flags="0x0"/>
    </TTGlyph>
    <TTGlyph name="Eta" xMin="122" yMin="0" xMax="538" yMax="682">
      <contour>
        <pt x="513" y="348" on="1"/>
        <pt x="147" y="348" on="1"/>
        <pt x="147" y="0" on="1"/>
        <pt x="122" y="0" on="1"/>
        <pt x="122" y="682" on="1"/>
        <pt x="147" y="682" on="1"/>
        <pt x="147" y="371" on="1"/>
        <pt x="513" y="371" on="1"/>
        <pt x="513" y="682" on="1"/>
        <pt x="538" y="682" on="1"/>
        <pt x="538" y="0" on="1"/>
        <pt x="513" y="0" on="1"/>
      </contour>
    </TTGlyph>
    <TTGlyph name="Etatonos" xMin="30" yMin="0" xMax="574" yMax="688">
      <component glyphName="tonos.case" x="0" y="0" flags="0x0"/>
      <component glyphName="H" x="36" y="0" flags="0x0"/>
    </TTGlyph>
    <TTGlyph name="Eth" xMin="26" yMin="0" xMax="541" yMax="682">
      <contour>
        <pt x="375" y="682" on="0"/>
        <pt x="541" y="538" on="0"/>
        <pt x="541" y="348" on="1"/>
        <pt x="541" y="154" on="0"/>
        <pt x="371" y="0" on="0"/>
        <pt x="248" y="0" on="1"/>
        <pt x="120" y="0" on="1"/>
        <pt x="120" y="340" on="1"/>
        <pt x="26" y="340" on="1"/>
        <pt x="26" y="364" on="1"/>
        <pt x="120" y="364" on="1"/>
        <pt x="120" y="682" on="1"/>
        <pt x="244" y="682" on="1"/>
      </contour>
      <contour>
        <pt x="364" y="23" on="0"/>
        <pt x="515" y="167" on="0"/>
        <pt x="515" y="348" on="1"/>
        <pt x="515" y="529" on="0"/>
        <pt x="363" y="658" on="0"/>
        <pt x="241" y="658" on="1"/>
        <pt x="145" y="658" on="1"/>
        <pt x="145" y="364" on="1"/>
        <pt x="336" y="364" on="1"/>
        <pt x="336" y="340" on="1"/>
        <pt x="145" y="340" on="1"/>
        <pt x="145" y="23" on="1"/>
        <pt x="248" y="23" on="1"/>
      </contour>
    </TTGlyph>
    <TTGlyph name="Euro" xMin="45" yMin="-10" xMax="517" yMax="692">
      <contour>
        <pt x="280" y="668" on="0"/>
        <pt x="167" y="545" on="0"/>
        <pt x="148" y="428" on="1"/>
        <pt x="433" y="428" on="1"/>
        <pt x="428" y="405" on="1"/>
        <pt x="146" y="405" on="1"/>
        <pt x="146" y="288" on="1"/>
        <pt x="406" y="288" on="1"/>
        <pt x="401" y="265" on="1"/>
        <pt x="147" y="265" on="1"/>
        <pt x="161" y="137" on="0"/>
        <pt x="272" y="13" on="0"/>
        <pt x="360" y="13" on="1"/>
        <pt x="400" y="13" on="0"/>
        <pt x="460" y="34" on="0"/>
        <pt x="496" y="57" on="1"/>
        <pt x="496" y="30" on="1"/>
        <pt x="432" y="-10" on="0"/>
        <pt x="357" y="-10" on="1"/>
        <pt x="259" y="-10" on="0"/>
        <pt x="137" y="128" on="0"/>
        <pt x="122" y="265" on="1"/>
        <pt x="45" y="265" on="1"/>
        <pt x="51" y="288" on="1"/>
        <pt x="121" y="288" on="1"/>
        <pt x="121" y="405" on="1"/>
        <pt x="45" y="405" on="1"/>
        <pt x="51" y="428" on="1"/>
        <pt x="123" y="428" on="1"/>
        <pt x="143" y="554" on="0"/>
        <pt x="270" y="692" on="0"/>
        <pt x="361" y="692" on="1"/>
        <pt x="405" y="692" on="0"/>
        <pt x="478" y="666" on="0"/>
        <pt x="517" y="639" on="1"/>
        <pt x="505" y="619" on="1"/>
        <pt x="467" y="646" on="0"/>
        <pt x="402" y="668" on="0"/>
        <pt x="360" y="668" on="1"/>
      </contour>
    </TTGlyph>
    <TTGlyph name="Euro.lf" xMin="47" yMin="-10" xMax="519" yMax="673">
      <contour>
        <pt x="282" y="650" on="0"/>
        <pt x="169" y="530" on="0"/>
        <pt x="150" y="418" on="1"/>
        <pt x="435" y="418" on="1"/>
        <pt x="430" y="395" on="1"/>
        <pt x="148" y="395" on="1"/>
        <pt x="148" y="277" on="1"/>
        <pt x="408" y="277" on="1"/>
        <pt x="403" y="255" on="1"/>
        <pt x="149" y="255" on="1"/>
        <pt x="163" y="133" on="0"/>
        <pt x="275" y="13" on="0"/>
        <pt x="362" y="13" on="1"/>
        <pt x="402" y="13" on="0"/>
        <pt x="462" y="34" on="0"/>
        <pt x="498" y="57" on="1"/>
        <pt x="498" y="30" on="1"/>
        <pt x="434" y="-10" on="0"/>
        <pt x="359" y="-10" on="1"/>
        <pt x="262" y="-10" on="0"/>
        <pt x="139" y="125" on="0"/>
        <pt x="124" y="255" on="1"/>
        <pt x="47" y="255" on="1"/>
        <pt x="53" y="277" on="1"/>
        <pt x="123" y="277" on="1"/>
        <pt x="123" y="395" on="1"/>
        <pt x="47" y="395" on="1"/>
        <pt x="53" y="418" on="1"/>
        <pt x="125" y="418" on="1"/>
        <pt x="146" y="539" on="0"/>
        <pt x="273" y="673" on="0"/>
        <pt x="363" y="673" on="1"/>
        <pt x="407" y="673" on="0"/>
        <pt x="480" y="648" on="0"/>
        <pt x="519" y="621" on="1"/>
        <pt x="507" y="601" on="1"/>
        <pt x="468" y="628" on="0"/>
        <pt x="403" y="650" on="0"/>
        <pt x="362" y="650" on="1"/>
      </contour>
    </TTGlyph>
    <TTGlyph name="Euro.osf" xMin="47" yMin="-10" xMax="519" yMax="673">
      <component glyphName="Euro.lf" x="0" y="0" flags="0x0"/>
    </TTGlyph>
    <TTGlyph name="Euro.tosf" xMin="63" yMin="-10" xMax="525" yMax="673">
      <contour>
        <pt x="295" y="650" on="0"/>
        <pt x="185" y="530" on="0"/>
        <pt x="166" y="418" on="1"/>
        <pt x="447" y="418" on="1"/>
        <pt x="441" y="395" on="1"/>
        <pt x="164" y="395" on="1"/>
        <pt x="164" y="277" on="1"/>
        <pt x="419" y="277" on="1"/>
        <pt x="414" y="255" on="1"/>
        <pt x="165" y="255" on="1"/>
        <pt x="179" y="132" on="0"/>
        <pt x="287" y="13" on="0"/>
        <pt x="373" y="13" on="1"/>
        <pt x="413" y="13" on="0"/>
        <pt x="469" y="34" on="0"/>
        <pt x="504" y="57" on="1"/>
        <pt x="504" y="30" on="1"/>
        <pt x="474" y="10" on="0"/>
        <pt x="410" y="-10" on="0"/>
        <pt x="370" y="-10" on="1"/>
        <pt x="274" y="-10" on="0"/>
        <pt x="155" y="124" on="0"/>
        <pt x="140" y="255" on="1"/>
        <pt x="63" y="255" on="1"/>
        <pt x="69" y="277" on="1"/>
        <pt x="139" y="277" on="1"/>
        <pt x="139" y="395" on="1"/>
        <pt x="63" y="395" on="1"/>
        <pt x="69" y="418" on="1"/>
        <pt x="141" y="418" on="1"/>
        <pt x="162" y="539" on="0"/>
        <pt x="285" y="673" on="0"/>
        <pt x="374" y="673" on="1"/>
        <pt x="417" y="673" on="0"/>
        <pt x="487" y="648" on="0"/>
        <pt x="525" y="621" on="1"/>
        <pt x="513" y="601" on="1"/>
        <pt x="475" y="628" on="0"/>
        <pt x="413" y="650" on="0"/>
        <pt x="373" y="650" on="1"/>
      </contour>
    </TTGlyph>
    <TTGlyph name="F" xMin="122" yMin="0" xMax="439" yMax="682">
      <contour>
        <pt x="436" y="658" on="1"/>
        <pt x="147" y="658" on="1"/>
        <pt x="147" y="356" on="1"/>
        <pt x="397" y="356" on="1"/>
        <pt x="397" y="334" on="1"/>
        <pt x="147" y="334" on="1"/>
        <pt x="147" y="0" on="1"/>
        <pt x="122" y="0" on="1"/>
        <pt x="122" y="682" on="1"/>
        <pt x="439" y="682" on="1"/>
      </contour>
    </TTGlyph>
    <TTGlyph name="G" xMin="77" yMin="-10" xMax="534" yMax="692">
      <contour>
        <pt x="399" y="692" on="0"/>
        <pt x="477" y="663" on="0"/>
        <pt x="518" y="632" on="1"/>
        <pt x="503" y="615" on="1"/>
        <pt x="467" y="643" on="0"/>
        <pt x="394" y="668" on="0"/>
        <pt x="347" y="668" on="1"/>
        <pt x="285" y="668" on="0"/>
        <pt x="173" y="599" on="0"/>
        <pt x="103" y="454" on="0"/>
        <pt x="103" y="345" on="1"/>
        <pt x="103" y="183" on="0"/>
        <pt x="237" y="13" on="0"/>
        <pt x="353" y="13" on="1"/>
        <pt x="399" y="13" on="0"/>
        <pt x="473" y="34" on="0"/>
        <pt x="509" y="54" on="1"/>
        <pt x="509" y="332" on="1"/>
        <pt x="364" y="332" on="1"/>
        <pt x="361" y="355" on="1"/>
        <pt x="534" y="355" on="1"/>
        <pt x="534" y="41" on="1"/>
        <pt x="447" y="-10" on="0"/>
        <pt x="353" y="-10" on="1"/>
        <pt x="270" y="-10" on="0"/>
        <pt x="146" y="70" on="0"/>
        <pt x="77" y="230" on="0"/>
        <pt x="77" y="345" on="1"/>
        <pt x="77" y="458" on="0"/>
        <pt x="154" y="615" on="0"/>
        <pt x="278" y="692" on="0"/>
        <pt x="347" y="692" on="1"/>
      </contour>
    </TTGlyph>
    <TTGlyph name="Gamma" xMin="122" yMin="0" xMax="499" yMax="682">
      <component glyphName="uni0413" x="0" y="0" flags="0x0"/>
    </TTGlyph>
    <TTGlyph name="Gbreve" xMin="77" yMin="-10" xMax="534" yMax="852">
      <component glyphName="G" x="0" y="0" flags="0x0"/>
      <component glyphName="uni0306.case" x="470" y="0" flags="0x0"/>
    </TTGlyph>
    <TTGlyph name="Gcaron" xMin="77" yMin="-10" xMax="534" yMax="865">
      <component glyphName="G" x="0" y="0" flags="0x0"/>
      <component glyphName="uni030C.case" x="495" y="0" flags="0x0"/>
    </TTGlyph>
    <TTGlyph name="Gcircumflex" xMin="77" yMin="-10" xMax="534" yMax="871">
      <component glyphName="G" x="0" y="0" flags="0x0"/>
      <component glyphName="uni0302.case" x="505" y="0" flags="0x0"/>
    </TTGlyph>
    <TTGlyph name="Gcommaaccent" xMin="77" yMin="-259" xMax="534" yMax="692">
      <component glyphName="G" x="0" y="0" flags="0x0"/>
      <component glyphName="uni0326.case" x="393" y="0" flags="0x0"/>
    </TTGlyph>
    <TTGlyph name="Gdotaccent" xMin="77" yMin="-10" xMax="534" yMax="852">
      <component glyphName="G" x="0" y="0" flags="0x0"/>
      <component glyphName="uni0307.case" x="397" y="0" flags="0x0"/>
    </TTGlyph>
    <TTGlyph name="H" xMin="122" yMin="0" xMax="538" yMax="682">
      <contour>
        <pt x="513" y="348" on="1"/>
        <pt x="147" y="348" on="1"/>
        <pt x="147" y="0" on="1"/>
        <pt x="122" y="0" on="1"/>
        <pt x="122" y="682" on="1"/>
        <pt x="147" y="682" on="1"/>
        <pt x="147" y="371" on="1"/>
        <pt x="513" y="371" on="1"/>
        <pt x="513" y="682" on="1"/>
        <pt x="538" y="682" on="1"/>
        <pt x="538" y="0" on="1"/>
        <pt x="513" y="0" on="1"/>
      </contour>
    </TTGlyph>
    <TTGlyph name="Hbar" xMin="63" yMin="0" xMax="600" yMax="682">
      <contour>
        <pt x="600" y="520" on="1"/>
        <pt x="540" y="520" on="1"/>
        <pt x="540" y="0" on="1"/>
        <pt x="515" y="0" on="1"/>
        <pt x="515" y="348" on="1"/>
        <pt x="149" y="348" on="1"/>
        <pt x="149" y="0" on="1"/>
        <pt x="124" y="0" on="1"/>
        <pt x="124" y="520" on="1"/>
        <pt x="63" y="520" on="1"/>
        <pt x="63" y="539" on="1"/>
        <pt x="124" y="539" on="1"/>
        <pt x="124" y="682" on="1"/>
        <pt x="149" y="682" on="1"/>
        <pt x="149" y="539" on="1"/>
        <pt x="515" y="539" on="1"/>
        <pt x="515" y="682" on="1"/>
        <pt x="540" y="682" on="1"/>
        <pt x="540" y="539" on="1"/>
        <pt x="600" y="539" on="1"/>
      </contour>
      <contour>
        <pt x="515" y="520" on="1"/>
        <pt x="149" y="520" on="1"/>
        <pt x="149" y="371" on="1"/>
        <pt x="515" y="371" on="1"/>
      </contour>
    </TTGlyph>
    <TTGlyph name="Hcircumflex" xMin="122" yMin="0" xMax="538" yMax="871">
      <component glyphName="H" x="0" y="0" flags="0x0"/>
      <component glyphName="uni0302.case" x="487" y="0" flags="0x0"/>
    </TTGlyph>
    <TTGlyph name="I" xMin="122" yMin="0" xMax="147" yMax="682">
      <contour>
        <pt x="147" y="0" on="1"/>
        <pt x="122" y="0" on="1"/>
        <pt x="122" y="682" on="1"/>
        <pt x="147" y="682" on="1"/>
      </contour>
    </TTGlyph>
    <TTGlyph name="IJ" xMin="122" yMin="-101" xMax="431" yMax="682">
      <component glyphName="I" x="0" y="0" flags="0x0"/>
      <component glyphName="J" x="269" y="0" flags="0x0"/>
    </TTGlyph>
    <TTGlyph name="Iacute" xMin="40" yMin="0" xMax="227" yMax="863">
      <component glyphName="I" x="0" y="0" flags="0x0"/>
      <component glyphName="acutecomb.case" x="250" y="0" flags="0x0"/>
    </TTGlyph>
    <TTGlyph name="Ibreve" xMin="25" yMin="0" xMax="243" yMax="852">
      <component glyphName="I" x="0" y="0" flags="0x0"/>
      <component glyphName="uni0306.case" x="258" y="0" flags="0x0"/>
    </TTGlyph>
    <TTGlyph name="Icircumflex" xMin="6" yMin="0" xMax="261" yMax="871">
      <component glyphName="I" x="0" y="0" flags="0x0"/>
      <component glyphName="uni0302.case" x="292" y="0" flags="0x0"/>
    </TTGlyph>
    <TTGlyph name="Idieresis" xMin="29" yMin="0" xMax="239" yMax="840">
      <component glyphName="I" x="0" y="0" flags="0x0"/>
      <component glyphName="uni0308.case" x="270" y="0" flags="0x0"/>
    </TTGlyph>
    <TTGlyph name="Idotaccent" xMin="112" yMin="0" xMax="155" yMax="852">
      <component glyphName="I" x="0" y="0" flags="0x0"/>
      <component glyphName="uni0307.case" x="184" y="0" flags="0x0"/>
    </TTGlyph>
    <TTGlyph name="Igrave" xMin="41" yMin="0" xMax="228" yMax="863">
      <component glyphName="I" x="0" y="0" flags="0x0"/>
      <component glyphName="gravecomb.case" x="251" y="0" flags="0x0"/>
    </TTGlyph>
    <TTGlyph name="Imacron" xMin="30" yMin="0" xMax="239" yMax="834">
      <component glyphName="I" x="0" y="0" flags="0x0"/>
      <component glyphName="uni0304.case" x="261" y="0" flags="0x0"/>
    </TTGlyph>
    <TTGlyph name="Iogonek" xMin="-4" yMin="-203" xMax="148" yMax="682">
      <contour>
        <pt x="115" y="-179" on="0"/>
        <pt x="148" y="-173" on="1"/>
        <pt x="145" y="-197" on="1"/>
        <pt x="115" y="-203" on="0"/>
        <pt x="92" y="-203" on="1"/>
        <pt x="45" y="-203" on="0"/>
        <pt x="-4" y="-159" on="0"/>
        <pt x="-4" y="-122" on="1"/>
        <pt x="-4" y="-81" on="0"/>
        <pt x="60" y="-20" on="0"/>
        <pt x="122" y="7" on="1"/>
        <pt x="122" y="682" on="1"/>
        <pt x="147" y="682" on="1"/>
        <pt x="147" y="0" on="1"/>
        <pt x="84" y="-29" on="0"/>
        <pt x="23" y="-81" on="0"/>
        <pt x="23" y="-121" on="1"/>
        <pt x="23" y="-149" on="0"/>
        <pt x="58" y="-179" on="0"/>
        <pt x="92" y="-179" on="1"/>
      </contour>
    </TTGlyph>
    <TTGlyph name="Iota" xMin="122" yMin="0" xMax="147" yMax="682">
      <contour>
        <pt x="147" y="0" on="1"/>
        <pt x="122" y="0" on="1"/>
        <pt x="122" y="682" on="1"/>
        <pt x="147" y="682" on="1"/>
      </contour>
    </TTGlyph>
    <TTGlyph name="Iotadieresis" xMin="29" yMin="0" xMax="239" yMax="840">
      <component glyphName="I" x="0" y="0" flags="0x0"/>
      <component glyphName="uni0308.case" x="270" y="0" flags="0x0"/>
    </TTGlyph>
    <TTGlyph name="Iotatonos" xMin="30" yMin="0" xMax="183" yMax="688">
      <component glyphName="tonos.case" x="0" y="0" flags="0x0"/>
      <component glyphName="I" x="36" y="0" flags="0x0"/>
    </TTGlyph>
    <TTGlyph name="Itilde" xMin="0" yMin="0" xMax="266" yMax="868">
      <component glyphName="I" x="0" y="0" flags="0x0"/>
      <component glyphName="tildecomb.case" x="288" y="0" flags="0x0"/>
    </TTGlyph>
    <TTGlyph name="J" xMin="22" yMin="-101" xMax="162" yMax="682">
      <contour>
        <pt x="162" y="87" on="1"/>
        <pt x="162" y="35" on="0"/>
        <pt x="141" y="-29" on="0"/>
        <pt x="85" y="-77" on="0"/>
        <pt x="29" y="-101" on="1"/>
        <pt x="22" y="-83" on="1"/>
        <pt x="69" y="-61" on="0"/>
        <pt x="118" y="-18" on="0"/>
        <pt x="137" y="41" on="0"/>
        <pt x="137" y="89" on="1"/>
        <pt x="137" y="682" on="1"/>
        <pt x="162" y="682" on="1"/>
      </contour>
    </TTGlyph>
    <TTGlyph name="Jcircumflex" xMin="20" yMin="-101" xMax="275" yMax="871">
      <component glyphName="J" x="0" y="0" flags="0x0"/>
      <component glyphName="uni0302.case" x="306" y="0" flags="0x0"/>
    </TTGlyph>
    <TTGlyph name="K" xMin="122" yMin="0" xMax="508" yMax="682">
      <contour>
        <pt x="147" y="0" on="1"/>
        <pt x="122" y="0" on="1"/>
        <pt x="122" y="682" on="1"/>
        <pt x="147" y="682" on="1"/>
      </contour>
      <contour>
        <pt x="182" y="367" on="1"/>
        <pt x="508" y="0" on="1"/>
        <pt x="477" y="0" on="1"/>
        <pt x="150" y="367" on="1"/>
        <pt x="462" y="682" on="1"/>
        <pt x="492" y="682" on="1"/>
      </contour>
    </TTGlyph>
    <TTGlyph name="Kappa" xMin="122" yMin="0" xMax="508" yMax="682">
      <component glyphName="K" x="0" y="0" flags="0x0"/>
    </TTGlyph>
    <TTGlyph name="Kcommaaccent" xMin="122" yMin="-259" xMax="508" yMax="682">
      <component glyphName="K" x="0" y="0" flags="0x0"/>
      <component glyphName="uni0326.case" x="352" y="0" flags="0x0"/>
    </TTGlyph>
    <TTGlyph name="L" xMin="122" yMin="0" xMax="436" yMax="682">
      <contour>
        <pt x="147" y="24" on="1"/>
        <pt x="436" y="24" on="1"/>
        <pt x="431" y="0" on="1"/>
        <pt x="122" y="0" on="1"/>
        <pt x="122" y="682" on="1"/>
        <pt x="147" y="682" on="1"/>
      </contour>
    </TTGlyph>
    <TTGlyph name="Lacute" xMin="40" yMin="0" xMax="436" yMax="863">
      <component glyphName="L" x="0" y="0" flags="0x0"/>
      <component glyphName="acutecomb.case" x="250" y="0" flags="0x0"/>
    </TTGlyph>
    <TTGlyph name="Lambda" xMin="27" yMin="0" xMax="530" yMax="682">
      <contour>
        <pt x="530" y="0" on="1"/>
        <pt x="504" y="0" on="1"/>
        <pt x="279" y="662" on="1"/>
        <pt x="52" y="0" on="1"/>
        <pt x="27" y="0" on="1"/>
        <pt x="263" y="682" on="1"/>
        <pt x="294" y="682" on="1"/>
      </contour>
    </TTGlyph>
    <TTGlyph name="Lcaron" xMin="122" yMin="0" xMax="436" yMax="685">
      <component glyphName="L" x="0" y="0" flags="0x0"/>
      <component glyphName="caron.alt" x="157" y="0" flags="0x0"/>
    </TTGlyph>
    <TTGlyph name="Lcommaaccent" xMin="122" yMin="-259" xMax="436" yMax="682">
      <component glyphName="L" x="0" y="0" flags="0x0"/>
      <component glyphName="uni0326.case" x="335" y="0" flags="0x0"/>
    </TTGlyph>
    <TTGlyph name="Ldot" xMin="122" yMin="0" xMax="436" yMax="682">
      <component glyphName="L" x="0" y="0" flags="0x0"/>
      <component glyphName="uni0307" x="403" y="-351" flags="0x0"/>
    </TTGlyph>
    <TTGlyph name="Lslash" xMin="44" yMin="0" xMax="441" yMax="682">
      <contour>
        <pt x="441" y="24" on="1"/>
        <pt x="436" y="0" on="1"/>
        <pt x="127" y="0" on="1"/>
        <pt x="127" y="306" on="1"/>
        <pt x="55" y="261" on="1"/>
        <pt x="44" y="279" on="1"/>
        <pt x="127" y="330" on="1"/>
        <pt x="127" y="682" on="1"/>
        <pt x="152" y="682" on="1"/>
        <pt x="152" y="346" on="1"/>
        <pt x="352" y="471" on="1"/>
        <pt x="362" y="453" on="1"/>
        <pt x="152" y="322" on="1"/>
        <pt x="152" y="24" on="1"/>
      </contour>
    </TTGlyph>
    <TTGlyph name="M" xMin="77" yMin="0" xMax="685" yMax="682">
      <contour>
        <pt x="685" y="0" on="1"/>
        <pt x="661" y="0" on="1"/>
        <pt x="623" y="345" on="1"/>
        <pt x="607" y="485" on="0"/>
        <pt x="589" y="660" on="1"/>
        <pt x="393" y="83" on="1"/>
        <pt x="369" y="83" on="1"/>
        <pt x="170" y="660" on="1"/>
        <pt x="168" y="620" on="0"/>
        <pt x="153" y="492" on="1"/>
        <pt x="139" y="359" on="0"/>
        <pt x="138" y="353" on="1"/>
        <pt x="101" y="0" on="1"/>
        <pt x="77" y="0" on="1"/>
        <pt x="150" y="682" on="1"/>
        <pt x="187" y="682" on="1"/>
        <pt x="381" y="114" on="1"/>
        <pt x="573" y="682" on="1"/>
        <pt x="611" y="682" on="1"/>
      </contour>
    </TTGlyph>
    <TTGlyph name="Mu" xMin="77" yMin="0" xMax="685" yMax="682">
      <component glyphName="M" x="0" y="0" flags="0x0"/>
    </TTGlyph>
    <TTGlyph name="N" xMin="122" yMin="0" xMax="540" yMax="682">
      <contour>
        <pt x="540" y="0" on="1"/>
        <pt x="509" y="0" on="1"/>
        <pt x="143" y="654" on="1"/>
        <pt x="146" y="600" on="0"/>
        <pt x="146" y="467" on="1"/>
        <pt x="146" y="0" on="1"/>
        <pt x="122" y="0" on="1"/>
        <pt x="122" y="682" on="1"/>
        <pt x="153" y="682" on="1"/>
        <pt x="519" y="28" on="1"/>
        <pt x="516" y="88" on="0"/>
        <pt x="516" y="211" on="1"/>
        <pt x="516" y="682" on="1"/>
        <pt x="540" y="682" on="1"/>
      </contour>
    </TTGlyph>
    <TTGlyph name="Nacute" xMin="122" yMin="0" xMax="540" yMax="863">
      <component glyphName="N" x="0" y="0" flags="0x0"/>
      <component glyphName="acutecomb.case" x="453" y="0" flags="0x0"/>
    </TTGlyph>
    <TTGlyph name="Nacute.loclPLK" xMin="122" yMin="0" xMax="540" yMax="888">
      <component glyphName="N" x="0" y="0" flags="0x0"/>
      <component glyphName="acute.case.loclPLK" x="220" y="0" flags="0x0"/>
    </TTGlyph>
    <TTGlyph name="Ncaron" xMin="122" yMin="0" xMax="540" yMax="865">
      <component glyphName="N" x="0" y="0" flags="0x0"/>
      <component glyphName="uni030C.case" x="485" y="0" flags="0x0"/>
    </TTGlyph>
    <TTGlyph name="Ncommaaccent" xMin="122" yMin="-259" xMax="540" yMax="682">
      <component glyphName="N" x="0" y="0" flags="0x0"/>
      <component glyphName="uni0326.case" x="385" y="0" flags="0x0"/>
    </TTGlyph>
    <TTGlyph name="Ntilde" xMin="122" yMin="0" xMax="540" yMax="868">
      <component glyphName="N" x="0" y="0" flags="0x0"/>
      <component glyphName="tildecomb.case" x="492" y="0" flags="0x0"/>
    </TTGlyph>
    <TTGlyph name="Nu" xMin="122" yMin="0" xMax="540" yMax="682">
      <component glyphName="N" x="0" y="0" flags="0x0"/>
    </TTGlyph>
    <TTGlyph name="O" xMin="77" yMin="-10" xMax="612" yMax="692">
      <contour>
        <pt x="426" y="692" on="0"/>
        <pt x="546" y="611" on="0"/>
        <pt x="612" y="453" on="0"/>
        <pt x="612" y="340" on="1"/>
        <pt x="612" y="230" on="0"/>
        <pt x="548" y="73" on="0"/>
        <pt x="428" y="-10" on="0"/>
        <pt x="345" y="-10" on="1"/>
        <pt x="265" y="-10" on="0"/>
        <pt x="144" y="72" on="0"/>
        <pt x="77" y="229" on="0"/>
        <pt x="77" y="339" on="1"/>
        <pt x="77" y="449" on="0"/>
        <pt x="144" y="608" on="0"/>
        <pt x="265" y="692" on="0"/>
        <pt x="345" y="692" on="1"/>
      </contour>
      <contour>
        <pt x="272" y="668" on="0"/>
        <pt x="163" y="592" on="0"/>
        <pt x="103" y="444" on="0"/>
        <pt x="103" y="339" on="1"/>
        <pt x="103" y="235" on="0"/>
        <pt x="163" y="88" on="0"/>
        <pt x="272" y="13" on="0"/>
        <pt x="345" y="13" on="1"/>
        <pt x="459" y="13" on="0"/>
        <pt x="587" y="182" on="0"/>
        <pt x="587" y="340" on="1"/>
        <pt x="587" y="499" on="0"/>
        <pt x="457" y="668" on="0"/>
        <pt x="345" y="668" on="1"/>
      </contour>
    </TTGlyph>
    <TTGlyph name="OE" xMin="77" yMin="-10" xMax="804" yMax="692">
      <contour>
        <pt x="804" y="0" on="1"/>
        <pt x="398" y="0" on="1"/>
        <pt x="369" y="-10" on="0"/>
        <pt x="333" y="-10" on="1"/>
        <pt x="258" y="-10" on="0"/>
        <pt x="142" y="72" on="0"/>
        <pt x="77" y="229" on="0"/>
        <pt x="77" y="339" on="1"/>
        <pt x="77" y="449" on="0"/>
        <pt x="143" y="608" on="0"/>
        <pt x="259" y="692" on="0"/>
        <pt x="333" y="692" on="1"/>
        <pt x="367" y="692" on="0"/>
        <pt x="402" y="682" on="1"/>
        <pt x="797" y="682" on="1"/>
        <pt x="794" y="658" on="1"/>
        <pt x="452" y="658" on="1"/>
        <pt x="516" y="622" on="0"/>
        <pt x="587" y="476" on="0"/>
        <pt x="590" y="371" on="1"/>
        <pt x="753" y="371" on="1"/>
        <pt x="753" y="348" on="1"/>
        <pt x="590" y="348" on="1"/>
        <pt x="589" y="223" on="0"/>
        <pt x="517" y="59" on="0"/>
        <pt x="450" y="23" on="1"/>
        <pt x="804" y="23" on="1"/>
      </contour>
      <contour>
        <pt x="103" y="235" on="0"/>
        <pt x="161" y="88" on="0"/>
        <pt x="265" y="13" on="0"/>
        <pt x="333" y="13" on="1"/>
        <pt x="442" y="13" on="0"/>
        <pt x="565" y="187" on="0"/>
        <pt x="565" y="352" on="1"/>
        <pt x="565" y="452" on="0"/>
        <pt x="507" y="595" on="0"/>
        <pt x="402" y="668" on="0"/>
        <pt x="333" y="668" on="1"/>
        <pt x="266" y="668" on="0"/>
        <pt x="162" y="592" on="0"/>
        <pt x="103" y="444" on="0"/>
        <pt x="103" y="339" on="1"/>
      </contour>
    </TTGlyph>
    <TTGlyph name="Oacute" xMin="77" yMin="-10" xMax="612" yMax="863">
      <component glyphName="O" x="0" y="0" flags="0x0"/>
      <component glyphName="acutecomb.case" x="460" y="0" flags="0x0"/>
    </TTGlyph>
    <TTGlyph name="Oacute.loclPLK" xMin="77" yMin="-10" xMax="612" yMax="888">
      <component glyphName="O" x="0" y="0" flags="0x0"/>
      <component glyphName="acute.case.loclPLK" x="227" y="0" flags="0x0"/>
    </TTGlyph>
    <TTGlyph name="Obreve" xMin="77" yMin="-10" xMax="612" yMax="852">
      <component glyphName="O" x="0" y="0" flags="0x0"/>
      <component glyphName="uni0306.case" x="468" y="0" flags="0x0"/>
    </TTGlyph>
    <TTGlyph name="Ocircumflex" xMin="77" yMin="-10" xMax="612" yMax="871">
      <component glyphName="O" x="0" y="0" flags="0x0"/>
      <component glyphName="uni0302.case" x="503" y="0" flags="0x0"/>
    </TTGlyph>
    <TTGlyph name="Odieresis" xMin="77" yMin="-10" xMax="612" yMax="840">
      <component glyphName="O" x="0" y="0" flags="0x0"/>
      <component glyphName="uni0308.case" x="480" y="0" flags="0x0"/>
    </TTGlyph>
    <TTGlyph name="Ograve" xMin="77" yMin="-10" xMax="612" yMax="863">
      <component glyphName="O" x="0" y="0" flags="0x0"/>
      <component glyphName="gravecomb.case" x="462" y="0" flags="0x0"/>
    </TTGlyph>
    <TTGlyph name="Ohorn" xMin="77" yMin="-10" xMax="612" yMax="765">
      <contour>
        <pt x="612" y="516" on="0"/>
        <pt x="612" y="340" on="1"/>
        <pt x="612" y="230" on="0"/>
        <pt x="548" y="73" on="0"/>
        <pt x="428" y="-10" on="0"/>
        <pt x="345" y="-10" on="1"/>
        <pt x="265" y="-10" on="0"/>
        <pt x="144" y="72" on="0"/>
        <pt x="77" y="229" on="0"/>
        <pt x="77" y="339" on="1"/>
        <pt x="77" y="449" on="0"/>
        <pt x="144" y="608" on="0"/>
        <pt x="265" y="692" on="0"/>
        <pt x="345" y="692" on="1"/>
        <pt x="450" y="692" on="0"/>
        <pt x="518" y="624" on="1"/>
        <pt x="551" y="628" on="0"/>
        <pt x="580" y="657" on="0"/>
        <pt x="580" y="686" on="1"/>
        <pt x="580" y="723" on="0"/>
        <pt x="566" y="758" on="1"/>
        <pt x="584" y="765" on="1"/>
        <pt x="602" y="729" on="0"/>
        <pt x="602" y="686" on="1"/>
        <pt x="602" y="652" on="0"/>
        <pt x="565" y="612" on="0"/>
        <pt x="532" y="609" on="1"/>
      </contour>
      <contour>
        <pt x="459" y="13" on="0"/>
        <pt x="587" y="182" on="0"/>
        <pt x="587" y="340" on="1"/>
        <pt x="587" y="499" on="0"/>
        <pt x="457" y="668" on="0"/>
        <pt x="345" y="668" on="1"/>
        <pt x="272" y="668" on="0"/>
        <pt x="163" y="592" on="0"/>
        <pt x="103" y="444" on="0"/>
        <pt x="103" y="339" on="1"/>
        <pt x="103" y="235" on="0"/>
        <pt x="163" y="88" on="0"/>
        <pt x="272" y="13" on="0"/>
        <pt x="345" y="13" on="1"/>
      </contour>
    </TTGlyph>
    <TTGlyph name="Ohungarumlaut" xMin="77" yMin="-10" xMax="612" yMax="918">
      <component glyphName="O" x="0" y="0" flags="0x0"/>
      <component glyphName="uni030B.case" x="505" y="0" flags="0x0"/>
    </TTGlyph>
    <TTGlyph name="Omacron" xMin="77" yMin="-10" xMax="612" yMax="834">
      <component glyphName="O" x="0" y="0" flags="0x0"/>
      <component glyphName="uni0304.case" x="471" y="0" flags="0x0"/>
    </TTGlyph>
    <TTGlyph name="Omega" xMin="77" yMin="0" xMax="612" yMax="692">
      <contour>
        <pt x="426" y="692" on="0"/>
        <pt x="546" y="611" on="0"/>
        <pt x="612" y="453" on="0"/>
        <pt x="612" y="340" on="1"/>
        <pt x="612" y="211" on="0"/>
        <pt x="532" y="60" on="0"/>
        <pt x="455" y="24" on="1"/>
        <pt x="589" y="24" on="1"/>
        <pt x="589" y="0" on="1"/>
        <pt x="412" y="0" on="1"/>
        <pt x="412" y="23" on="1"/>
        <pt x="499" y="58" on="0"/>
        <pt x="587" y="211" on="0"/>
        <pt x="587" y="340" on="1"/>
        <pt x="587" y="499" on="0"/>
        <pt x="457" y="668" on="0"/>
        <pt x="345" y="668" on="1"/>
        <pt x="272" y="668" on="0"/>
        <pt x="163" y="592" on="0"/>
        <pt x="103" y="444" on="0"/>
        <pt x="103" y="339" on="1"/>
        <pt x="103" y="213" on="0"/>
        <pt x="191" y="61" on="0"/>
        <pt x="278" y="23" on="1"/>
        <pt x="278" y="0" on="1"/>
        <pt x="100" y="0" on="1"/>
        <pt x="100" y="24" on="1"/>
        <pt x="235" y="24" on="1"/>
        <pt x="155" y="64" on="0"/>
        <pt x="77" y="213" on="0"/>
        <pt x="77" y="339" on="1"/>
        <pt x="77" y="449" on="0"/>
        <pt x="144" y="608" on="0"/>
        <pt x="265" y="692" on="0"/>
        <pt x="345" y="692" on="1"/>
      </contour>
    </TTGlyph>
    <TTGlyph name="Omegatonos" xMin="30" yMin="0" xMax="638" yMax="692">
      <component glyphName="tonos.case" x="0" y="0" flags="0x0"/>
      <component glyphName="Omega" x="26" y="0" flags="0x0"/>
    </TTGlyph>
    <TTGlyph name="Omicron" xMin="77" yMin="-10" xMax="612" yMax="692">
      <contour>
        <pt x="426" y="692" on="0"/>
        <pt x="546" y="611" on="0"/>
        <pt x="612" y="453" on="0"/>
        <pt x="612" y="340" on="1"/>
        <pt x="612" y="230" on="0"/>
        <pt x="548" y="73" on="0"/>
        <pt x="428" y="-10" on="0"/>
        <pt x="345" y="-10" on="1"/>
        <pt x="265" y="-10" on="0"/>
        <pt x="144" y="72" on="0"/>
        <pt x="77" y="229" on="0"/>
        <pt x="77" y="339" on="1"/>
        <pt x="77" y="449" on="0"/>
        <pt x="144" y="608" on="0"/>
        <pt x="265" y="692" on="0"/>
        <pt x="345" y="692" on="1"/>
      </contour>
      <contour>
        <pt x="272" y="668" on="0"/>
        <pt x="163" y="592" on="0"/>
        <pt x="103" y="444" on="0"/>
        <pt x="103" y="339" on="1"/>
        <pt x="103" y="235" on="0"/>
        <pt x="163" y="88" on="0"/>
        <pt x="272" y="13" on="0"/>
        <pt x="345" y="13" on="1"/>
        <pt x="459" y="13" on="0"/>
        <pt x="587" y="182" on="0"/>
        <pt x="587" y="340" on="1"/>
        <pt x="587" y="499" on="0"/>
        <pt x="457" y="668" on="0"/>
        <pt x="345" y="668" on="1"/>
      </contour>
    </TTGlyph>
    <TTGlyph name="Omicrontonos" xMin="30" yMin="-10" xMax="638" yMax="692">
      <component glyphName="tonos.case" x="0" y="0" flags="0x0"/>
      <component glyphName="O" x="26" y="0" flags="0x0"/>
    </TTGlyph>
    <TTGlyph name="Oslash" xMin="77" yMin="-112" xMax="612" yMax="800">
      <contour>
        <pt x="528" y="636" on="0"/>
        <pt x="612" y="468" on="0"/>
        <pt x="612" y="340" on="1"/>
        <pt x="612" y="230" on="0"/>
        <pt x="548" y="73" on="0"/>
        <pt x="428" y="-10" on="0"/>
        <pt x="345" y="-10" on="1"/>
        <pt x="297" y="-10" on="0"/>
        <pt x="256" y="5" on="1"/>
        <pt x="256" y="4" on="1"/>
        <pt x="224" y="-112" on="1"/>
        <pt x="200" y="-104" on="1"/>
        <pt x="236" y="13" on="1"/>
        <pt x="161" y="47" on="0"/>
        <pt x="77" y="215" on="0"/>
        <pt x="77" y="339" on="1"/>
        <pt x="77" y="449" on="0"/>
        <pt x="144" y="608" on="0"/>
        <pt x="265" y="692" on="0"/>
        <pt x="345" y="692" on="1"/>
        <pt x="391" y="692" on="0"/>
        <pt x="431" y="678" on="1"/>
        <pt x="464" y="800" on="1"/>
        <pt x="489" y="792" on="1"/>
        <pt x="451" y="670" on="1"/>
      </contour>
      <contour>
        <pt x="103" y="223" on="0"/>
        <pt x="177" y="68" on="0"/>
        <pt x="244" y="35" on="1"/>
        <pt x="426" y="655" on="1"/>
        <pt x="390" y="668" on="0"/>
        <pt x="345" y="668" on="1"/>
        <pt x="272" y="668" on="0"/>
        <pt x="163" y="592" on="0"/>
        <pt x="103" y="444" on="0"/>
        <pt x="103" y="339" on="1"/>
      </contour>
      <contour>
        <pt x="459" y="13" on="0"/>
        <pt x="587" y="182" on="0"/>
        <pt x="587" y="340" on="1"/>
        <pt x="587" y="460" on="0"/>
        <pt x="512" y="616" on="0"/>
        <pt x="444" y="648" on="1"/>
        <pt x="262" y="28" on="1"/>
        <pt x="300" y="13" on="0"/>
        <pt x="345" y="13" on="1"/>
      </contour>
    </TTGlyph>
    <TTGlyph name="Oslashacute" xMin="77" yMin="-112" xMax="612" yMax="872">
      <component glyphName="Oslash" x="0" y="0" flags="0x0"/>
      <component glyphName="acutecomb.case" x="452" y="9" flags="0x0"/>
    </TTGlyph>
    <TTGlyph name="Otilde" xMin="77" yMin="-10" xMax="612" yMax="868">
      <component glyphName="O" x="0" y="0" flags="0x0"/>
      <component glyphName="tildecomb.case" x="499" y="0" flags="0x0"/>
    </TTGlyph>
    <TTGlyph name="P" xMin="122" yMin="0" xMax="502" yMax="682">
      <contour>
        <pt x="381" y="682" on="0"/>
        <pt x="502" y="586" on="0"/>
        <pt x="502" y="483" on="1"/>
        <pt x="502" y="378" on="0"/>
        <pt x="372" y="281" on="0"/>
        <pt x="257" y="281" on="1"/>
        <pt x="147" y="281" on="1"/>
        <pt x="147" y="0" on="1"/>
        <pt x="122" y="0" on="1"/>
        <pt x="122" y="682" on="1"/>
        <pt x="261" y="682" on="1"/>
      </contour>
      <contour>
        <pt x="362" y="304" on="0"/>
        <pt x="476" y="387" on="0"/>
        <pt x="476" y="483" on="1"/>
        <pt x="476" y="577" on="0"/>
        <pt x="370" y="658" on="0"/>
        <pt x="261" y="658" on="1"/>
        <pt x="147" y="658" on="1"/>
        <pt x="147" y="304" on="1"/>
        <pt x="259" y="304" on="1"/>
      </contour>
    </TTGlyph>
    <TTGlyph name="Phi" xMin="47" yMin="0" xMax="722" yMax="682">
      <contour>
        <pt x="722" y="86" on="0"/>
        <pt x="397" y="73" on="1"/>
        <pt x="397" y="0" on="1"/>
        <pt x="372" y="0" on="1"/>
        <pt x="372" y="73" on="1"/>
        <pt x="210" y="77" on="0"/>
        <pt x="47" y="218" on="0"/>
        <pt x="47" y="341" on="1"/>
        <pt x="47" y="598" on="0"/>
        <pt x="372" y="611" on="1"/>
        <pt x="372" y="682" on="1"/>
        <pt x="397" y="682" on="1"/>
        <pt x="397" y="611" on="1"/>
        <pt x="559" y="607" on="0"/>
        <pt x="722" y="466" on="0"/>
        <pt x="722" y="342" on="1"/>
      </contour>
      <contour>
        <pt x="549" y="103" on="0"/>
        <pt x="697" y="222" on="0"/>
        <pt x="697" y="342" on="1"/>
        <pt x="697" y="458" on="0"/>
        <pt x="545" y="585" on="0"/>
        <pt x="396" y="588" on="1"/>
        <pt x="396" y="95" on="1"/>
      </contour>
      <contour>
        <pt x="73" y="226" on="0"/>
        <pt x="224" y="98" on="0"/>
        <pt x="373" y="95" on="1"/>
        <pt x="373" y="588" on="1"/>
        <pt x="220" y="581" on="0"/>
        <pt x="73" y="462" on="0"/>
        <pt x="73" y="341" on="1"/>
      </contour>
    </TTGlyph>
    <TTGlyph name="Pi" xMin="122" yMin="0" xMax="534" yMax="682">
      <component glyphName="uni041F" x="0" y="0" flags="0x0"/>
    </TTGlyph>
    <TTGlyph name="Psi" xMin="47" yMin="0" xMax="601" yMax="682">
      <contour>
        <pt x="601" y="682" on="1"/>
        <pt x="601" y="426" on="1"/>
        <pt x="601" y="323" on="0"/>
        <pt x="466" y="212" on="0"/>
        <pt x="337" y="209" on="1"/>
        <pt x="337" y="0" on="1"/>
        <pt x="312" y="0" on="1"/>
        <pt x="312" y="209" on="1"/>
        <pt x="183" y="212" on="0"/>
        <pt x="47" y="323" on="0"/>
        <pt x="47" y="426" on="1"/>
        <pt x="47" y="682" on="1"/>
        <pt x="72" y="682" on="1"/>
        <pt x="72" y="429" on="1"/>
        <pt x="72" y="335" on="0"/>
        <pt x="194" y="235" on="0"/>
        <pt x="312" y="232" on="1"/>
        <pt x="312" y="682" on="1"/>
        <pt x="337" y="682" on="1"/>
        <pt x="337" y="233" on="1"/>
        <pt x="455" y="236" on="0"/>
        <pt x="577" y="335" on="0"/>
        <pt x="577" y="429" on="1"/>
        <pt x="577" y="682" on="1"/>
      </contour>
    </TTGlyph>
    <TTGlyph name="Q" xMin="77" yMin="-82" xMax="631" yMax="692">
      <contour>
        <pt x="483" y="5" on="0"/>
        <pt x="590" y="-25" on="0"/>
        <pt x="631" y="-61" on="1"/>
        <pt x="614" y="-82" on="1"/>
        <pt x="564" y="-39" on="0"/>
        <pt x="443" y="-8" on="0"/>
        <pt x="346" y="-8" on="1"/>
        <pt x="345" y="-8" on="1"/>
        <pt x="265" y="-8" on="0"/>
        <pt x="144" y="73" on="0"/>
        <pt x="77" y="229" on="0"/>
        <pt x="77" y="339" on="1"/>
        <pt x="77" y="449" on="0"/>
        <pt x="144" y="608" on="0"/>
        <pt x="265" y="692" on="0"/>
        <pt x="345" y="692" on="1"/>
        <pt x="426" y="692" on="0"/>
        <pt x="546" y="611" on="0"/>
        <pt x="612" y="453" on="0"/>
        <pt x="612" y="340" on="1"/>
        <pt x="612" y="193" on="0"/>
        <pt x="506" y="26" on="0"/>
        <pt x="417" y="7" on="1"/>
      </contour>
      <contour>
        <pt x="103" y="235" on="0"/>
        <pt x="163" y="88" on="0"/>
        <pt x="272" y="13" on="0"/>
        <pt x="345" y="13" on="1"/>
        <pt x="459" y="13" on="0"/>
        <pt x="587" y="182" on="0"/>
        <pt x="587" y="340" on="1"/>
        <pt x="587" y="499" on="0"/>
        <pt x="457" y="668" on="0"/>
        <pt x="345" y="668" on="1"/>
        <pt x="272" y="668" on="0"/>
        <pt x="163" y="592" on="0"/>
        <pt x="103" y="444" on="0"/>
        <pt x="103" y="339" on="1"/>
      </contour>
    </TTGlyph>
    <TTGlyph name="R" xMin="122" yMin="0" xMax="530" yMax="682">
      <contour>
        <pt x="313" y="323" on="1"/>
        <pt x="147" y="323" on="1"/>
        <pt x="147" y="0" on="1"/>
        <pt x="122" y="0" on="1"/>
        <pt x="122" y="682" on="1"/>
        <pt x="273" y="682" on="1"/>
        <pt x="389" y="682" on="0"/>
        <pt x="498" y="591" on="0"/>
        <pt x="498" y="504" on="1"/>
        <pt x="498" y="357" on="0"/>
        <pt x="340" y="327" on="1"/>
        <pt x="530" y="0" on="1"/>
        <pt x="499" y="0" on="1"/>
      </contour>
      <contour>
        <pt x="286" y="346" on="1"/>
        <pt x="373" y="346" on="0"/>
        <pt x="472" y="424" on="0"/>
        <pt x="472" y="504" on="1"/>
        <pt x="472" y="581" on="0"/>
        <pt x="378" y="658" on="0"/>
        <pt x="269" y="658" on="1"/>
        <pt x="147" y="658" on="1"/>
        <pt x="147" y="346" on="1"/>
      </contour>
    </TTGlyph>
    <TTGlyph name="Racute" xMin="122" yMin="0" xMax="530" yMax="863">
      <component glyphName="R" x="0" y="0" flags="0x0"/>
      <component glyphName="acutecomb.case" x="403" y="0" flags="0x0"/>
    </TTGlyph>
    <TTGlyph name="Rcaron" xMin="122" yMin="0" xMax="530" yMax="865">
      <component glyphName="R" x="0" y="0" flags="0x0"/>
      <component glyphName="uni030C.case" x="436" y="0" flags="0x0"/>
    </TTGlyph>
    <TTGlyph name="Rcommaaccent" xMin="122" yMin="-259" xMax="530" yMax="682">
      <component glyphName="R" x="0" y="0" flags="0x0"/>
      <component glyphName="uni0326.case" x="360" y="0" flags="0x0"/>
    </TTGlyph>
    <TTGlyph name="Rho" xMin="122" yMin="0" xMax="502" yMax="682">
      <contour>
        <pt x="381" y="682" on="0"/>
        <pt x="502" y="586" on="0"/>
        <pt x="502" y="483" on="1"/>
        <pt x="502" y="378" on="0"/>
        <pt x="372" y="281" on="0"/>
        <pt x="257" y="281" on="1"/>
        <pt x="147" y="281" on="1"/>
        <pt x="147" y="0" on="1"/>
        <pt x="122" y="0" on="1"/>
        <pt x="122" y="682" on="1"/>
        <pt x="261" y="682" on="1"/>
      </contour>
      <contour>
        <pt x="362" y="304" on="0"/>
        <pt x="476" y="387" on="0"/>
        <pt x="476" y="483" on="1"/>
        <pt x="476" y="577" on="0"/>
        <pt x="370" y="658" on="0"/>
        <pt x="261" y="658" on="1"/>
        <pt x="147" y="658" on="1"/>
        <pt x="147" y="304" on="1"/>
        <pt x="259" y="304" on="1"/>
      </contour>
    </TTGlyph>
    <TTGlyph name="S" xMin="53" yMin="-10" xMax="467" yMax="692">
      <contour>
        <pt x="324" y="692" on="0"/>
        <pt x="405" y="657" on="0"/>
        <pt x="446" y="621" on="1"/>
        <pt x="430" y="604" on="1"/>
        <pt x="392" y="638" on="0"/>
        <pt x="317" y="668" on="0"/>
        <pt x="265" y="668" on="1"/>
        <pt x="192" y="668" on="0"/>
        <pt x="104" y="593" on="0"/>
        <pt x="104" y="534" on="1"/>
        <pt x="104" y="492" on="0"/>
        <pt x="137" y="438" on="0"/>
        <pt x="209" y="399" on="0"/>
        <pt x="274" y="379" on="1"/>
        <pt x="345" y="357" on="0"/>
        <pt x="427" y="309" on="0"/>
        <pt x="467" y="237" on="0"/>
        <pt x="467" y="182" on="1"/>
        <pt x="467" y="126" on="0"/>
        <pt x="414" y="38" on="0"/>
        <pt x="319" y="-10" on="0"/>
        <pt x="258" y="-10" on="1"/>
        <pt x="194" y="-10" on="0"/>
        <pt x="97" y="32" on="0"/>
        <pt x="53" y="72" on="1"/>
        <pt x="69" y="89" on="1"/>
        <pt x="110" y="52" on="0"/>
        <pt x="197" y="13" on="0"/>
        <pt x="257" y="13" on="1"/>
        <pt x="340" y="13" on="0"/>
        <pt x="442" y="105" on="0"/>
        <pt x="442" y="181" on="1"/>
        <pt x="442" y="230" on="0"/>
        <pt x="407" y="293" on="0"/>
        <pt x="332" y="336" on="0"/>
        <pt x="266" y="357" on="1"/>
        <pt x="195" y="379" on="0"/>
        <pt x="115" y="426" on="0"/>
        <pt x="79" y="488" on="0"/>
        <pt x="79" y="534" on="1"/>
        <pt x="79" y="578" on="0"/>
        <pt x="126" y="650" on="0"/>
        <pt x="210" y="692" on="0"/>
        <pt x="265" y="692" on="1"/>
      </contour>
    </TTGlyph>
    <TTGlyph name="Sacute" xMin="53" yMin="-10" xMax="467" yMax="863">
      <component glyphName="S" x="0" y="0" flags="0x0"/>
      <component glyphName="acutecomb.case" x="384" y="0" flags="0x0"/>
    </TTGlyph>
    <TTGlyph name="Sacute.loclPLK" xMin="53" yMin="-10" xMax="467" yMax="888">
      <component glyphName="S" x="0" y="0" flags="0x0"/>
      <component glyphName="acute.case.loclPLK" x="152" y="0" flags="0x0"/>
    </TTGlyph>
    <TTGlyph name="Scaron" xMin="53" yMin="-10" xMax="467" yMax="865">
      <component glyphName="S" x="0" y="0" flags="0x0"/>
      <component glyphName="uni030C.case" x="417" y="0" flags="0x0"/>
    </TTGlyph>
    <TTGlyph name="Scedilla" xMin="53" yMin="-213" xMax="467" yMax="692">
      <contour>
        <pt x="467" y="127" on="0"/>
        <pt x="416" y="41" on="0"/>
        <pt x="323" y="-9" on="0"/>
        <pt x="264" y="-10" on="1"/>
        <pt x="263" y="-73" on="1"/>
        <pt x="354" y="-79" on="0"/>
        <pt x="354" y="-140" on="1"/>
        <pt x="354" y="-174" on="0"/>
        <pt x="305" y="-213" on="0"/>
        <pt x="269" y="-213" on="1"/>
        <pt x="231" y="-213" on="0"/>
        <pt x="200" y="-195" on="1"/>
        <pt x="210" y="-176" on="1"/>
        <pt x="233" y="-191" on="0"/>
        <pt x="269" y="-191" on="1"/>
        <pt x="295" y="-191" on="0"/>
        <pt x="329" y="-166" on="0"/>
        <pt x="329" y="-140" on="1"/>
        <pt x="329" y="-115" on="0"/>
        <pt x="287" y="-92" on="0"/>
        <pt x="240" y="-91" on="1"/>
        <pt x="246" y="-10" on="1"/>
        <pt x="186" y="-8" on="0"/>
        <pt x="94" y="34" on="0"/>
        <pt x="53" y="72" on="1"/>
        <pt x="69" y="89" on="1"/>
        <pt x="110" y="52" on="0"/>
        <pt x="197" y="13" on="0"/>
        <pt x="257" y="13" on="1"/>
        <pt x="340" y="13" on="0"/>
        <pt x="442" y="105" on="0"/>
        <pt x="442" y="181" on="1"/>
        <pt x="442" y="230" on="0"/>
        <pt x="407" y="293" on="0"/>
        <pt x="332" y="336" on="0"/>
        <pt x="266" y="357" on="1"/>
        <pt x="195" y="379" on="0"/>
        <pt x="115" y="426" on="0"/>
        <pt x="79" y="488" on="0"/>
        <pt x="79" y="534" on="1"/>
        <pt x="79" y="578" on="0"/>
        <pt x="126" y="650" on="0"/>
        <pt x="210" y="692" on="0"/>
        <pt x="265" y="692" on="1"/>
        <pt x="324" y="692" on="0"/>
        <pt x="405" y="657" on="0"/>
        <pt x="446" y="621" on="1"/>
        <pt x="430" y="604" on="1"/>
        <pt x="392" y="638" on="0"/>
        <pt x="317" y="668" on="0"/>
        <pt x="265" y="668" on="1"/>
        <pt x="192" y="668" on="0"/>
        <pt x="104" y="593" on="0"/>
        <pt x="104" y="534" on="1"/>
        <pt x="104" y="492" on="0"/>
        <pt x="137" y="438" on="0"/>
        <pt x="209" y="399" on="0"/>
        <pt x="274" y="379" on="1"/>
        <pt x="345" y="357" on="0"/>
        <pt x="427" y="309" on="0"/>
        <pt x="467" y="237" on="0"/>
        <pt x="467" y="182" on="1"/>
      </contour>
    </TTGlyph>
    <TTGlyph name="Scircumflex" xMin="53" yMin="-10" xMax="467" yMax="871">
      <component glyphName="S" x="0" y="0" flags="0x0"/>
      <component glyphName="uni0302.case" x="427" y="0" flags="0x0"/>
    </TTGlyph>
    <TTGlyph name="Scommaaccent" xMin="53" yMin="-259" xMax="467" yMax="692">
      <component glyphName="S" x="0" y="0" flags="0x0"/>
      <component glyphName="uni0326.case" x="317" y="0" flags="0x0"/>
    </TTGlyph>
    <TTGlyph name="Sigma" xMin="52" yMin="0" xMax="433" yMax="682">
      <contour>
        <pt x="433" y="658" on="1"/>
        <pt x="89" y="658" on="1"/>
        <pt x="318" y="344" on="1"/>
        <pt x="318" y="334" on="1"/>
        <pt x="89" y="23" on="1"/>
        <pt x="433" y="23" on="1"/>
        <pt x="433" y="0" on="1"/>
        <pt x="52" y="0" on="1"/>
        <pt x="52" y="13" on="1"/>
        <pt x="291" y="339" on="1"/>
        <pt x="52" y="668" on="1"/>
        <pt x="52" y="682" on="1"/>
        <pt x="433" y="682" on="1"/>
      </contour>
    </TTGlyph>
    <TTGlyph name="T" xMin="16" yMin="0" xMax="464" yMax="682">
      <contour>
        <pt x="460" y="658" on="1"/>
        <pt x="250" y="658" on="1"/>
        <pt x="250" y="0" on="1"/>
        <pt x="226" y="0" on="1"/>
        <pt x="226" y="658" on="1"/>
        <pt x="16" y="658" on="1"/>
        <pt x="16" y="682" on="1"/>
        <pt x="464" y="682" on="1"/>
      </contour>
    </TTGlyph>
    <TTGlyph name="Tau" xMin="16" yMin="0" xMax="464" yMax="682">
      <component glyphName="T" x="0" y="0" flags="0x0"/>
    </TTGlyph>
    <TTGlyph name="Tbar" xMin="16" yMin="0" xMax="464" yMax="682">
      <contour>
        <pt x="250" y="658" on="1"/>
        <pt x="250" y="381" on="1"/>
        <pt x="374" y="381" on="1"/>
        <pt x="374" y="358" on="1"/>
        <pt x="250" y="358" on="1"/>
        <pt x="250" y="0" on="1"/>
        <pt x="226" y="0" on="1"/>
        <pt x="226" y="358" on="1"/>
        <pt x="102" y="358" on="1"/>
        <pt x="102" y="381" on="1"/>
        <pt x="226" y="381" on="1"/>
        <pt x="226" y="658" on="1"/>
        <pt x="16" y="658" on="1"/>
        <pt x="16" y="682" on="1"/>
        <pt x="464" y="682" on="1"/>
        <pt x="460" y="658" on="1"/>
      </contour>
    </TTGlyph>
    <TTGlyph name="Tcaron" xMin="16" yMin="0" xMax="464" yMax="865">
      <component glyphName="T" x="0" y="0" flags="0x0"/>
      <component glyphName="uni030C.case" x="387" y="0" flags="0x0"/>
    </TTGlyph>
    <TTGlyph name="Theta" xMin="77" yMin="-10" xMax="612" yMax="692">
      <contour>
        <pt x="426" y="692" on="0"/>
        <pt x="546" y="611" on="0"/>
        <pt x="612" y="453" on="0"/>
        <pt x="612" y="340" on="1"/>
        <pt x="612" y="230" on="0"/>
        <pt x="548" y="73" on="0"/>
        <pt x="428" y="-10" on="0"/>
        <pt x="345" y="-10" on="1"/>
        <pt x="265" y="-10" on="0"/>
        <pt x="144" y="72" on="0"/>
        <pt x="77" y="229" on="0"/>
        <pt x="77" y="339" on="1"/>
        <pt x="77" y="449" on="0"/>
        <pt x="144" y="608" on="0"/>
        <pt x="265" y="692" on="0"/>
        <pt x="345" y="692" on="1"/>
      </contour>
      <contour>
        <pt x="272" y="668" on="0"/>
        <pt x="163" y="592" on="0"/>
        <pt x="103" y="444" on="0"/>
        <pt x="103" y="339" on="1"/>
        <pt x="103" y="235" on="0"/>
        <pt x="163" y="88" on="0"/>
        <pt x="272" y="13" on="0"/>
        <pt x="345" y="13" on="1"/>
        <pt x="459" y="13" on="0"/>
        <pt x="587" y="182" on="0"/>
        <pt x="587" y="340" on="1"/>
        <pt x="587" y="499" on="0"/>
        <pt x="457" y="668" on="0"/>
        <pt x="345" y="668" on="1"/>
      </contour>
      <contour>
        <pt x="482" y="340" on="1"/>
        <pt x="207" y="340" on="1"/>
        <pt x="207" y="362" on="1"/>
        <pt x="482" y="362" on="1"/>
      </contour>
    </TTGlyph>
    <TTGlyph name="Thorn" xMin="122" yMin="0" xMax="502" yMax="682">
      <contour>
        <pt x="381" y="555" on="0"/>
        <pt x="502" y="459" on="0"/>
        <pt x="502" y="356" on="1"/>
        <pt x="502" y="146" on="0"/>
        <pt x="257" y="146" on="1"/>
        <pt x="147" y="146" on="1"/>
        <pt x="147" y="0" on="1"/>
        <pt x="122" y="0" on="1"/>
        <pt x="122" y="682" on="1"/>
        <pt x="147" y="682" on="1"/>
        <pt x="147" y="555" on="1"/>
        <pt x="261" y="555" on="1"/>
      </contour>
      <contour>
        <pt x="363" y="169" on="0"/>
        <pt x="476" y="254" on="0"/>
        <pt x="476" y="355" on="1"/>
        <pt x="476" y="450" on="0"/>
        <pt x="370" y="532" on="0"/>
        <pt x="261" y="532" on="1"/>
        <pt x="147" y="532" on="1"/>
        <pt x="147" y="169" on="1"/>
        <pt x="259" y="169" on="1"/>
      </contour>
    </TTGlyph>
    <TTGlyph name="U" xMin="112" yMin="-10" xMax="529" yMax="682">
      <contour>
        <pt x="529" y="208" on="1"/>
        <pt x="529" y="108" on="0"/>
        <pt x="426" y="-10" on="0"/>
        <pt x="321" y="-10" on="1"/>
        <pt x="215" y="-10" on="0"/>
        <pt x="112" y="107" on="0"/>
        <pt x="112" y="208" on="1"/>
        <pt x="112" y="682" on="1"/>
        <pt x="137" y="682" on="1"/>
        <pt x="137" y="210" on="1"/>
        <pt x="137" y="118" on="0"/>
        <pt x="227" y="13" on="0"/>
        <pt x="321" y="13" on="1"/>
        <pt x="415" y="13" on="0"/>
        <pt x="504" y="120" on="0"/>
        <pt x="504" y="210" on="1"/>
        <pt x="504" y="682" on="1"/>
        <pt x="529" y="682" on="1"/>
      </contour>
    </TTGlyph>
    <TTGlyph name="Uacute" xMin="112" yMin="-10" xMax="529" yMax="863">
      <component glyphName="U" x="0" y="0" flags="0x0"/>
      <component glyphName="acutecomb.case" x="436" y="0" flags="0x0"/>
    </TTGlyph>
    <TTGlyph name="Ubreve" xMin="112" yMin="-10" xMax="529" yMax="852">
      <component glyphName="U" x="0" y="0" flags="0x0"/>
      <component glyphName="uni0306.case" x="445" y="0" flags="0x0"/>
    </TTGlyph>
    <TTGlyph name="Ucircumflex" xMin="112" yMin="-10" xMax="529" yMax="871">
      <component glyphName="U" x="0" y="0" flags="0x0"/>
      <component glyphName="uni0302.case" x="479" y="0" flags="0x0"/>
    </TTGlyph>
    <TTGlyph name="Udieresis" xMin="112" yMin="-10" xMax="529" yMax="840">
      <component glyphName="U" x="0" y="0" flags="0x0"/>
      <component glyphName="uni0308.case" x="457" y="0" flags="0x0"/>
    </TTGlyph>
    <TTGlyph name="Ugrave" xMin="112" yMin="-10" xMax="529" yMax="863">
      <component glyphName="U" x="0" y="0" flags="0x0"/>
      <component glyphName="gravecomb.case" x="438" y="0" flags="0x0"/>
    </TTGlyph>
    <TTGlyph name="Uhorn" xMin="112" yMin="-10" xMax="609" yMax="765">
      <component glyphName="U" x="0" y="0" flags="0x0"/>
      <component glyphName="uni031B.case" x="639" y="0" flags="0x0"/>
    </TTGlyph>
    <TTGlyph name="Uhungarumlaut" xMin="112" yMin="-10" xMax="529" yMax="918">
      <component glyphName="U" x="0" y="0" flags="0x0"/>
      <component glyphName="uni030B.case" x="481" y="0" flags="0x0"/>
    </TTGlyph>
    <TTGlyph name="Umacron" xMin="112" yMin="-10" xMax="529" yMax="834">
      <component glyphName="U" x="0" y="0" flags="0x0"/>
      <component glyphName="uni0304.case" x="448" y="0" flags="0x0"/>
    </TTGlyph>
    <TTGlyph name="Uogonek" xMin="112" yMin="-203" xMax="529" yMax="682">
      <contour>
        <pt x="529" y="682" on="1"/>
        <pt x="529" y="208" on="1"/>
        <pt x="529" y="127" on="0"/>
        <pt x="462" y="18" on="0"/>
        <pt x="393" y="-1" on="1"/>
        <pt x="331" y="-30" on="0"/>
        <pt x="271" y="-82" on="0"/>
        <pt x="271" y="-121" on="1"/>
        <pt x="271" y="-148" on="0"/>
        <pt x="308" y="-179" on="0"/>
        <pt x="343" y="-179" on="1"/>
        <pt x="363" y="-179" on="0"/>
        <pt x="396" y="-173" on="1"/>
        <pt x="393" y="-197" on="1"/>
        <pt x="363" y="-203" on="0"/>
        <pt x="340" y="-203" on="1"/>
        <pt x="293" y="-203" on="0"/>
        <pt x="244" y="-159" on="0"/>
        <pt x="244" y="-122" on="1"/>
        <pt x="244" y="-86" on="0"/>
        <pt x="292" y="-32" on="0"/>
        <pt x="339" y="-9" on="1"/>
        <pt x="333" y="-10" on="0"/>
        <pt x="321" y="-10" on="1"/>
        <pt x="215" y="-10" on="0"/>
        <pt x="112" y="107" on="0"/>
        <pt x="112" y="208" on="1"/>
        <pt x="112" y="682" on="1"/>
        <pt x="137" y="682" on="1"/>
        <pt x="137" y="210" on="1"/>
        <pt x="137" y="118" on="0"/>
        <pt x="227" y="13" on="0"/>
        <pt x="321" y="13" on="1"/>
        <pt x="415" y="13" on="0"/>
        <pt x="504" y="120" on="0"/>
        <pt x="504" y="210" on="1"/>
        <pt x="504" y="682" on="1"/>
      </contour>
    </TTGlyph>
    <TTGlyph name="Upsilon" xMin="21" yMin="0" xMax="474" yMax="682">
      <contour>
        <pt x="261" y="271" on="1"/>
        <pt x="261" y="0" on="1"/>
        <pt x="237" y="0" on="1"/>
        <pt x="237" y="270" on="1"/>
        <pt x="21" y="682" on="1"/>
        <pt x="49" y="682" on="1"/>
        <pt x="249" y="292" on="1"/>
        <pt x="447" y="682" on="1"/>
        <pt x="474" y="682" on="1"/>
      </contour>
    </TTGlyph>
    <TTGlyph name="Upsilondieresis" xMin="21" yMin="0" xMax="474" yMax="840">
      <component glyphName="Y" x="0" y="0" flags="0x0"/>
      <component glyphName="uni0308.case" x="383" y="0" flags="0x0"/>
    </TTGlyph>
    <TTGlyph name="Upsilontonos" xMin="30" yMin="0" xMax="590" yMax="688">
      <component glyphName="tonos.case" x="0" y="0" flags="0x0"/>
      <component glyphName="Y" x="116" y="0" flags="0x0"/>
    </TTGlyph>
    <TTGlyph name="Uring" xMin="112" yMin="-10" xMax="529" yMax="928">
      <component glyphName="U" x="0" y="0" flags="0x0"/>
      <component glyphName="uni030A.case" x="429" y="0" flags="0x0"/>
    </TTGlyph>
    <TTGlyph name="Utilde" xMin="112" yMin="-10" xMax="529" yMax="868">
      <component glyphName="U" x="0" y="0" flags="0x0"/>
      <component glyphName="tildecomb.case" x="475" y="0" flags="0x0"/>
    </TTGlyph>
    <TTGlyph name="V" xMin="27" yMin="0" xMax="508" yMax="682">
      <contour>
        <pt x="283" y="0" on="1"/>
        <pt x="252" y="0" on="1"/>
        <pt x="27" y="682" on="1"/>
        <pt x="54" y="682" on="1"/>
        <pt x="268" y="23" on="1"/>
        <pt x="481" y="682" on="1"/>
        <pt x="508" y="682" on="1"/>
      </contour>
    </TTGlyph>
    <TTGlyph name="W" xMin="37" yMin="0" xMax="755" yMax="682">
      <contour>
        <pt x="595" y="0" on="1"/>
        <pt x="567" y="0" on="1"/>
        <pt x="396" y="658" on="1"/>
        <pt x="225" y="0" on="1"/>
        <pt x="196" y="0" on="1"/>
        <pt x="37" y="682" on="1"/>
        <pt x="64" y="682" on="1"/>
        <pt x="212" y="26" on="1"/>
        <pt x="381" y="682" on="1"/>
        <pt x="411" y="682" on="1"/>
        <pt x="581" y="26" on="1"/>
        <pt x="729" y="682" on="1"/>
        <pt x="755" y="682" on="1"/>
      </contour>
    </TTGlyph>
    <TTGlyph name="Wacute" xMin="37" yMin="0" xMax="755" yMax="863">
      <component glyphName="W" x="0" y="0" flags="0x0"/>
      <component glyphName="acutecomb.case" x="511" y="0" flags="0x0"/>
    </TTGlyph>
    <TTGlyph name="Wcircumflex" xMin="37" yMin="0" xMax="755" yMax="871">
      <component glyphName="W" x="0" y="0" flags="0x0"/>
      <component glyphName="uni0302.case" x="554" y="0" flags="0x0"/>
    </TTGlyph>
    <TTGlyph name="Wdieresis" xMin="37" yMin="0" xMax="755" yMax="840">
      <component glyphName="W" x="0" y="0" flags="0x0"/>
      <component glyphName="uni0308.case" x="532" y="0" flags="0x0"/>
    </TTGlyph>
    <TTGlyph name="Wgrave" xMin="37" yMin="0" xMax="755" yMax="863">
      <component glyphName="W" x="0" y="0" flags="0x0"/>
      <component glyphName="gravecomb.case" x="513" y="0" flags="0x0"/>
    </TTGlyph>
    <TTGlyph name="X" xMin="16" yMin="0" xMax="471" yMax="682">
      <contour>
        <pt x="471" y="0" on="1"/>
        <pt x="443" y="0" on="1"/>
        <pt x="241" y="354" on="1"/>
        <pt x="43" y="0" on="1"/>
        <pt x="16" y="0" on="1"/>
        <pt x="226" y="369" on="1"/>
        <pt x="40" y="682" on="1"/>
        <pt x="68" y="682" on="1"/>
        <pt x="241" y="384" on="1"/>
        <pt x="412" y="682" on="1"/>
        <pt x="440" y="682" on="1"/>
        <pt x="255" y="370" on="1"/>
      </contour>
    </TTGlyph>
    <TTGlyph name="Xi" xMin="56" yMin="0" xMax="428" yMax="682">
      <contour>
        <pt x="415" y="658" on="1"/>
        <pt x="56" y="658" on="1"/>
        <pt x="56" y="682" on="1"/>
        <pt x="417" y="682" on="1"/>
      </contour>
      <contour>
        <pt x="372" y="347" on="1"/>
        <pt x="113" y="347" on="1"/>
        <pt x="113" y="371" on="1"/>
        <pt x="372" y="371" on="1"/>
      </contour>
      <contour>
        <pt x="428" y="0" on="1"/>
        <pt x="56" y="0" on="1"/>
        <pt x="56" y="25" on="1"/>
        <pt x="428" y="25" on="1"/>
      </contour>
    </TTGlyph>
    <TTGlyph name="Y" xMin="21" yMin="0" xMax="474" yMax="682">
      <contour>
        <pt x="261" y="271" on="1"/>
        <pt x="261" y="0" on="1"/>
        <pt x="237" y="0" on="1"/>
        <pt x="237" y="270" on="1"/>
        <pt x="21" y="682" on="1"/>
        <pt x="49" y="682" on="1"/>
        <pt x="249" y="292" on="1"/>
        <pt x="447" y="682" on="1"/>
        <pt x="474" y="682" on="1"/>
      </contour>
    </TTGlyph>
    <TTGlyph name="Yacute" xMin="21" yMin="0" xMax="474" yMax="863">
      <component glyphName="Y" x="0" y="0" flags="0x0"/>
      <component glyphName="acutecomb.case" x="363" y="0" flags="0x0"/>
    </TTGlyph>
    <TTGlyph name="Ycircumflex" xMin="21" yMin="0" xMax="474" yMax="871">
      <component glyphName="Y" x="0" y="0" flags="0x0"/>
      <component glyphName="uni0302.case" x="406" y="0" flags="0x0"/>
    </TTGlyph>
    <TTGlyph name="Ydieresis" xMin="21" yMin="0" xMax="474" yMax="840">
      <component glyphName="Y" x="0" y="0" flags="0x0"/>
      <component glyphName="uni0308.case" x="383" y="0" flags="0x0"/>
    </TTGlyph>
    <TTGlyph name="Ygrave" xMin="21" yMin="0" xMax="474" yMax="863">
      <component glyphName="Y" x="0" y="0" flags="0x0"/>
      <component glyphName="gravecomb.case" x="365" y="0" flags="0x0"/>
    </TTGlyph>
    <TTGlyph name="Z" xMin="41" yMin="0" xMax="460" yMax="682">
      <contour>
        <pt x="460" y="660" on="1"/>
        <pt x="71" y="24" on="1"/>
        <pt x="446" y="24" on="1"/>
        <pt x="443" y="0" on="1"/>
        <pt x="41" y="0" on="1"/>
        <pt x="41" y="22" on="1"/>
        <pt x="431" y="658" on="1"/>
        <pt x="79" y="658" on="1"/>
        <pt x="79" y="682" on="1"/>
        <pt x="460" y="682" on="1"/>
      </contour>
    </TTGlyph>
    <TTGlyph name="Zacute" xMin="41" yMin="0" xMax="460" yMax="863">
      <component glyphName="Z" x="0" y="0" flags="0x0"/>
      <component glyphName="acutecomb.case" x="371" y="0" flags="0x0"/>
    </TTGlyph>
    <TTGlyph name="Zacute.loclPLK" xMin="41" yMin="0" xMax="460" yMax="888">
      <component glyphName="Z" x="0" y="0" flags="0x0"/>
      <component glyphName="acute.case.loclPLK" x="138" y="0" flags="0x0"/>
    </TTGlyph>
    <TTGlyph name="Zcaron" xMin="41" yMin="0" xMax="460" yMax="865">
      <component glyphName="Z" x="0" y="0" flags="0x0"/>
      <component glyphName="uni030C.case" x="404" y="0" flags="0x0"/>
    </TTGlyph>
    <TTGlyph name="Zdotaccent" xMin="41" yMin="0" xMax="460" yMax="852">
      <component glyphName="Z" x="0" y="0" flags="0x0"/>
      <component glyphName="uni0307.case" x="306" y="0" flags="0x0"/>
    </TTGlyph>
    <TTGlyph name="Zeta" xMin="41" yMin="0" xMax="460" yMax="682">
      <component glyphName="Z" x="0" y="0" flags="0x0"/>
    </TTGlyph>
    <TTGlyph name="a" xMin="66" yMin="-10" xMax="457" yMax="529">
      <contour>
        <pt x="412" y="60" on="0"/>
        <pt x="432" y="16" on="0"/>
        <pt x="457" y="7" on="1"/>
        <pt x="452" y="-10" on="1"/>
        <pt x="421" y="0" on="0"/>
        <pt x="392" y="45" on="0"/>
        <pt x="391" y="89" on="1"/>
        <pt x="332" y="-10" on="0"/>
        <pt x="222" y="-10" on="1"/>
        <pt x="149" y="-10" on="0"/>
        <pt x="66" y="74" on="0"/>
        <pt x="66" y="144" on="1"/>
        <pt x="66" y="222" on="0"/>
        <pt x="176" y="308" on="0"/>
        <pt x="270" y="308" on="1"/>
        <pt x="388" y="308" on="1"/>
        <pt x="388" y="370" on="1"/>
        <pt x="388" y="440" on="0"/>
        <pt x="328" y="507" on="0"/>
        <pt x="256" y="507" on="1"/>
        <pt x="195" y="507" on="0"/>
        <pt x="113" y="475" on="1"/>
        <pt x="105" y="495" on="1"/>
        <pt x="187" y="529" on="0"/>
        <pt x="256" y="529" on="1"/>
        <pt x="337" y="529" on="0"/>
        <pt x="412" y="450" on="0"/>
        <pt x="412" y="372" on="1"/>
        <pt x="412" y="110" on="1"/>
      </contour>
      <contour>
        <pt x="280" y="13" on="0"/>
        <pt x="361" y="67" on="0"/>
        <pt x="388" y="119" on="1"/>
        <pt x="388" y="286" on="1"/>
        <pt x="275" y="286" on="1"/>
        <pt x="188" y="286" on="0"/>
        <pt x="92" y="214" on="0"/>
        <pt x="92" y="144" on="1"/>
        <pt x="92" y="83" on="0"/>
        <pt x="161" y="13" on="0"/>
        <pt x="222" y="13" on="1"/>
      </contour>
    </TTGlyph>
    <TTGlyph name="a.sc" xMin="27" yMin="0" xMax="465" yMax="559">
      <contour>
        <pt x="380" y="164" on="1"/>
        <pt x="110" y="164" on="1"/>
        <pt x="51" y="0" on="1"/>
        <pt x="27" y="0" on="1"/>
        <pt x="231" y="559" on="1"/>
        <pt x="260" y="559" on="1"/>
        <pt x="465" y="0" on="1"/>
        <pt x="439" y="0" on="1"/>
      </contour>
      <contour>
        <pt x="372" y="186" on="1"/>
        <pt x="246" y="538" on="1"/>
        <pt x="118" y="186" on="1"/>
      </contour>
    </TTGlyph>
    <TTGlyph name="aacute" xMin="66" yMin="-10" xMax="457" yMax="763">
      <component glyphName="a" x="0" y="0" flags="0x0"/>
      <component glyphName="acutecomb" x="371" y="0" flags="0x0"/>
    </TTGlyph>
    <TTGlyph name="aacute.sc" xMin="27" yMin="0" xMax="465" yMax="793">
      <component glyphName="a.sc" x="0" y="0" flags="0x0"/>
      <component glyphName="acutecomb.sc" x="123" y="0" flags="0x0"/>
    </TTGlyph>
    <TTGlyph name="abreve" xMin="66" yMin="-10" xMax="457" yMax="753">
      <component glyphName="a" x="0" y="0" flags="0x0"/>
      <component glyphName="uni0306" x="394" y="0" flags="0x0"/>
    </TTGlyph>
    <TTGlyph name="abreve.sc" xMin="27" yMin="0" xMax="465" yMax="783">
      <component glyphName="a.sc" x="0" y="0" flags="0x0"/>
      <component glyphName="uni0306.sc" x="105" y="0" flags="0x0"/>
    </TTGlyph>
    <TTGlyph name="abrevecy.sc" xMin="27" yMin="0" xMax="465" yMax="766">
      <component glyphName="a.sc" x="0" y="0" flags="0x0"/>
      <component glyphName="brevecy.sc" x="106" y="0" flags="0x0"/>
    </TTGlyph>
    <TTGlyph name="acircumflex" xMin="66" yMin="-10" xMax="457" yMax="764">
      <component glyphName="a" x="0" y="0" flags="0x0"/>
      <component glyphName="uni0302" x="412" y="0" flags="0x0"/>
    </TTGlyph>
    <TTGlyph name="acircumflex.sc" xMin="27" yMin="0" xMax="465" yMax="794">
      <component glyphName="a.sc" x="0" y="0" flags="0x0"/>
      <component glyphName="uni0302.sc" x="88" y="0" flags="0x0"/>
    </TTGlyph>
    <TTGlyph name="acute" xMin="30" yMin="653" xMax="218" yMax="763">
      <contour>
        <pt x="218" y="737" on="1"/>
        <pt x="39" y="653" on="1"/>
        <pt x="30" y="670" on="1"/>
        <pt x="206" y="763" on="1"/>
      </contour>
    </TTGlyph>
    <TTGlyph name="acute.case" xMin="30" yMin="763" xMax="217" yMax="863">
      <contour>
        <pt x="217" y="838" on="1"/>
        <pt x="37" y="763" on="1"/>
        <pt x="30" y="780" on="1"/>
        <pt x="205" y="863" on="1"/>
      </contour>
    </TTGlyph>
    <TTGlyph name="acute.case.loclPLK" xMin="90" yMin="731" xMax="210" yMax="888">
      <contour>
        <pt x="210" y="873" on="1"/>
        <pt x="105" y="731" on="1"/>
        <pt x="90" y="741" on="1"/>
        <pt x="187" y="888" on="1"/>
      </contour>
    </TTGlyph>
    <TTGlyph name="acute.loclPLK" xMin="90" yMin="579" xMax="212" yMax="745">
      <contour>
        <pt x="212" y="730" on="1"/>
        <pt x="105" y="579" on="1"/>
        <pt x="90" y="589" on="1"/>
        <pt x="189" y="745" on="1"/>
      </contour>
    </TTGlyph>
    <TTGlyph name="acute.sc" xMin="30" yMin="683" xMax="218" yMax="793">
      <component glyphName="acutecomb" x="249" y="30" flags="0x0"/>
    </TTGlyph>
    <TTGlyph name="acute.sc.loclPLK" xMin="90" yMin="619" xMax="212" yMax="785">
      <contour>
        <pt x="212" y="770" on="1"/>
        <pt x="105" y="619" on="1"/>
        <pt x="90" y="629" on="1"/>
        <pt x="189" y="785" on="1"/>
      </contour>
    </TTGlyph>
    <TTGlyph name="acutecomb" xMin="-219" yMin="653" xMax="-31" yMax="763">
      <contour>
        <pt x="-31" y="737" on="1"/>
        <pt x="-210" y="653" on="1"/>
        <pt x="-219" y="670" on="1"/>
        <pt x="-43" y="763" on="1"/>
      </contour>
    </TTGlyph>
    <TTGlyph name="acutecomb.case" xMin="-210" yMin="763" xMax="-23" yMax="863">
      <contour>
        <pt x="-23" y="838" on="1"/>
        <pt x="-203" y="763" on="1"/>
        <pt x="-210" y="780" on="1"/>
        <pt x="-35" y="863" on="1"/>
      </contour>
    </TTGlyph>
    <TTGlyph name="acutecomb.sc" xMin="30" yMin="683" xMax="218" yMax="793">
      <contour>
        <pt x="218" y="767" on="1"/>
        <pt x="39" y="683" on="1"/>
        <pt x="30" y="700" on="1"/>
        <pt x="206" y="793" on="1"/>
      </contour>
    </TTGlyph>
    <TTGlyph name="adieresis" xMin="66" yMin="-10" xMax="457" yMax="714">
      <component glyphName="a" x="0" y="0" flags="0x0"/>
      <component glyphName="uni0308" x="390" y="0" flags="0x0"/>
    </TTGlyph>
    <TTGlyph name="adieresis.sc" xMin="27" yMin="0" xMax="465" yMax="744">
      <component glyphName="a.sc" x="0" y="0" flags="0x0"/>
      <component glyphName="uni0308.sc" x="110" y="0" flags="0x0"/>
    </TTGlyph>
    <TTGlyph name="ae" xMin="66" yMin="-10" xMax="777" yMax="529">
      <contour>
        <pt x="777" y="266" on="0"/>
        <pt x="775" y="246" on="1"/>
        <pt x="413" y="246" on="1"/>
        <pt x="417" y="130" on="0"/>
        <pt x="515" y="13" on="0"/>
        <pt x="596" y="13" on="1"/>
        <pt x="640" y="13" on="0"/>
        <pt x="706" y="40" on="0"/>
        <pt x="742" y="69" on="1"/>
        <pt x="756" y="52" on="1"/>
        <pt x="719" y="21" on="0"/>
        <pt x="644" y="-10" on="0"/>
        <pt x="596" y="-10" on="1"/>
        <pt x="533" y="-10" on="0"/>
        <pt x="440" y="52" on="0"/>
        <pt x="414" y="110" on="1"/>
        <pt x="372" y="46" on="0"/>
        <pt x="281" y="-10" on="0"/>
        <pt x="222" y="-10" on="1"/>
        <pt x="149" y="-10" on="0"/>
        <pt x="66" y="74" on="0"/>
        <pt x="66" y="144" on="1"/>
        <pt x="66" y="222" on="0"/>
        <pt x="176" y="309" on="0"/>
        <pt x="270" y="309" on="1"/>
        <pt x="388" y="309" on="1"/>
        <pt x="388" y="370" on="1"/>
        <pt x="388" y="440" on="0"/>
        <pt x="328" y="507" on="0"/>
        <pt x="256" y="507" on="1"/>
        <pt x="195" y="507" on="0"/>
        <pt x="113" y="475" on="1"/>
        <pt x="105" y="495" on="1"/>
        <pt x="187" y="529" on="0"/>
        <pt x="256" y="529" on="1"/>
        <pt x="331" y="529" on="0"/>
        <pt x="406" y="461" on="0"/>
        <pt x="411" y="393" on="1"/>
        <pt x="435" y="460" on="0"/>
        <pt x="526" y="529" on="0"/>
        <pt x="591" y="529" on="1"/>
        <pt x="682" y="529" on="0"/>
        <pt x="777" y="397" on="0"/>
        <pt x="777" y="284" on="1"/>
      </contour>
      <contour>
        <pt x="753" y="293" on="1"/>
        <pt x="753" y="390" on="0"/>
        <pt x="671" y="507" on="0"/>
        <pt x="591" y="507" on="1"/>
        <pt x="513" y="507" on="0"/>
        <pt x="415" y="385" on="0"/>
        <pt x="412" y="267" on="1"/>
        <pt x="753" y="267" on="1"/>
      </contour>
      <contour>
        <pt x="279" y="13" on="0"/>
        <pt x="363" y="69" on="0"/>
        <pt x="405" y="133" on="1"/>
        <pt x="388" y="187" on="0"/>
        <pt x="388" y="255" on="1"/>
        <pt x="388" y="286" on="1"/>
        <pt x="275" y="286" on="1"/>
        <pt x="188" y="286" on="0"/>
        <pt x="92" y="214" on="0"/>
        <pt x="92" y="144" on="1"/>
        <pt x="92" y="83" on="0"/>
        <pt x="161" y="13" on="0"/>
        <pt x="222" y="13" on="1"/>
      </contour>
    </TTGlyph>
    <TTGlyph name="ae.sc" xMin="12" yMin="0" xMax="622" yMax="559">
      <contour>
        <pt x="622" y="22" on="1"/>
        <pt x="622" y="0" on="1"/>
        <pt x="404" y="0" on="1"/>
        <pt x="360" y="159" on="1"/>
        <pt x="100" y="159" on="1"/>
        <pt x="36" y="0" on="1"/>
        <pt x="12" y="0" on="1"/>
        <pt x="240" y="559" on="1"/>
        <pt x="575" y="559" on="1"/>
        <pt x="572" y="537" on="1"/>
        <pt x="279" y="537" on="1"/>
        <pt x="343" y="306" on="1"/>
        <pt x="569" y="306" on="1"/>
        <pt x="569" y="284" on="1"/>
        <pt x="349" y="284" on="1"/>
        <pt x="422" y="22" on="1"/>
      </contour>
      <contour>
        <pt x="353" y="181" on="1"/>
        <pt x="254" y="539" on="1"/>
        <pt x="109" y="181" on="1"/>
      </contour>
    </TTGlyph>
    <TTGlyph name="aeacute" xMin="66" yMin="-10" xMax="777" yMax="763">
      <component glyphName="ae" x="0" y="0" flags="0x0"/>
      <component glyphName="acutecomb" x="538" y="0" flags="0x0"/>
    </TTGlyph>
    <TTGlyph name="aeacute.sc" xMin="12" yMin="0" xMax="622" yMax="793">
      <component glyphName="ae.sc" x="0" y="0" flags="0x0"/>
      <component glyphName="acutecomb.sc" x="272" y="0" flags="0x0"/>
    </TTGlyph>
    <TTGlyph name="agrave" xMin="66" yMin="-10" xMax="457" yMax="763">
      <component glyphName="a" x="0" y="0" flags="0x0"/>
      <component glyphName="gravecomb" x="380" y="0" flags="0x0"/>
    </TTGlyph>
    <TTGlyph name="agrave.sc" xMin="27" yMin="0" xMax="465" yMax="793">
      <component glyphName="a.sc" x="0" y="0" flags="0x0"/>
      <component glyphName="gravecomb.sc" x="124" y="0" flags="0x0"/>
    </TTGlyph>
    <TTGlyph name="alpha" xMin="72" yMin="-10" xMax="520" yMax="529">
      <contour>
        <pt x="306" y="529" on="0"/>
        <pt x="373" y="488" on="0"/>
        <pt x="420" y="389" on="0"/>
        <pt x="435" y="303" on="1"/>
        <pt x="483" y="519" on="1"/>
        <pt x="509" y="519" on="1"/>
        <pt x="448" y="270" on="1"/>
        <pt x="481" y="69" on="1"/>
        <pt x="485" y="45" on="0"/>
        <pt x="504" y="24" on="0"/>
        <pt x="520" y="18" on="1"/>
        <pt x="512" y="-4" on="1"/>
        <pt x="489" y="3" on="0"/>
        <pt x="462" y="30" on="0"/>
        <pt x="457" y="62" on="1"/>
        <pt x="433" y="223" on="1"/>
        <pt x="409" y="99" on="0"/>
        <pt x="319" y="-10" on="0"/>
        <pt x="246" y="-10" on="1"/>
        <pt x="163" y="-10" on="0"/>
        <pt x="72" y="128" on="0"/>
        <pt x="72" y="262" on="1"/>
        <pt x="72" y="341" on="0"/>
        <pt x="117" y="462" on="0"/>
        <pt x="201" y="529" on="0"/>
        <pt x="258" y="529" on="1"/>
      </contour>
      <contour>
        <pt x="212" y="508" on="0"/>
        <pt x="139" y="449" on="0"/>
        <pt x="97" y="338" on="0"/>
        <pt x="97" y="262" on="1"/>
        <pt x="97" y="137" on="0"/>
        <pt x="176" y="13" on="0"/>
        <pt x="246" y="13" on="1"/>
        <pt x="311" y="13" on="0"/>
        <pt x="399" y="127" on="0"/>
        <pt x="425" y="268" on="1"/>
        <pt x="407" y="361" on="0"/>
        <pt x="363" y="465" on="0"/>
        <pt x="302" y="508" on="0"/>
        <pt x="258" y="508" on="1"/>
      </contour>
    </TTGlyph>
    <TTGlyph name="alpha.sc" xMin="27" yMin="0" xMax="465" yMax="559">
      <component glyphName="a.sc" x="0" y="0" flags="0x0"/>
    </TTGlyph>
    <TTGlyph name="alphadasiaoxiaprosgegrammeni.sc" xMin="27" yMin="0" xMax="465" yMax="559">
      <component glyphName="a.sc" x="0" y="0" flags="0x0"/>
    </TTGlyph>
    <TTGlyph name="alphadasiaperispomeniprosgegram" xMin="27" yMin="0" xMax="465" yMax="559">
      <component glyphName="a.sc" x="0" y="0" flags="0x0"/>
    </TTGlyph>
    <TTGlyph name="alphadasiaprosgegrammeni.sc" xMin="27" yMin="0" xMax="465" yMax="559">
      <component glyphName="a.sc" x="0" y="0" flags="0x0"/>
    </TTGlyph>
    <TTGlyph name="alphadasiavariaprosgegrammeni.s" xMin="27" yMin="0" xMax="465" yMax="559">
      <component glyphName="a.sc" x="0" y="0" flags="0x0"/>
    </TTGlyph>
    <TTGlyph name="alphaprosgegrammeni.sc" xMin="27" yMin="0" xMax="465" yMax="559">
      <component glyphName="a.sc" x="0" y="0" flags="0x0"/>
    </TTGlyph>
    <TTGlyph name="alphapsilioxiaprosgegrammeni.sc" xMin="27" yMin="0" xMax="465" yMax="559">
      <component glyphName="a.sc" x="0" y="0" flags="0x0"/>
    </TTGlyph>
    <TTGlyph name="alphapsiliperispomeniprosgegram" xMin="27" yMin="0" xMax="465" yMax="559">
      <component glyphName="a.sc" x="0" y="0" flags="0x0"/>
    </TTGlyph>
    <TTGlyph name="alphapsiliprosgegrammeni.sc" xMin="27" yMin="0" xMax="465" yMax="559">
      <component glyphName="a.sc" x="0" y="0" flags="0x0"/>
    </TTGlyph>
    <TTGlyph name="alphapsilivariaprosgegrammeni.s" xMin="27" yMin="0" xMax="465" yMax="559">
      <component glyphName="a.sc" x="0" y="0" flags="0x0"/>
    </TTGlyph>
    <TTGlyph name="alphatonos" xMin="72" yMin="-10" xMax="520" yMax="737">
      <component glyphName="alpha" x="0" y="0" flags="0x0"/>
      <component glyphName="tonos" x="243" y="0" flags="0x0"/>
    </TTGlyph>
    <TTGlyph name="alphatonos.sc" xMin="27" yMin="0" xMax="465" yMax="559">
      <component glyphName="a.sc" x="0" y="0" flags="0x0"/>
    </TTGlyph>
    <TTGlyph name="amacron" xMin="66" yMin="-10" xMax="457" yMax="708">
      <component glyphName="a" x="0" y="0" flags="0x0"/>
      <component glyphName="uni0304" x="389" y="0" flags="0x0"/>
    </TTGlyph>
    <TTGlyph name="amacron.sc" xMin="27" yMin="0" xMax="465" yMax="738">
      <component glyphName="a.sc" x="0" y="0" flags="0x0"/>
      <component glyphName="uni0304.sc" x="111" y="0" flags="0x0"/>
    </TTGlyph>
    <TTGlyph name="ampersand" xMin="103" yMin="-10" xMax="667" yMax="692">
      <contour>
        <pt x="368" y="692" on="0"/>
        <pt x="451" y="612" on="0"/>
        <pt x="451" y="548" on="1"/>
        <pt x="451" y="491" on="0"/>
        <pt x="375" y="411" on="0"/>
        <pt x="287" y="362" on="1"/>
        <pt x="521" y="142" on="1"/>
        <pt x="546" y="192" on="0"/>
        <pt x="579" y="293" on="0"/>
        <pt x="592" y="355" on="1"/>
        <pt x="615" y="348" on="1"/>
        <pt x="591" y="224" on="0"/>
        <pt x="536" y="127" on="1"/>
        <pt x="667" y="6" on="1"/>
        <pt x="647" y="-8" on="1"/>
        <pt x="524" y="106" on="1"/>
        <pt x="483" y="50" on="0"/>
        <pt x="376" y="-10" on="0"/>
        <pt x="299" y="-10" on="1"/>
        <pt x="244" y="-10" on="0"/>
        <pt x="155" y="34" on="0"/>
        <pt x="103" y="115" on="0"/>
        <pt x="103" y="166" on="1"/>
        <pt x="103" y="232" on="0"/>
        <pt x="175" y="324" on="0"/>
        <pt x="250" y="366" on="1"/>
        <pt x="191" y="422" on="0"/>
        <pt x="147" y="494" on="0"/>
        <pt x="147" y="546" on="1"/>
        <pt x="147" y="587" on="0"/>
        <pt x="187" y="654" on="0"/>
        <pt x="258" y="692" on="0"/>
        <pt x="301" y="692" on="1"/>
      </contour>
      <contour>
        <pt x="244" y="670" on="0"/>
        <pt x="171" y="598" on="0"/>
        <pt x="171" y="544" on="1"/>
        <pt x="172" y="514" on="0"/>
        <pt x="185" y="472" on="0"/>
        <pt x="227" y="418" on="0"/>
        <pt x="270" y="377" on="1"/>
        <pt x="353" y="420" on="0"/>
        <pt x="426" y="497" on="0"/>
        <pt x="426" y="548" on="1"/>
        <pt x="426" y="604" on="0"/>
        <pt x="356" y="670" on="0"/>
        <pt x="301" y="670" on="1"/>
      </contour>
      <contour>
        <pt x="196" y="312" on="0"/>
        <pt x="127" y="225" on="0"/>
        <pt x="127" y="166" on="1"/>
        <pt x="127" y="122" on="0"/>
        <pt x="171" y="52" on="0"/>
        <pt x="250" y="13" on="0"/>
        <pt x="299" y="13" on="1"/>
        <pt x="370" y="13" on="0"/>
        <pt x="469" y="68" on="0"/>
        <pt x="507" y="121" on="1"/>
        <pt x="267" y="351" on="1"/>
      </contour>
    </TTGlyph>
    <TTGlyph name="ampersand.ss03" xMin="74" yMin="-11" xMax="799" yMax="611">
      <contour>
        <pt x="799" y="438" on="1"/>
        <pt x="799" y="415" on="1"/>
        <pt x="698" y="415" on="1"/>
        <pt x="679" y="203" on="0"/>
        <pt x="494" y="-11" on="0"/>
        <pt x="345" y="-11" on="1"/>
        <pt x="214" y="-11" on="0"/>
        <pt x="74" y="158" on="0"/>
        <pt x="74" y="315" on="1"/>
        <pt x="74" y="399" on="0"/>
        <pt x="129" y="533" on="0"/>
        <pt x="231" y="611" on="0"/>
        <pt x="298" y="611" on="1"/>
        <pt x="367" y="611" on="0"/>
        <pt x="448" y="532" on="0"/>
        <pt x="448" y="469" on="1"/>
        <pt x="448" y="375" on="0"/>
        <pt x="276" y="262" on="0"/>
        <pt x="102" y="256" on="1"/>
        <pt x="113" y="137" on="0"/>
        <pt x="237" y="12" on="0"/>
        <pt x="346" y="12" on="1"/>
        <pt x="481" y="12" on="0"/>
        <pt x="656" y="214" on="0"/>
        <pt x="673" y="415" on="1"/>
        <pt x="563" y="415" on="1"/>
        <pt x="563" y="438" on="1"/>
      </contour>
      <contour>
        <pt x="236" y="588" on="0"/>
        <pt x="146" y="515" on="0"/>
        <pt x="99" y="390" on="0"/>
        <pt x="99" y="314" on="1"/>
        <pt x="99" y="290" on="0"/>
        <pt x="100" y="279" on="1"/>
        <pt x="262" y="283" on="0"/>
        <pt x="421" y="384" on="0"/>
        <pt x="421" y="469" on="1"/>
        <pt x="421" y="523" on="0"/>
        <pt x="359" y="588" on="0"/>
        <pt x="298" y="588" on="1"/>
      </contour>
    </TTGlyph>
    <TTGlyph name="anoteleia" xMin="58" yMin="302" xMax="109" yMax="351">
      <component glyphName="periodcentered" x="0" y="0" flags="0x0"/>
    </TTGlyph>
    <TTGlyph name="aogonek" xMin="66" yMin="-213" xMax="457" yMax="529">
      <contour>
        <pt x="328" y="-159" on="0"/>
        <pt x="363" y="-189" on="0"/>
        <pt x="397" y="-189" on="1"/>
        <pt x="420" y="-189" on="0"/>
        <pt x="453" y="-183" on="1"/>
        <pt x="450" y="-207" on="1"/>
        <pt x="420" y="-213" on="0"/>
        <pt x="397" y="-213" on="1"/>
        <pt x="350" y="-213" on="0"/>
        <pt x="301" y="-169" on="0"/>
        <pt x="301" y="-132" on="1"/>
        <pt x="301" y="-90" on="0"/>
        <pt x="367" y="-29" on="0"/>
        <pt x="431" y="-1" on="1"/>
        <pt x="411" y="10" on="0"/>
        <pt x="392" y="52" on="0"/>
        <pt x="391" y="89" on="1"/>
        <pt x="332" y="-10" on="0"/>
        <pt x="222" y="-10" on="1"/>
        <pt x="149" y="-10" on="0"/>
        <pt x="66" y="74" on="0"/>
        <pt x="66" y="144" on="1"/>
        <pt x="66" y="222" on="0"/>
        <pt x="176" y="308" on="0"/>
        <pt x="270" y="308" on="1"/>
        <pt x="388" y="308" on="1"/>
        <pt x="388" y="370" on="1"/>
        <pt x="388" y="440" on="0"/>
        <pt x="328" y="507" on="0"/>
        <pt x="256" y="507" on="1"/>
        <pt x="195" y="507" on="0"/>
        <pt x="113" y="475" on="1"/>
        <pt x="105" y="495" on="1"/>
        <pt x="187" y="529" on="0"/>
        <pt x="256" y="529" on="1"/>
        <pt x="337" y="529" on="0"/>
        <pt x="412" y="450" on="0"/>
        <pt x="412" y="372" on="1"/>
        <pt x="412" y="110" on="1"/>
        <pt x="412" y="60" on="0"/>
        <pt x="432" y="16" on="0"/>
        <pt x="457" y="7" on="1"/>
        <pt x="452" y="-10" on="1"/>
        <pt x="389" y="-39" on="0"/>
        <pt x="328" y="-91" on="0"/>
        <pt x="328" y="-131" on="1"/>
      </contour>
      <contour>
        <pt x="280" y="13" on="0"/>
        <pt x="361" y="67" on="0"/>
        <pt x="388" y="119" on="1"/>
        <pt x="388" y="286" on="1"/>
        <pt x="275" y="286" on="1"/>
        <pt x="188" y="286" on="0"/>
        <pt x="92" y="214" on="0"/>
        <pt x="92" y="144" on="1"/>
        <pt x="92" y="83" on="0"/>
        <pt x="161" y="13" on="0"/>
        <pt x="222" y="13" on="1"/>
      </contour>
    </TTGlyph>
    <TTGlyph name="aogonek.sc" xMin="27" yMin="-203" xMax="465" yMax="559">
      <contour>
        <pt x="433" y="-179" on="0"/>
        <pt x="465" y="-173" on="1"/>
        <pt x="463" y="-197" on="1"/>
        <pt x="432" y="-203" on="0"/>
        <pt x="409" y="-203" on="1"/>
        <pt x="362" y="-203" on="0"/>
        <pt x="314" y="-159" on="0"/>
        <pt x="314" y="-122" on="1"/>
        <pt x="314" y="-81" on="0"/>
        <pt x="376" y="-20" on="0"/>
        <pt x="437" y="6" on="1"/>
        <pt x="380" y="164" on="1"/>
        <pt x="110" y="164" on="1"/>
        <pt x="51" y="0" on="1"/>
        <pt x="27" y="0" on="1"/>
        <pt x="231" y="559" on="1"/>
        <pt x="260" y="559" on="1"/>
        <pt x="465" y="0" on="1"/>
        <pt x="464" y="0" on="1"/>
        <pt x="401" y="-29" on="0"/>
        <pt x="340" y="-81" on="0"/>
        <pt x="340" y="-121" on="1"/>
        <pt x="340" y="-148" on="0"/>
        <pt x="376" y="-179" on="0"/>
        <pt x="410" y="-179" on="1"/>
      </contour>
      <contour>
        <pt x="372" y="186" on="1"/>
        <pt x="246" y="538" on="1"/>
        <pt x="118" y="186" on="1"/>
      </contour>
    </TTGlyph>
    <TTGlyph name="approxequal" xMin="118" yMin="207" xMax="437" yMax="286">
      <component glyphName="asciitilde.lf" x="49" y="-71" flags="0x0"/>
      <component glyphName="asciitilde.lf" x="49" y="79" flags="0x0"/>
    </TTGlyph>
    <TTGlyph name="approxequal.lf" xMin="69" yMin="207" xMax="388" yMax="286">
      <component glyphName="asciitilde.lf" x="0" y="-71" flags="0x0"/>
      <component glyphName="asciitilde.lf" x="0" y="79" flags="0x0"/>
    </TTGlyph>
    <TTGlyph name="approxequal.osf" xMin="69" yMin="207" xMax="388" yMax="286">
      <component glyphName="asciitilde.lf" x="0" y="-71" flags="0x0"/>
      <component glyphName="asciitilde.lf" x="0" y="79" flags="0x0"/>
    </TTGlyph>
    <TTGlyph name="approxequal.tosf" xMin="120" yMin="207" xMax="439" yMax="286">
      <component glyphName="asciitilde.lf" x="51" y="-71" flags="0x0"/>
      <component glyphName="asciitilde.lf" x="51" y="79" flags="0x0"/>
    </TTGlyph>
    <TTGlyph name="aring" xMin="66" yMin="-10" xMax="457" yMax="802">
      <component glyphName="a" x="0" y="0" flags="0x0"/>
      <component glyphName="uni030A" x="363" y="0" flags="0x0"/>
    </TTGlyph>
    <TTGlyph name="aring.sc" xMin="27" yMin="0" xMax="465" yMax="832">
      <component glyphName="a.sc" x="0" y="0" flags="0x0"/>
      <component glyphName="uni030A.sc" x="135" y="0" flags="0x0"/>
    </TTGlyph>
    <TTGlyph name="aringacute" xMin="66" yMin="-10" xMax="457" yMax="862">
      <contour>
        <pt x="170" y="762" on="1"/>
        <pt x="163" y="779" on="1"/>
        <pt x="338" y="862" on="1"/>
        <pt x="350" y="837" on="1"/>
      </contour>
      <contour>
        <pt x="175" y="705" on="0"/>
        <pt x="220" y="748" on="0"/>
        <pt x="256" y="748" on="1"/>
        <pt x="293" y="748" on="0"/>
        <pt x="337" y="705" on="0"/>
        <pt x="337" y="669" on="1"/>
        <pt x="337" y="633" on="0"/>
        <pt x="293" y="589" on="0"/>
        <pt x="256" y="589" on="1"/>
        <pt x="219" y="589" on="0"/>
        <pt x="175" y="633" on="0"/>
        <pt x="175" y="669" on="1"/>
      </contour>
      <contour>
        <pt x="314" y="698" on="0"/>
        <pt x="284" y="729" on="0"/>
        <pt x="256" y="729" on="1"/>
        <pt x="228" y="729" on="0"/>
        <pt x="198" y="697" on="0"/>
        <pt x="198" y="669" on="1"/>
        <pt x="198" y="640" on="0"/>
        <pt x="228" y="609" on="0"/>
        <pt x="256" y="609" on="1"/>
        <pt x="284" y="609" on="0"/>
        <pt x="314" y="640" on="0"/>
        <pt x="314" y="669" on="1"/>
      </contour>
      <contour>
        <pt x="412" y="60" on="0"/>
        <pt x="432" y="16" on="0"/>
        <pt x="457" y="7" on="1"/>
        <pt x="452" y="-10" on="1"/>
        <pt x="421" y="0" on="0"/>
        <pt x="392" y="45" on="0"/>
        <pt x="391" y="89" on="1"/>
        <pt x="332" y="-10" on="0"/>
        <pt x="222" y="-10" on="1"/>
        <pt x="149" y="-10" on="0"/>
        <pt x="66" y="74" on="0"/>
        <pt x="66" y="144" on="1"/>
        <pt x="66" y="222" on="0"/>
        <pt x="176" y="308" on="0"/>
        <pt x="270" y="308" on="1"/>
        <pt x="388" y="308" on="1"/>
        <pt x="388" y="370" on="1"/>
        <pt x="388" y="440" on="0"/>
        <pt x="328" y="507" on="0"/>
        <pt x="256" y="507" on="1"/>
        <pt x="195" y="507" on="0"/>
        <pt x="113" y="475" on="1"/>
        <pt x="105" y="495" on="1"/>
        <pt x="187" y="529" on="0"/>
        <pt x="256" y="529" on="1"/>
        <pt x="337" y="529" on="0"/>
        <pt x="412" y="450" on="0"/>
        <pt x="412" y="372" on="1"/>
        <pt x="412" y="110" on="1"/>
      </contour>
      <contour>
        <pt x="280" y="13" on="0"/>
        <pt x="361" y="67" on="0"/>
        <pt x="388" y="119" on="1"/>
        <pt x="388" y="286" on="1"/>
        <pt x="275" y="286" on="1"/>
        <pt x="188" y="286" on="0"/>
        <pt x="92" y="214" on="0"/>
        <pt x="92" y="144" on="1"/>
        <pt x="92" y="83" on="0"/>
        <pt x="161" y="13" on="0"/>
        <pt x="222" y="13" on="1"/>
      </contour>
    </TTGlyph>
    <TTGlyph name="aringacute.sc" xMin="27" yMin="0" xMax="465" yMax="886">
      <contour>
        <pt x="160" y="786" on="1"/>
        <pt x="153" y="803" on="1"/>
        <pt x="328" y="886" on="1"/>
        <pt x="340" y="861" on="1"/>
      </contour>
      <contour>
        <pt x="164" y="723" on="0"/>
        <pt x="209" y="766" on="0"/>
        <pt x="245" y="766" on="1"/>
        <pt x="282" y="766" on="0"/>
        <pt x="326" y="723" on="0"/>
        <pt x="326" y="687" on="1"/>
        <pt x="326" y="651" on="0"/>
        <pt x="282" y="607" on="0"/>
        <pt x="245" y="607" on="1"/>
        <pt x="208" y="607" on="0"/>
        <pt x="164" y="651" on="0"/>
        <pt x="164" y="687" on="1"/>
      </contour>
      <contour>
        <pt x="303" y="716" on="0"/>
        <pt x="273" y="747" on="0"/>
        <pt x="245" y="747" on="1"/>
        <pt x="217" y="747" on="0"/>
        <pt x="187" y="715" on="0"/>
        <pt x="187" y="687" on="1"/>
        <pt x="187" y="658" on="0"/>
        <pt x="217" y="627" on="0"/>
        <pt x="245" y="627" on="1"/>
        <pt x="273" y="627" on="0"/>
        <pt x="303" y="658" on="0"/>
        <pt x="303" y="687" on="1"/>
      </contour>
      <contour>
        <pt x="380" y="164" on="1"/>
        <pt x="110" y="164" on="1"/>
        <pt x="51" y="0" on="1"/>
        <pt x="27" y="0" on="1"/>
        <pt x="231" y="559" on="1"/>
        <pt x="260" y="559" on="1"/>
        <pt x="465" y="0" on="1"/>
        <pt x="439" y="0" on="1"/>
      </contour>
      <contour>
        <pt x="372" y="186" on="1"/>
        <pt x="246" y="538" on="1"/>
        <pt x="118" y="186" on="1"/>
      </contour>
    </TTGlyph>
    <TTGlyph name="arrowboth" xMin="160" yMin="64" xMax="1120" yMax="594">
      <contour>
        <pt x="1120" y="329" on="1"/>
        <pt x="880" y="64" on="1"/>
        <pt x="863" y="80" on="1"/>
        <pt x="1022" y="258" on="1"/>
        <pt x="1048" y="289" on="0"/>
        <pt x="1084" y="318" on="1"/>
        <pt x="196" y="318" on="1"/>
        <pt x="232" y="289" on="0"/>
        <pt x="258" y="258" on="1"/>
        <pt x="417" y="80" on="1"/>
        <pt x="400" y="64" on="1"/>
        <pt x="160" y="329" on="1"/>
        <pt x="400" y="594" on="1"/>
        <pt x="417" y="578" on="1"/>
        <pt x="258" y="400" on="1"/>
        <pt x="232" y="369" on="0"/>
        <pt x="196" y="340" on="1"/>
        <pt x="1084" y="340" on="1"/>
        <pt x="1048" y="369" on="0"/>
        <pt x="1022" y="400" on="1"/>
        <pt x="863" y="578" on="1"/>
        <pt x="880" y="594" on="1"/>
      </contour>
    </TTGlyph>
    <TTGlyph name="arrowdown" xMin="167" yMin="-15" xMax="733" yMax="610">
      <contour>
        <pt x="462" y="22" on="1"/>
        <pt x="481" y="47" on="0"/>
        <pt x="526" y="87" on="1"/>
        <pt x="717" y="255" on="1"/>
        <pt x="733" y="238" on="1"/>
        <pt x="450" y="-15" on="1"/>
        <pt x="167" y="238" on="1"/>
        <pt x="183" y="255" on="1"/>
        <pt x="374" y="87" on="1"/>
        <pt x="419" y="47" on="0"/>
        <pt x="438" y="22" on="1"/>
        <pt x="438" y="610" on="1"/>
        <pt x="462" y="610" on="1"/>
      </contour>
    </TTGlyph>
    <TTGlyph name="arrowleft" xMin="160" yMin="64" xMax="739" yMax="594">
      <contour>
        <pt x="417" y="578" on="1"/>
        <pt x="258" y="400" on="1"/>
        <pt x="232" y="369" on="0"/>
        <pt x="196" y="340" on="1"/>
        <pt x="739" y="340" on="1"/>
        <pt x="739" y="318" on="1"/>
        <pt x="196" y="318" on="1"/>
        <pt x="232" y="289" on="0"/>
        <pt x="258" y="258" on="1"/>
        <pt x="417" y="80" on="1"/>
        <pt x="400" y="64" on="1"/>
        <pt x="160" y="329" on="1"/>
        <pt x="400" y="594" on="1"/>
      </contour>
    </TTGlyph>
    <TTGlyph name="arrowright" xMin="161" yMin="64" xMax="740" yMax="594">
      <component glyphName="arrowleft" x="900" y="0" scalex="-1.0" scaley="1.0" flags="0x0"/>
    </TTGlyph>
    <TTGlyph name="arrowup" xMin="167" yMin="0" xMax="733" yMax="625">
      <component glyphName="arrowdown" x="900" y="610" scale="-1.0" flags="0x0"/>
    </TTGlyph>
    <TTGlyph name="arrowupdn" xMin="167" yMin="-153" xMax="733" yMax="835">
      <contour>
        <pt x="733" y="583" on="1"/>
        <pt x="717" y="566" on="1"/>
        <pt x="526" y="734" on="1"/>
        <pt x="483" y="772" on="0"/>
        <pt x="462" y="798" on="1"/>
        <pt x="462" y="-117" on="1"/>
        <pt x="481" y="-92" on="0"/>
        <pt x="526" y="-52" on="1"/>
        <pt x="717" y="116" on="1"/>
        <pt x="733" y="99" on="1"/>
        <pt x="450" y="-153" on="1"/>
        <pt x="167" y="99" on="1"/>
        <pt x="183" y="116" on="1"/>
        <pt x="374" y="-52" on="1"/>
        <pt x="419" y="-92" on="0"/>
        <pt x="438" y="-117" on="1"/>
        <pt x="438" y="798" on="1"/>
        <pt x="417" y="772" on="0"/>
        <pt x="374" y="734" on="1"/>
        <pt x="183" y="566" on="1"/>
        <pt x="167" y="583" on="1"/>
        <pt x="450" y="835" on="1"/>
      </contour>
    </TTGlyph>
    <TTGlyph name="asciicircum" xMin="74" yMin="527" xMax="448" yMax="824">
      <contour>
        <pt x="448" y="527" on="1"/>
        <pt x="417" y="527" on="1"/>
        <pt x="261" y="794" on="1"/>
        <pt x="105" y="527" on="1"/>
        <pt x="74" y="527" on="1"/>
        <pt x="253" y="824" on="1"/>
        <pt x="269" y="824" on="1"/>
      </contour>
    </TTGlyph>
    <TTGlyph name="asciitilde" xMin="118" yMin="278" xMax="437" yMax="357">
      <component glyphName="asciitilde.lf" x="49" y="0" flags="0x0"/>
    </TTGlyph>
    <TTGlyph name="asciitilde.lf" xMin="69" yMin="278" xMax="388" yMax="357">
      <contour>
        <pt x="287" y="278" on="0"/>
        <pt x="251" y="293" on="0"/>
        <pt x="226" y="307" on="1"/>
        <pt x="202" y="320" on="0"/>
        <pt x="170" y="333" on="0"/>
        <pt x="155" y="333" on="1"/>
        <pt x="132" y="333" on="0"/>
        <pt x="102" y="314" on="0"/>
        <pt x="85" y="292" on="1"/>
        <pt x="69" y="301" on="1"/>
        <pt x="89" y="329" on="0"/>
        <pt x="127" y="357" on="0"/>
        <pt x="155" y="357" on="1"/>
        <pt x="174" y="357" on="0"/>
        <pt x="210" y="343" on="0"/>
        <pt x="237" y="328" on="1"/>
        <pt x="260" y="315" on="0"/>
        <pt x="290" y="302" on="0"/>
        <pt x="305" y="302" on="1"/>
        <pt x="327" y="302" on="0"/>
        <pt x="354" y="321" on="0"/>
        <pt x="372" y="344" on="1"/>
        <pt x="388" y="334" on="1"/>
        <pt x="369" y="306" on="0"/>
        <pt x="332" y="278" on="0"/>
        <pt x="305" y="278" on="1"/>
      </contour>
    </TTGlyph>
    <TTGlyph name="asciitilde.osf" xMin="69" yMin="278" xMax="388" yMax="357">
      <component glyphName="asciitilde.lf" x="0" y="0" flags="0x0"/>
    </TTGlyph>
    <TTGlyph name="asciitilde.tosf" xMin="120" yMin="278" xMax="439" yMax="357">
      <component glyphName="asciitilde.lf" x="51" y="0" flags="0x0"/>
    </TTGlyph>
    <TTGlyph name="asterisk" xMin="48" yMin="414" xMax="384" yMax="733">
      <contour>
        <pt x="232" y="556" on="1"/>
        <pt x="327" y="428" on="1"/>
        <pt x="307" y="414" on="1"/>
        <pt x="217" y="544" on="1"/>
        <pt x="125" y="414" on="1"/>
        <pt x="105" y="428" on="1"/>
        <pt x="201" y="555" on="1"/>
        <pt x="48" y="602" on="1"/>
        <pt x="56" y="624" on="1"/>
        <pt x="206" y="572" on="1"/>
        <pt x="204" y="733" on="1"/>
        <pt x="228" y="733" on="1"/>
        <pt x="227" y="573" on="1"/>
        <pt x="376" y="624" on="1"/>
        <pt x="384" y="602" on="1"/>
      </contour>
    </TTGlyph>
    <TTGlyph name="at" xMin="99" yMin="-198" xMax="921" yMax="692">
      <contour>
        <pt x="652" y="692" on="0"/>
        <pt x="831" y="587" on="0"/>
        <pt x="921" y="413" on="0"/>
        <pt x="921" y="309" on="1"/>
        <pt x="921" y="152" on="0"/>
        <pt x="824" y="15" on="0"/>
        <pt x="755" y="15" on="1"/>
        <pt x="708" y="15" on="0"/>
        <pt x="646" y="79" on="0"/>
        <pt x="639" y="135" on="1"/>
        <pt x="590" y="17" on="0"/>
        <pt x="487" y="17" on="1"/>
        <pt x="442" y="17" on="0"/>
        <pt x="369" y="66" on="0"/>
        <pt x="325" y="163" on="0"/>
        <pt x="325" y="232" on="1"/>
        <pt x="325" y="314" on="0"/>
        <pt x="378" y="424" on="0"/>
        <pt x="468" y="477" on="0"/>
        <pt x="524" y="477" on="1"/>
        <pt x="590" y="477" on="0"/>
        <pt x="656" y="444" on="1"/>
        <pt x="656" y="184" on="1"/>
        <pt x="656" y="111" on="0"/>
        <pt x="709" y="36" on="0"/>
        <pt x="755" y="36" on="1"/>
        <pt x="815" y="36" on="0"/>
        <pt x="896" y="161" on="0"/>
        <pt x="896" y="307" on="1"/>
        <pt x="896" y="406" on="0"/>
        <pt x="810" y="571" on="0"/>
        <pt x="642" y="669" on="0"/>
        <pt x="526" y="669" on="1"/>
        <pt x="409" y="669" on="0"/>
        <pt x="226" y="553" on="0"/>
        <pt x="124" y="358" on="0"/>
        <pt x="124" y="244" on="1"/>
        <pt x="124" y="115" on="0"/>
        <pt x="226" y="-74" on="0"/>
        <pt x="408" y="-175" on="0"/>
        <pt x="525" y="-175" on="1"/>
        <pt x="624" y="-175" on="0"/>
        <pt x="710" y="-143" on="1"/>
        <pt x="716" y="-164" on="1"/>
        <pt x="669" y="-180" on="0"/>
        <pt x="581" y="-198" on="0"/>
        <pt x="524" y="-198" on="1"/>
        <pt x="402" y="-198" on="0"/>
        <pt x="209" y="-92" on="0"/>
        <pt x="99" y="108" on="0"/>
        <pt x="99" y="244" on="1"/>
        <pt x="99" y="365" on="0"/>
        <pt x="207" y="570" on="0"/>
        <pt x="402" y="692" on="0"/>
        <pt x="526" y="692" on="1"/>
      </contour>
      <contour>
        <pt x="540" y="39" on="0"/>
        <pt x="616" y="112" on="0"/>
        <pt x="632" y="169" on="1"/>
        <pt x="632" y="428" on="1"/>
        <pt x="578" y="455" on="0"/>
        <pt x="525" y="455" on="1"/>
        <pt x="446" y="455" on="0"/>
        <pt x="350" y="338" on="0"/>
        <pt x="350" y="232" on="1"/>
        <pt x="350" y="138" on="0"/>
        <pt x="427" y="39" on="0"/>
        <pt x="489" y="39" on="1"/>
      </contour>
    </TTGlyph>
    <TTGlyph name="atilde" xMin="66" yMin="-10" xMax="457" yMax="742">
      <component glyphName="a" x="0" y="0" flags="0x0"/>
      <component glyphName="tildecomb" x="419" y="0" flags="0x0"/>
    </TTGlyph>
    <TTGlyph name="atilde.sc" xMin="27" yMin="0" xMax="465" yMax="772">
      <component glyphName="a.sc" x="0" y="0" flags="0x0"/>
      <component glyphName="tildecomb.sc" x="82" y="0" flags="0x0"/>
    </TTGlyph>
    <TTGlyph name="b" xMin="117" yMin="-10" xMax="492" yMax="736">
      <contour>
        <pt x="397" y="529" on="0"/>
        <pt x="492" y="392" on="0"/>
        <pt x="492" y="264" on="1"/>
        <pt x="492" y="135" on="0"/>
        <pt x="394" y="-10" on="0"/>
        <pt x="302" y="-10" on="1"/>
        <pt x="250" y="-10" on="0"/>
        <pt x="167" y="39" on="0"/>
        <pt x="141" y="78" on="1"/>
        <pt x="138" y="0" on="1"/>
        <pt x="117" y="0" on="1"/>
        <pt x="117" y="733" on="1"/>
        <pt x="141" y="736" on="1"/>
        <pt x="141" y="438" on="1"/>
        <pt x="209" y="529" on="0"/>
        <pt x="308" y="529" on="1"/>
      </contour>
      <contour>
        <pt x="383" y="13" on="0"/>
        <pt x="467" y="143" on="0"/>
        <pt x="467" y="264" on="1"/>
        <pt x="467" y="384" on="0"/>
        <pt x="386" y="507" on="0"/>
        <pt x="308" y="507" on="1"/>
        <pt x="254" y="507" on="0"/>
        <pt x="178" y="458" on="0"/>
        <pt x="141" y="409" on="1"/>
        <pt x="141" y="108" on="1"/>
        <pt x="205" y="13" on="0"/>
        <pt x="302" y="13" on="1"/>
      </contour>
    </TTGlyph>
    <TTGlyph name="b.sc" xMin="122" yMin="0" xMax="474" yMax="559">
      <contour>
        <pt x="395" y="293" on="0"/>
        <pt x="474" y="219" on="0"/>
        <pt x="474" y="152" on="1"/>
        <pt x="474" y="79" on="0"/>
        <pt x="371" y="0" on="0"/>
        <pt x="279" y="0" on="1"/>
        <pt x="122" y="0" on="1"/>
        <pt x="122" y="559" on="1"/>
        <pt x="245" y="559" on="1"/>
        <pt x="342" y="559" on="0"/>
        <pt x="445" y="489" on="0"/>
        <pt x="445" y="422" on="1"/>
        <pt x="445" y="369" on="0"/>
        <pt x="388" y="306" on="0"/>
        <pt x="338" y="297" on="1"/>
      </contour>
      <contour>
        <pt x="146" y="537" on="1"/>
        <pt x="146" y="306" on="1"/>
        <pt x="291" y="306" on="1"/>
        <pt x="349" y="306" on="0"/>
        <pt x="420" y="368" on="0"/>
        <pt x="420" y="421" on="1"/>
        <pt x="420" y="479" on="0"/>
        <pt x="333" y="537" on="0"/>
        <pt x="249" y="537" on="1"/>
      </contour>
      <contour>
        <pt x="360" y="22" on="0"/>
        <pt x="449" y="88" on="0"/>
        <pt x="449" y="152" on="1"/>
        <pt x="449" y="217" on="0"/>
        <pt x="365" y="285" on="0"/>
        <pt x="296" y="285" on="1"/>
        <pt x="146" y="285" on="1"/>
        <pt x="146" y="22" on="1"/>
        <pt x="280" y="22" on="1"/>
      </contour>
    </TTGlyph>
    <TTGlyph name="backslash" xMin="133" yMin="-95" xMax="386" yMax="798">
      <contour>
        <pt x="386" y="-89" on="1"/>
        <pt x="365" y="-95" on="1"/>
        <pt x="133" y="792" on="1"/>
        <pt x="154" y="798" on="1"/>
      </contour>
    </TTGlyph>
    <TTGlyph name="bar" xMin="194" yMin="-99" xMax="218" yMax="802">
      <contour>
        <pt x="218" y="-99" on="1"/>
        <pt x="194" y="-99" on="1"/>
        <pt x="194" y="802" on="1"/>
        <pt x="218" y="802" on="1"/>
      </contour>
    </TTGlyph>
    <TTGlyph name="beta" xMin="117" yMin="-197" xMax="517" yMax="737">
      <contour>
        <pt x="401" y="397" on="0"/>
        <pt x="517" y="294" on="0"/>
        <pt x="517" y="200" on="1"/>
        <pt x="517" y="135" on="0"/>
        <pt x="464" y="40" on="0"/>
        <pt x="374" y="-10" on="0"/>
        <pt x="320" y="-10" on="1"/>
        <pt x="265" y="-10" on="0"/>
        <pt x="177" y="30" on="0"/>
        <pt x="142" y="72" on="1"/>
        <pt x="142" y="-193" on="1"/>
        <pt x="117" y="-197" on="1"/>
        <pt x="117" y="541" on="1"/>
        <pt x="117" y="634" on="0"/>
        <pt x="218" y="737" on="0"/>
        <pt x="301" y="737" on="1"/>
        <pt x="375" y="737" on="0"/>
        <pt x="471" y="647" on="0"/>
        <pt x="471" y="568" on="1"/>
        <pt x="471" y="492" on="0"/>
        <pt x="385" y="406" on="0"/>
        <pt x="308" y="399" on="1"/>
      </contour>
      <contour>
        <pt x="368" y="13" on="0"/>
        <pt x="447" y="57" on="0"/>
        <pt x="492" y="140" on="0"/>
        <pt x="492" y="196" on="1"/>
        <pt x="492" y="288" on="0"/>
        <pt x="372" y="388" on="0"/>
        <pt x="267" y="388" on="1"/>
        <pt x="218" y="388" on="1"/>
        <pt x="221" y="409" on="1"/>
        <pt x="269" y="409" on="1"/>
        <pt x="338" y="409" on="0"/>
        <pt x="446" y="483" on="0"/>
        <pt x="446" y="568" on="1"/>
        <pt x="446" y="640" on="0"/>
        <pt x="366" y="715" on="0"/>
        <pt x="301" y="715" on="1"/>
        <pt x="228" y="715" on="0"/>
        <pt x="142" y="626" on="0"/>
        <pt x="142" y="539" on="1"/>
        <pt x="142" y="101" on="1"/>
        <pt x="181" y="53" on="0"/>
        <pt x="261" y="13" on="0"/>
        <pt x="320" y="13" on="1"/>
      </contour>
    </TTGlyph>
    <TTGlyph name="beta.sc" xMin="122" yMin="0" xMax="474" yMax="559">
      <component glyphName="b.sc" x="0" y="0" flags="0x0"/>
    </TTGlyph>
    <TTGlyph name="braceleft" xMin="63" yMin="-121" xMax="245" yMax="819">
      <contour>
        <pt x="245" y="801" on="1"/>
        <pt x="203" y="801" on="0"/>
        <pt x="165" y="757" on="0"/>
        <pt x="165" y="711" on="1"/>
        <pt x="165" y="442" on="1"/>
        <pt x="165" y="397" on="0"/>
        <pt x="129" y="355" on="0"/>
        <pt x="90" y="349" on="1"/>
        <pt x="129" y="343" on="0"/>
        <pt x="165" y="301" on="0"/>
        <pt x="165" y="256" on="1"/>
        <pt x="165" y="-13" on="1"/>
        <pt x="165" y="-59" on="0"/>
        <pt x="203" y="-103" on="0"/>
        <pt x="245" y="-103" on="1"/>
        <pt x="245" y="-121" on="1"/>
        <pt x="197" y="-121" on="0"/>
        <pt x="143" y="-70" on="0"/>
        <pt x="143" y="-18" on="1"/>
        <pt x="143" y="266" on="1"/>
        <pt x="143" y="303" on="0"/>
        <pt x="100" y="338" on="0"/>
        <pt x="63" y="338" on="1"/>
        <pt x="63" y="360" on="1"/>
        <pt x="143" y="360" on="0"/>
        <pt x="143" y="433" on="1"/>
        <pt x="143" y="716" on="1"/>
        <pt x="143" y="768" on="0"/>
        <pt x="197" y="819" on="0"/>
        <pt x="245" y="819" on="1"/>
      </contour>
    </TTGlyph>
    <TTGlyph name="braceleft.case" xMin="63" yMin="-131" xMax="245" yMax="809">
      <component glyphName="braceleft" x="0" y="-10" flags="0x0"/>
    </TTGlyph>
    <TTGlyph name="braceright" xMin="83" yMin="-121" xMax="265" yMax="819">
      <contour>
        <pt x="132" y="819" on="0"/>
        <pt x="185" y="768" on="0"/>
        <pt x="185" y="716" on="1"/>
        <pt x="185" y="433" on="1"/>
        <pt x="185" y="395" on="0"/>
        <pt x="228" y="360" on="0"/>
        <pt x="265" y="360" on="1"/>
        <pt x="265" y="338" on="1"/>
        <pt x="228" y="338" on="0"/>
        <pt x="185" y="303" on="0"/>
        <pt x="185" y="266" on="1"/>
        <pt x="185" y="-18" on="1"/>
        <pt x="185" y="-70" on="0"/>
        <pt x="132" y="-121" on="0"/>
        <pt x="83" y="-121" on="1"/>
        <pt x="83" y="-103" on="1"/>
        <pt x="126" y="-103" on="0"/>
        <pt x="164" y="-59" on="0"/>
        <pt x="164" y="-13" on="1"/>
        <pt x="164" y="256" on="1"/>
        <pt x="164" y="301" on="0"/>
        <pt x="199" y="343" on="0"/>
        <pt x="239" y="349" on="1"/>
        <pt x="199" y="355" on="0"/>
        <pt x="164" y="397" on="0"/>
        <pt x="164" y="442" on="1"/>
        <pt x="164" y="711" on="1"/>
        <pt x="164" y="757" on="0"/>
        <pt x="126" y="801" on="0"/>
        <pt x="83" y="801" on="1"/>
        <pt x="83" y="819" on="1"/>
      </contour>
    </TTGlyph>
    <TTGlyph name="braceright.case" xMin="83" yMin="-131" xMax="265" yMax="809">
      <component glyphName="braceright" x="0" y="-10" flags="0x0"/>
    </TTGlyph>
    <TTGlyph name="bracketleft" xMin="102" yMin="-107" xMax="230" yMax="797">
      <contour>
        <pt x="230" y="779" on="1"/>
        <pt x="124" y="779" on="1"/>
        <pt x="124" y="-89" on="1"/>
        <pt x="230" y="-89" on="1"/>
        <pt x="230" y="-107" on="1"/>
        <pt x="102" y="-107" on="1"/>
        <pt x="102" y="797" on="1"/>
        <pt x="230" y="797" on="1"/>
      </contour>
    </TTGlyph>
    <TTGlyph name="bracketleft.case" xMin="102" yMin="-117" xMax="230" yMax="787">
      <component glyphName="bracketleft" x="0" y="-10" flags="0x0"/>
    </TTGlyph>
    <TTGlyph name="bracketright" xMin="82" yMin="-107" xMax="210" yMax="797">
      <contour>
        <pt x="210" y="-107" on="1"/>
        <pt x="82" y="-107" on="1"/>
        <pt x="82" y="-89" on="1"/>
        <pt x="189" y="-89" on="1"/>
        <pt x="189" y="779" on="1"/>
        <pt x="82" y="779" on="1"/>
        <pt x="82" y="797" on="1"/>
        <pt x="210" y="797" on="1"/>
      </contour>
    </TTGlyph>
    <TTGlyph name="bracketright.case" xMin="82" yMin="-117" xMax="210" yMax="787">
      <component glyphName="bracketright" x="0" y="-10" flags="0x0"/>
    </TTGlyph>
    <TTGlyph name="breve" xMin="30" yMin="663" xMax="248" yMax="753">
      <contour>
        <pt x="97" y="663" on="0"/>
        <pt x="38" y="711" on="0"/>
        <pt x="30" y="750" on="1"/>
        <pt x="47" y="753" on="1"/>
        <pt x="56" y="721" on="0"/>
        <pt x="104" y="685" on="0"/>
        <pt x="139" y="685" on="1"/>
        <pt x="175" y="685" on="0"/>
        <pt x="223" y="721" on="0"/>
        <pt x="231" y="753" on="1"/>
        <pt x="248" y="750" on="1"/>
        <pt x="240" y="711" on="0"/>
        <pt x="182" y="663" on="0"/>
        <pt x="139" y="663" on="1"/>
      </contour>
    </TTGlyph>
    <TTGlyph name="breve.case" xMin="30" yMin="771" xMax="248" yMax="852">
      <contour>
        <pt x="98" y="771" on="0"/>
        <pt x="38" y="816" on="0"/>
        <pt x="30" y="848" on="1"/>
        <pt x="47" y="852" on="1"/>
        <pt x="56" y="826" on="0"/>
        <pt x="104" y="794" on="0"/>
        <pt x="139" y="794" on="1"/>
        <pt x="174" y="794" on="0"/>
        <pt x="222" y="826" on="0"/>
        <pt x="231" y="852" on="1"/>
        <pt x="248" y="848" on="1"/>
        <pt x="240" y="816" on="0"/>
        <pt x="181" y="771" on="0"/>
        <pt x="139" y="771" on="1"/>
      </contour>
    </TTGlyph>
    <TTGlyph name="breve.sc" xMin="30" yMin="693" xMax="248" yMax="783">
      <component glyphName="uni0306" x="279" y="30" flags="0x0"/>
    </TTGlyph>
    <TTGlyph name="brevecy" xMin="30" yMin="663" xMax="248" yMax="736">
      <contour>
        <pt x="96" y="663" on="0"/>
        <pt x="37" y="700" on="0"/>
        <pt x="30" y="732" on="1"/>
        <pt x="47" y="736" on="1"/>
        <pt x="56" y="711" on="0"/>
        <pt x="103" y="685" on="0"/>
        <pt x="139" y="685" on="1"/>
        <pt x="176" y="685" on="0"/>
        <pt x="223" y="711" on="0"/>
        <pt x="231" y="736" on="1"/>
        <pt x="248" y="732" on="1"/>
        <pt x="241" y="700" on="0"/>
        <pt x="183" y="663" on="0"/>
        <pt x="139" y="663" on="1"/>
      </contour>
    </TTGlyph>
    <TTGlyph name="brevecy.case" xMin="30" yMin="789" xMax="248" yMax="862">
      <contour>
        <pt x="96" y="789" on="0"/>
        <pt x="37" y="826" on="0"/>
        <pt x="30" y="858" on="1"/>
        <pt x="47" y="862" on="1"/>
        <pt x="56" y="837" on="0"/>
        <pt x="103" y="811" on="0"/>
        <pt x="139" y="811" on="1"/>
        <pt x="176" y="811" on="0"/>
        <pt x="223" y="837" on="0"/>
        <pt x="231" y="862" on="1"/>
        <pt x="248" y="858" on="1"/>
        <pt x="241" y="826" on="0"/>
        <pt x="183" y="789" on="0"/>
        <pt x="139" y="789" on="1"/>
      </contour>
    </TTGlyph>
    <TTGlyph name="brevecy.sc" xMin="30" yMin="693" xMax="248" yMax="766">
      <contour>
        <pt x="96" y="693" on="0"/>
        <pt x="37" y="730" on="0"/>
        <pt x="30" y="762" on="1"/>
        <pt x="47" y="766" on="1"/>
        <pt x="56" y="741" on="0"/>
        <pt x="103" y="715" on="0"/>
        <pt x="139" y="715" on="1"/>
        <pt x="176" y="715" on="0"/>
        <pt x="223" y="741" on="0"/>
        <pt x="231" y="766" on="1"/>
        <pt x="248" y="762" on="1"/>
        <pt x="241" y="730" on="0"/>
        <pt x="183" y="693" on="0"/>
        <pt x="139" y="693" on="1"/>
      </contour>
    </TTGlyph>
    <TTGlyph name="brokenbar" xMin="194" yMin="-99" xMax="218" yMax="802">
      <contour>
        <pt x="218" y="443" on="1"/>
        <pt x="194" y="443" on="1"/>
        <pt x="194" y="802" on="1"/>
        <pt x="218" y="802" on="1"/>
      </contour>
      <contour>
        <pt x="218" y="-99" on="1"/>
        <pt x="194" y="-99" on="1"/>
        <pt x="194" y="262" on="1"/>
        <pt x="218" y="262" on="1"/>
      </contour>
    </TTGlyph>
    <TTGlyph name="bullet" xMin="89" yMin="315" xMax="160" yMax="385">
      <contour>
        <pt x="141" y="385" on="0"/>
        <pt x="160" y="365" on="0"/>
        <pt x="160" y="350" on="1"/>
        <pt x="160" y="335" on="0"/>
        <pt x="141" y="315" on="0"/>
        <pt x="125" y="315" on="1"/>
        <pt x="109" y="315" on="0"/>
        <pt x="89" y="335" on="0"/>
        <pt x="89" y="350" on="1"/>
        <pt x="89" y="365" on="0"/>
        <pt x="109" y="385" on="0"/>
        <pt x="125" y="385" on="1"/>
      </contour>
    </TTGlyph>
    <TTGlyph name="c" xMin="72" yMin="-10" xMax="424" yMax="529">
      <contour>
        <pt x="325" y="529" on="0"/>
        <pt x="389" y="505" on="0"/>
        <pt x="419" y="479" on="1"/>
        <pt x="405" y="463" on="1"/>
        <pt x="380" y="485" on="0"/>
        <pt x="321" y="507" on="0"/>
        <pt x="284" y="507" on="1"/>
        <pt x="200" y="507" on="0"/>
        <pt x="98" y="376" on="0"/>
        <pt x="98" y="257" on="1"/>
        <pt x="98" y="140" on="0"/>
        <pt x="200" y="13" on="0"/>
        <pt x="283" y="13" on="1"/>
        <pt x="357" y="13" on="0"/>
        <pt x="410" y="61" on="1"/>
        <pt x="424" y="44" on="1"/>
        <pt x="365" y="-10" on="0"/>
        <pt x="285" y="-10" on="1"/>
        <pt x="222" y="-10" on="0"/>
        <pt x="125" y="53" on="0"/>
        <pt x="72" y="174" on="0"/>
        <pt x="72" y="257" on="1"/>
        <pt x="72" y="340" on="0"/>
        <pt x="124" y="463" on="0"/>
        <pt x="220" y="529" on="0"/>
        <pt x="284" y="529" on="1"/>
      </contour>
    </TTGlyph>
    <TTGlyph name="c.sc" xMin="77" yMin="-8" xMax="456" yMax="567">
      <contour>
        <pt x="355" y="567" on="0"/>
        <pt x="420" y="543" on="0"/>
        <pt x="450" y="519" on="1"/>
        <pt x="436" y="502" on="1"/>
        <pt x="405" y="525" on="0"/>
        <pt x="350" y="545" on="0"/>
        <pt x="310" y="545" on="1"/>
        <pt x="218" y="545" on="0"/>
        <pt x="102" y="412" on="0"/>
        <pt x="102" y="280" on="1"/>
        <pt x="102" y="194" on="0"/>
        <pt x="156" y="75" on="0"/>
        <pt x="249" y="15" on="0"/>
        <pt x="308" y="15" on="1"/>
        <pt x="353" y="15" on="0"/>
        <pt x="413" y="39" on="0"/>
        <pt x="442" y="63" on="1"/>
        <pt x="456" y="45" on="1"/>
        <pt x="396" y="-8" on="0"/>
        <pt x="307" y="-8" on="1"/>
        <pt x="241" y="-8" on="0"/>
        <pt x="136" y="59" on="0"/>
        <pt x="77" y="188" on="0"/>
        <pt x="77" y="280" on="1"/>
        <pt x="77" y="373" on="0"/>
        <pt x="138" y="503" on="0"/>
        <pt x="243" y="567" on="0"/>
        <pt x="309" y="567" on="1"/>
      </contour>
    </TTGlyph>
    <TTGlyph name="cacute" xMin="72" yMin="-10" xMax="424" yMax="763">
      <component glyphName="c" x="0" y="0" flags="0x0"/>
      <component glyphName="acutecomb" x="395" y="0" flags="0x0"/>
    </TTGlyph>
    <TTGlyph name="cacute.loclPLK" xMin="72" yMin="-10" xMax="424" yMax="745">
      <component glyphName="c" x="0" y="0" flags="0x0"/>
      <component glyphName="acute.loclPLK" x="162" y="0" flags="0x0"/>
    </TTGlyph>
    <TTGlyph name="cacute.sc" xMin="77" yMin="-8" xMax="456" yMax="793">
      <component glyphName="c.sc" x="0" y="0" flags="0x0"/>
      <component glyphName="acutecomb.sc" x="188" y="0" flags="0x0"/>
    </TTGlyph>
    <TTGlyph name="cacute.sc.loclPLK" xMin="77" yMin="-8" xMax="456" yMax="785">
      <component glyphName="c.sc" x="0" y="0" flags="0x0"/>
      <component glyphName="acute.sc.loclPLK" x="193" y="0" flags="0x0"/>
    </TTGlyph>
    <TTGlyph name="caron" xMin="30" yMin="640" xMax="285" yMax="751">
      <contour>
        <pt x="285" y="737" on="1"/>
        <pt x="164" y="640" on="1"/>
        <pt x="151" y="640" on="1"/>
        <pt x="30" y="737" on="1"/>
        <pt x="42" y="751" on="1"/>
        <pt x="158" y="667" on="1"/>
        <pt x="273" y="751" on="1"/>
      </contour>
    </TTGlyph>
    <TTGlyph name="caron.alt" xMin="64" yMin="537" xMax="108" yMax="685">
      <contour>
        <pt x="108" y="681" on="1"/>
        <pt x="81" y="537" on="1"/>
        <pt x="64" y="539" on="1"/>
        <pt x="82" y="685" on="1"/>
      </contour>
    </TTGlyph>
    <TTGlyph name="caron.case" xMin="30" yMin="760" xMax="285" yMax="865">
      <contour>
        <pt x="285" y="850" on="1"/>
        <pt x="164" y="760" on="1"/>
        <pt x="151" y="760" on="1"/>
        <pt x="30" y="850" on="1"/>
        <pt x="42" y="865" on="1"/>
        <pt x="158" y="786" on="1"/>
        <pt x="273" y="865" on="1"/>
      </contour>
    </TTGlyph>
    <TTGlyph name="caron.sc" xMin="30" yMin="670" xMax="285" yMax="781">
      <component glyphName="uni030C" x="315" y="30" flags="0x0"/>
    </TTGlyph>
    <TTGlyph name="ccaron" xMin="72" yMin="-10" xMax="424" yMax="751">
      <component glyphName="c" x="0" y="0" flags="0x0"/>
      <component glyphName="uni030C" x="437" y="0" flags="0x0"/>
    </TTGlyph>
    <TTGlyph name="ccaron.sc" xMin="77" yMin="-8" xMax="456" yMax="781">
      <component glyphName="c.sc" x="0" y="0" flags="0x0"/>
      <component glyphName="uni030C.sc" x="153" y="0" flags="0x0"/>
    </TTGlyph>
    <TTGlyph name="ccedilla" xMin="72" yMin="-213" xMax="424" yMax="529">
      <contour>
        <pt x="378" y="-79" on="0"/>
        <pt x="378" y="-140" on="1"/>
        <pt x="378" y="-174" on="0"/>
        <pt x="329" y="-213" on="0"/>
        <pt x="293" y="-213" on="1"/>
        <pt x="255" y="-213" on="0"/>
        <pt x="224" y="-195" on="1"/>
        <pt x="234" y="-176" on="1"/>
        <pt x="257" y="-191" on="0"/>
        <pt x="293" y="-191" on="1"/>
        <pt x="319" y="-191" on="0"/>
        <pt x="353" y="-166" on="0"/>
        <pt x="353" y="-140" on="1"/>
        <pt x="353" y="-115" on="0"/>
        <pt x="311" y="-92" on="0"/>
        <pt x="264" y="-91" on="1"/>
        <pt x="270" y="-9" on="1"/>
        <pt x="180" y="-4" on="0"/>
        <pt x="72" y="137" on="0"/>
        <pt x="72" y="257" on="1"/>
        <pt x="72" y="340" on="0"/>
        <pt x="124" y="463" on="0"/>
        <pt x="220" y="529" on="0"/>
        <pt x="284" y="529" on="1"/>
        <pt x="325" y="529" on="0"/>
        <pt x="389" y="505" on="0"/>
        <pt x="419" y="479" on="1"/>
        <pt x="405" y="463" on="1"/>
        <pt x="380" y="485" on="0"/>
        <pt x="321" y="507" on="0"/>
        <pt x="284" y="507" on="1"/>
        <pt x="200" y="507" on="0"/>
        <pt x="98" y="376" on="0"/>
        <pt x="98" y="257" on="1"/>
        <pt x="98" y="140" on="0"/>
        <pt x="200" y="13" on="0"/>
        <pt x="283" y="13" on="1"/>
        <pt x="357" y="13" on="0"/>
        <pt x="410" y="61" on="1"/>
        <pt x="424" y="44" on="1"/>
        <pt x="366" y="-9" on="0"/>
        <pt x="288" y="-10" on="1"/>
        <pt x="287" y="-73" on="1"/>
      </contour>
    </TTGlyph>
    <TTGlyph name="ccedilla.sc" xMin="77" yMin="-213" xMax="456" yMax="567">
      <contour>
        <pt x="399" y="-79" on="0"/>
        <pt x="399" y="-140" on="1"/>
        <pt x="399" y="-174" on="0"/>
        <pt x="350" y="-213" on="0"/>
        <pt x="314" y="-213" on="1"/>
        <pt x="276" y="-213" on="0"/>
        <pt x="245" y="-195" on="1"/>
        <pt x="255" y="-176" on="1"/>
        <pt x="278" y="-191" on="0"/>
        <pt x="314" y="-191" on="1"/>
        <pt x="340" y="-191" on="0"/>
        <pt x="374" y="-166" on="0"/>
        <pt x="374" y="-140" on="1"/>
        <pt x="374" y="-115" on="0"/>
        <pt x="332" y="-92" on="0"/>
        <pt x="285" y="-91" on="1"/>
        <pt x="291" y="-7" on="1"/>
        <pt x="229" y="-3" on="0"/>
        <pt x="132" y="66" on="0"/>
        <pt x="77" y="192" on="0"/>
        <pt x="77" y="280" on="1"/>
        <pt x="77" y="373" on="0"/>
        <pt x="138" y="503" on="0"/>
        <pt x="243" y="567" on="0"/>
        <pt x="309" y="567" on="1"/>
        <pt x="355" y="567" on="0"/>
        <pt x="420" y="543" on="0"/>
        <pt x="450" y="519" on="1"/>
        <pt x="436" y="502" on="1"/>
        <pt x="405" y="525" on="0"/>
        <pt x="350" y="545" on="0"/>
        <pt x="310" y="545" on="1"/>
        <pt x="218" y="545" on="0"/>
        <pt x="102" y="412" on="0"/>
        <pt x="102" y="280" on="1"/>
        <pt x="102" y="194" on="0"/>
        <pt x="156" y="75" on="0"/>
        <pt x="249" y="15" on="0"/>
        <pt x="308" y="15" on="1"/>
        <pt x="353" y="15" on="0"/>
        <pt x="413" y="39" on="0"/>
        <pt x="442" y="63" on="1"/>
        <pt x="456" y="45" on="1"/>
        <pt x="427" y="20" on="0"/>
        <pt x="357" y="-7" on="0"/>
        <pt x="309" y="-8" on="1"/>
        <pt x="308" y="-73" on="1"/>
      </contour>
    </TTGlyph>
    <TTGlyph name="ccircumflex" xMin="72" yMin="-10" xMax="424" yMax="764">
      <component glyphName="c" x="0" y="0" flags="0x0"/>
      <component glyphName="uni0302" x="436" y="0" flags="0x0"/>
    </TTGlyph>
    <TTGlyph name="ccircumflex.sc" xMin="77" yMin="-8" xMax="456" yMax="794">
      <component glyphName="c.sc" x="0" y="0" flags="0x0"/>
      <component glyphName="uni0302.sc" x="153" y="0" flags="0x0"/>
    </TTGlyph>
    <TTGlyph name="cdotaccent" xMin="72" yMin="-10" xMax="424" yMax="726">
      <component glyphName="c" x="0" y="0" flags="0x0"/>
      <component glyphName="uni0307" x="330" y="0" flags="0x0"/>
    </TTGlyph>
    <TTGlyph name="cdotaccent.sc" xMin="77" yMin="-8" xMax="456" yMax="756">
      <component glyphName="c.sc" x="0" y="0" flags="0x0"/>
      <component glyphName="uni0307.sc" x="259" y="0" flags="0x0"/>
    </TTGlyph>
    <TTGlyph name="cedilla" xMin="30" yMin="-213" xMax="184" yMax="11">
      <contour>
        <pt x="93" y="-73" on="1"/>
        <pt x="184" y="-79" on="0"/>
        <pt x="184" y="-140" on="1"/>
        <pt x="184" y="-174" on="0"/>
        <pt x="135" y="-213" on="0"/>
        <pt x="99" y="-213" on="1"/>
        <pt x="61" y="-213" on="0"/>
        <pt x="30" y="-195" on="1"/>
        <pt x="40" y="-176" on="1"/>
        <pt x="63" y="-191" on="0"/>
        <pt x="99" y="-191" on="1"/>
        <pt x="125" y="-191" on="0"/>
        <pt x="159" y="-166" on="0"/>
        <pt x="159" y="-140" on="1"/>
        <pt x="159" y="-115" on="0"/>
        <pt x="117" y="-92" on="0"/>
        <pt x="70" y="-91" on="1"/>
        <pt x="77" y="11" on="1"/>
        <pt x="94" y="11" on="1"/>
      </contour>
    </TTGlyph>
    <TTGlyph name="cedilla.case" xMin="30" yMin="-213" xMax="184" yMax="11">
      <component glyphName="uni0327" x="214" y="0" flags="0x0"/>
    </TTGlyph>
    <TTGlyph name="cedilla.sc" xMin="30" yMin="-213" xMax="184" yMax="11">
      <component glyphName="uni0327" x="214" y="0" flags="0x0"/>
    </TTGlyph>
    <TTGlyph name="cent" xMin="102" yMin="-146" xMax="454" yMax="676">
      <contour>
        <pt x="398" y="-7" on="0"/>
        <pt x="321" y="-10" on="1"/>
        <pt x="321" y="-146" on="1"/>
        <pt x="300" y="-146" on="1"/>
        <pt x="300" y="-10" on="1"/>
        <pt x="210" y="-5" on="0"/>
        <pt x="102" y="136" on="0"/>
        <pt x="102" y="257" on="1"/>
        <pt x="102" y="379" on="0"/>
        <pt x="210" y="524" on="0"/>
        <pt x="302" y="529" on="1"/>
        <pt x="302" y="676" on="1"/>
        <pt x="323" y="676" on="1"/>
        <pt x="323" y="529" on="1"/>
        <pt x="360" y="528" on="0"/>
        <pt x="419" y="504" on="0"/>
        <pt x="448" y="479" on="1"/>
        <pt x="434" y="463" on="1"/>
        <pt x="409" y="485" on="0"/>
        <pt x="352" y="507" on="0"/>
        <pt x="314" y="507" on="1"/>
        <pt x="230" y="507" on="0"/>
        <pt x="127" y="376" on="0"/>
        <pt x="127" y="257" on="1"/>
        <pt x="127" y="140" on="0"/>
        <pt x="230" y="13" on="0"/>
        <pt x="313" y="13" on="1"/>
        <pt x="386" y="13" on="0"/>
        <pt x="439" y="61" on="1"/>
        <pt x="454" y="44" on="1"/>
      </contour>
    </TTGlyph>
    <TTGlyph name="cent.lf" xMin="72" yMin="-146" xMax="424" yMax="676">
      <contour>
        <pt x="368" y="-7" on="0"/>
        <pt x="292" y="-10" on="1"/>
        <pt x="292" y="-146" on="1"/>
        <pt x="270" y="-146" on="1"/>
        <pt x="270" y="-9" on="1"/>
        <pt x="180" y="-4" on="0"/>
        <pt x="72" y="136" on="0"/>
        <pt x="72" y="257" on="1"/>
        <pt x="72" y="379" on="0"/>
        <pt x="180" y="524" on="0"/>
        <pt x="272" y="529" on="1"/>
        <pt x="272" y="676" on="1"/>
        <pt x="293" y="676" on="1"/>
        <pt x="293" y="529" on="1"/>
        <pt x="331" y="528" on="0"/>
        <pt x="390" y="504" on="0"/>
        <pt x="419" y="479" on="1"/>
        <pt x="405" y="463" on="1"/>
        <pt x="380" y="485" on="0"/>
        <pt x="321" y="507" on="0"/>
        <pt x="284" y="507" on="1"/>
        <pt x="200" y="507" on="0"/>
        <pt x="98" y="376" on="0"/>
        <pt x="98" y="257" on="1"/>
        <pt x="98" y="140" on="0"/>
        <pt x="200" y="13" on="0"/>
        <pt x="283" y="13" on="1"/>
        <pt x="357" y="13" on="0"/>
        <pt x="410" y="61" on="1"/>
        <pt x="424" y="44" on="1"/>
      </contour>
    </TTGlyph>
    <TTGlyph name="cent.osf" xMin="72" yMin="-146" xMax="424" yMax="676">
      <component glyphName="cent.lf" x="0" y="0" flags="0x0"/>
    </TTGlyph>
    <TTGlyph name="cent.tosf" xMin="98" yMin="-146" xMax="450" yMax="676">
      <component glyphName="cent" x="-4" y="0" flags="0x0"/>
    </TTGlyph>
    <TTGlyph name="chi" xMin="11" yMin="-195" xMax="404" yMax="525">
      <contour>
        <pt x="404" y="-188" on="1"/>
        <pt x="381" y="-195" on="1"/>
        <pt x="210" y="161" on="1"/>
        <pt x="39" y="-194" on="1"/>
        <pt x="14" y="-191" on="1"/>
        <pt x="198" y="183" on="1"/>
        <pt x="138" y="323" on="0"/>
        <pt x="57" y="464" on="0"/>
        <pt x="11" y="516" on="1"/>
        <pt x="34" y="525" on="1"/>
        <pt x="79" y="472" on="0"/>
        <pt x="156" y="336" on="0"/>
        <pt x="210" y="203" on="1"/>
        <pt x="357" y="522" on="1"/>
        <pt x="382" y="519" on="1"/>
        <pt x="222" y="182" on="1"/>
      </contour>
    </TTGlyph>
    <TTGlyph name="chi.sc" xMin="16" yMin="0" xMax="414" yMax="559">
      <component glyphName="x.sc" x="0" y="0" flags="0x0"/>
    </TTGlyph>
    <TTGlyph name="circumflex" xMin="30" yMin="653" xMax="285" yMax="764">
      <contour>
        <pt x="30" y="667" on="1"/>
        <pt x="151" y="764" on="1"/>
        <pt x="164" y="764" on="1"/>
        <pt x="285" y="667" on="1"/>
        <pt x="273" y="653" on="1"/>
        <pt x="157" y="738" on="1"/>
        <pt x="42" y="653" on="1"/>
      </contour>
    </TTGlyph>
    <TTGlyph name="circumflex.case" xMin="30" yMin="766" xMax="285" yMax="871">
      <contour>
        <pt x="158" y="845" on="1"/>
        <pt x="42" y="766" on="1"/>
        <pt x="30" y="780" on="1"/>
        <pt x="151" y="871" on="1"/>
        <pt x="164" y="871" on="1"/>
        <pt x="285" y="780" on="1"/>
        <pt x="273" y="766" on="1"/>
      </contour>
    </TTGlyph>
    <TTGlyph name="circumflex.sc" xMin="30" yMin="683" xMax="285" yMax="794">
      <component glyphName="uni0302" x="315" y="30" flags="0x0"/>
    </TTGlyph>
    <TTGlyph name="colon" xMin="59" yMin="-9" xMax="109" yMax="41">
      <component glyphName="period" x="0" y="0" flags="0x0"/>
      <component glyphName="period" x="0" y="413" flags="0x0"/>
    </TTGlyph>
    <TTGlyph name="comma" xMin="35" yMin="-133" xMax="109" yMax="41">
      <contour>
        <pt x="95" y="41" on="0"/>
        <pt x="109" y="27" on="0"/>
        <pt x="109" y="16" on="1"/>
        <pt x="109" y="7" on="0"/>
        <pt x="100" y="-16" on="0"/>
        <pt x="99" y="-19" on="1"/>
        <pt x="54" y="-133" on="1"/>
        <pt x="35" y="-133" on="1"/>
        <pt x="74" y="-6" on="1"/>
        <pt x="59" y="-2" on="0"/>
        <pt x="59" y="16" on="1"/>
        <pt x="59" y="27" on="0"/>
        <pt x="73" y="41" on="0"/>
        <pt x="84" y="41" on="1"/>
      </contour>
    </TTGlyph>
    <TTGlyph name="copyright" xMin="125" yMin="147" xMax="685" yMax="723">
      <contour>
        <pt x="484" y="723" on="0"/>
        <pt x="612" y="650" on="0"/>
        <pt x="685" y="519" on="0"/>
        <pt x="685" y="435" on="1"/>
        <pt x="685" y="352" on="0"/>
        <pt x="612" y="221" on="0"/>
        <pt x="484" y="147" on="0"/>
        <pt x="405" y="147" on="1"/>
        <pt x="326" y="147" on="0"/>
        <pt x="198" y="220" on="0"/>
        <pt x="125" y="351" on="0"/>
        <pt x="125" y="435" on="1"/>
        <pt x="125" y="518" on="0"/>
        <pt x="198" y="649" on="0"/>
        <pt x="326" y="723" on="0"/>
        <pt x="405" y="723" on="1"/>
      </contour>
      <contour>
        <pt x="332" y="700" on="0"/>
        <pt x="216" y="633" on="0"/>
        <pt x="150" y="512" on="0"/>
        <pt x="150" y="435" on="1"/>
        <pt x="150" y="357" on="0"/>
        <pt x="216" y="236" on="0"/>
        <pt x="332" y="170" on="0"/>
        <pt x="406" y="170" on="1"/>
        <pt x="479" y="170" on="0"/>
        <pt x="595" y="237" on="0"/>
        <pt x="660" y="358" on="0"/>
        <pt x="660" y="435" on="1"/>
        <pt x="660" y="513" on="0"/>
        <pt x="595" y="634" on="0"/>
        <pt x="479" y="700" on="0"/>
        <pt x="406" y="700" on="1"/>
      </contour>
      <contour>
        <pt x="455" y="607" on="0"/>
        <pt x="492" y="578" on="1"/>
        <pt x="480" y="561" on="1"/>
        <pt x="463" y="573" on="0"/>
        <pt x="430" y="584" on="0"/>
        <pt x="406" y="584" on="1"/>
        <pt x="364" y="584" on="0"/>
        <pt x="296" y="514" on="0"/>
        <pt x="296" y="437" on="1"/>
        <pt x="296" y="364" on="0"/>
        <pt x="358" y="286" on="0"/>
        <pt x="407" y="286" on="1"/>
        <pt x="433" y="286" on="0"/>
        <pt x="470" y="301" on="0"/>
        <pt x="490" y="315" on="1"/>
        <pt x="501" y="297" on="1"/>
        <pt x="458" y="264" on="0"/>
        <pt x="406" y="264" on="1"/>
        <pt x="347" y="264" on="0"/>
        <pt x="272" y="359" on="0"/>
        <pt x="272" y="437" on="1"/>
        <pt x="272" y="493" on="0"/>
        <pt x="312" y="570" on="0"/>
        <pt x="374" y="607" on="0"/>
        <pt x="406" y="607" on="1"/>
      </contour>
    </TTGlyph>
    <TTGlyph name="currency" xMin="69" yMin="118" xMax="487" yMax="561">
      <component glyphName="currency.lf" x="-2" y="0" flags="0x0"/>
    </TTGlyph>
    <TTGlyph name="currency.lf" xMin="71" yMin="118" xMax="489" yMax="561">
      <contour>
        <pt x="454" y="264" on="0"/>
        <pt x="408" y="213" on="1"/>
        <pt x="489" y="134" on="1"/>
        <pt x="473" y="118" on="1"/>
        <pt x="392" y="197" on="1"/>
        <pt x="345" y="160" on="0"/>
        <pt x="281" y="160" on="1"/>
        <pt x="215" y="160" on="0"/>
        <pt x="169" y="198" on="1"/>
        <pt x="87" y="118" on="1"/>
        <pt x="71" y="134" on="1"/>
        <pt x="152" y="214" on="1"/>
        <pt x="130" y="238" on="0"/>
        <pt x="107" y="304" on="0"/>
        <pt x="107" y="341" on="1"/>
        <pt x="107" y="377" on="0"/>
        <pt x="130" y="441" on="0"/>
        <pt x="151" y="465" on="1"/>
        <pt x="71" y="545" on="1"/>
        <pt x="87" y="561" on="1"/>
        <pt x="167" y="481" on="1"/>
        <pt x="213" y="521" on="0"/>
        <pt x="281" y="521" on="1"/>
        <pt x="347" y="521" on="0"/>
        <pt x="394" y="482" on="1"/>
        <pt x="473" y="561" on="1"/>
        <pt x="489" y="545" on="1"/>
        <pt x="410" y="466" on="1"/>
        <pt x="431" y="442" on="0"/>
        <pt x="454" y="377" on="0"/>
        <pt x="454" y="341" on="1"/>
      </contour>
      <contour>
        <pt x="131" y="269" on="0"/>
        <pt x="211" y="181" on="0"/>
        <pt x="281" y="181" on="1"/>
        <pt x="352" y="181" on="0"/>
        <pt x="430" y="269" on="0"/>
        <pt x="430" y="340" on="1"/>
        <pt x="430" y="411" on="0"/>
        <pt x="352" y="499" on="0"/>
        <pt x="281" y="499" on="1"/>
        <pt x="210" y="499" on="0"/>
        <pt x="131" y="411" on="0"/>
        <pt x="131" y="340" on="1"/>
      </contour>
    </TTGlyph>
    <TTGlyph name="currency.osf" xMin="71" yMin="118" xMax="489" yMax="561">
      <component glyphName="currency.lf" x="0" y="0" flags="0x0"/>
    </TTGlyph>
    <TTGlyph name="currency.tosf" xMin="71" yMin="118" xMax="489" yMax="561">
      <component glyphName="currency.lf" x="0" y="0" flags="0x0"/>
    </TTGlyph>
    <TTGlyph name="d" xMin="77" yMin="-10" xMax="457" yMax="736">
      <contour>
        <pt x="457" y="733" on="1"/>
        <pt x="457" y="0" on="1"/>
        <pt x="436" y="0" on="1"/>
        <pt x="433" y="89" on="1"/>
        <pt x="380" y="-10" on="0"/>
        <pt x="269" y="-10" on="1"/>
        <pt x="212" y="-10" on="0"/>
        <pt x="125" y="54" on="0"/>
        <pt x="77" y="175" on="0"/>
        <pt x="77" y="258" on="1"/>
        <pt x="77" y="339" on="0"/>
        <pt x="125" y="461" on="0"/>
        <pt x="217" y="529" on="0"/>
        <pt x="279" y="529" on="1"/>
        <pt x="334" y="529" on="0"/>
        <pt x="410" y="483" on="0"/>
        <pt x="433" y="448" on="1"/>
        <pt x="433" y="736" on="1"/>
      </contour>
      <contour>
        <pt x="328" y="13" on="0"/>
        <pt x="404" y="69" on="0"/>
        <pt x="433" y="125" on="1"/>
        <pt x="433" y="416" on="1"/>
        <pt x="378" y="507" on="0"/>
        <pt x="280" y="507" on="1"/>
        <pt x="228" y="507" on="0"/>
        <pt x="147" y="448" on="0"/>
        <pt x="102" y="336" on="0"/>
        <pt x="102" y="261" on="1"/>
        <pt x="102" y="144" on="0"/>
        <pt x="192" y="13" on="0"/>
        <pt x="270" y="13" on="1"/>
      </contour>
    </TTGlyph>
    <TTGlyph name="d.sc" xMin="122" yMin="0" xMax="489" yMax="559">
      <contour>
        <pt x="346" y="559" on="0"/>
        <pt x="489" y="441" on="0"/>
        <pt x="489" y="285" on="1"/>
        <pt x="489" y="126" on="0"/>
        <pt x="342" y="0" on="0"/>
        <pt x="235" y="0" on="1"/>
        <pt x="122" y="0" on="1"/>
        <pt x="122" y="559" on="1"/>
        <pt x="232" y="559" on="1"/>
      </contour>
      <contour>
        <pt x="146" y="537" on="1"/>
        <pt x="146" y="22" on="1"/>
        <pt x="236" y="22" on="1"/>
        <pt x="334" y="22" on="0"/>
        <pt x="464" y="139" on="0"/>
        <pt x="464" y="285" on="1"/>
        <pt x="464" y="433" on="0"/>
        <pt x="334" y="537" on="0"/>
        <pt x="230" y="537" on="1"/>
      </contour>
    </TTGlyph>
    <TTGlyph name="dagger" xMin="78" yMin="0" xMax="479" yMax="682">
      <contour>
        <pt x="291" y="521" on="1"/>
        <pt x="479" y="521" on="1"/>
        <pt x="479" y="498" on="1"/>
        <pt x="291" y="498" on="1"/>
        <pt x="291" y="0" on="1"/>
        <pt x="266" y="0" on="1"/>
        <pt x="266" y="498" on="1"/>
        <pt x="78" y="498" on="1"/>
        <pt x="78" y="521" on="1"/>
        <pt x="266" y="521" on="1"/>
        <pt x="266" y="682" on="1"/>
        <pt x="291" y="682" on="1"/>
      </contour>
    </TTGlyph>
    <TTGlyph name="dagger.lf" xMin="61" yMin="0" xMax="441" yMax="662">
      <contour>
        <pt x="263" y="501" on="1"/>
        <pt x="441" y="501" on="1"/>
        <pt x="441" y="478" on="1"/>
        <pt x="263" y="478" on="1"/>
        <pt x="263" y="0" on="1"/>
        <pt x="238" y="0" on="1"/>
        <pt x="238" y="478" on="1"/>
        <pt x="61" y="478" on="1"/>
        <pt x="61" y="501" on="1"/>
        <pt x="238" y="501" on="1"/>
        <pt x="238" y="662" on="1"/>
        <pt x="263" y="662" on="1"/>
      </contour>
    </TTGlyph>
    <TTGlyph name="dagger.osf" xMin="61" yMin="0" xMax="441" yMax="662">
      <component glyphName="dagger.lf" x="0" y="0" flags="0x0"/>
    </TTGlyph>
    <TTGlyph name="dagger.tosf" xMin="91" yMin="0" xMax="471" yMax="662">
      <component glyphName="dagger.lf" x="30" y="0" flags="0x0"/>
    </TTGlyph>
    <TTGlyph name="daggerdbl" xMin="76" yMin="0" xMax="479" yMax="682">
      <contour>
        <pt x="479" y="213" on="1"/>
        <pt x="289" y="213" on="1"/>
        <pt x="289" y="0" on="1"/>
        <pt x="264" y="0" on="1"/>
        <pt x="264" y="213" on="1"/>
        <pt x="78" y="213" on="1"/>
        <pt x="78" y="235" on="1"/>
        <pt x="264" y="235" on="1"/>
        <pt x="264" y="498" on="1"/>
        <pt x="76" y="498" on="1"/>
        <pt x="76" y="521" on="1"/>
        <pt x="264" y="521" on="1"/>
        <pt x="264" y="682" on="1"/>
        <pt x="289" y="682" on="1"/>
        <pt x="289" y="521" on="1"/>
        <pt x="477" y="521" on="1"/>
        <pt x="477" y="498" on="1"/>
        <pt x="289" y="498" on="1"/>
        <pt x="289" y="235" on="1"/>
        <pt x="479" y="235" on="1"/>
      </contour>
    </TTGlyph>
    <TTGlyph name="daggerdbl.lf" xMin="61" yMin="0" xMax="445" yMax="662">
      <contour>
        <pt x="445" y="189" on="1"/>
        <pt x="265" y="189" on="1"/>
        <pt x="265" y="0" on="1"/>
        <pt x="240" y="0" on="1"/>
        <pt x="240" y="189" on="1"/>
        <pt x="61" y="189" on="1"/>
        <pt x="61" y="211" on="1"/>
        <pt x="240" y="211" on="1"/>
        <pt x="240" y="478" on="1"/>
        <pt x="62" y="478" on="1"/>
        <pt x="62" y="501" on="1"/>
        <pt x="240" y="501" on="1"/>
        <pt x="240" y="662" on="1"/>
        <pt x="265" y="662" on="1"/>
        <pt x="265" y="501" on="1"/>
        <pt x="442" y="501" on="1"/>
        <pt x="442" y="478" on="1"/>
        <pt x="265" y="478" on="1"/>
        <pt x="265" y="211" on="1"/>
        <pt x="445" y="211" on="1"/>
      </contour>
    </TTGlyph>
    <TTGlyph name="daggerdbl.osf" xMin="61" yMin="0" xMax="445" yMax="662">
      <component glyphName="daggerdbl.lf" x="0" y="0" flags="0x0"/>
    </TTGlyph>
    <TTGlyph name="daggerdbl.tosf" xMin="88" yMin="0" xMax="472" yMax="662">
      <component glyphName="daggerdbl.lf" x="27" y="0" flags="0x0"/>
    </TTGlyph>
    <TTGlyph name="dcaron" xMin="77" yMin="-10" xMax="575" yMax="736">
      <component glyphName="d" x="0" y="0" flags="0x0"/>
      <component glyphName="caron.alt" x="467" y="51" flags="0x0"/>
    </TTGlyph>
    <TTGlyph name="dcaron.sc" xMin="122" yMin="0" xMax="489" yMax="781">
      <component glyphName="d.sc" x="0" y="0" flags="0x0"/>
      <component glyphName="uni030C.sc" x="115" y="0" flags="0x0"/>
    </TTGlyph>
    <TTGlyph name="dcroat" xMin="77" yMin="-10" xMax="532" yMax="736">
      <contour>
        <pt x="532" y="649" on="1"/>
        <pt x="532" y="628" on="1"/>
        <pt x="457" y="628" on="1"/>
        <pt x="457" y="0" on="1"/>
        <pt x="436" y="0" on="1"/>
        <pt x="433" y="89" on="1"/>
        <pt x="380" y="-10" on="0"/>
        <pt x="269" y="-10" on="1"/>
        <pt x="212" y="-10" on="0"/>
        <pt x="125" y="54" on="0"/>
        <pt x="77" y="175" on="0"/>
        <pt x="77" y="258" on="1"/>
        <pt x="77" y="339" on="0"/>
        <pt x="125" y="461" on="0"/>
        <pt x="217" y="529" on="0"/>
        <pt x="279" y="529" on="1"/>
        <pt x="334" y="529" on="0"/>
        <pt x="410" y="483" on="0"/>
        <pt x="433" y="448" on="1"/>
        <pt x="433" y="628" on="1"/>
        <pt x="261" y="628" on="1"/>
        <pt x="261" y="649" on="1"/>
        <pt x="433" y="649" on="1"/>
        <pt x="433" y="736" on="1"/>
        <pt x="457" y="733" on="1"/>
        <pt x="457" y="649" on="1"/>
      </contour>
      <contour>
        <pt x="328" y="13" on="0"/>
        <pt x="404" y="69" on="0"/>
        <pt x="433" y="125" on="1"/>
        <pt x="433" y="416" on="1"/>
        <pt x="378" y="507" on="0"/>
        <pt x="280" y="507" on="1"/>
        <pt x="228" y="507" on="0"/>
        <pt x="147" y="448" on="0"/>
        <pt x="102" y="336" on="0"/>
        <pt x="102" y="261" on="1"/>
        <pt x="102" y="144" on="0"/>
        <pt x="192" y="13" on="0"/>
        <pt x="270" y="13" on="1"/>
      </contour>
    </TTGlyph>
    <TTGlyph name="dcroat.sc" xMin="67" yMin="0" xMax="488" yMax="559">
      <component glyphName="eth.sc" x="0" y="0" flags="0x0"/>
    </TTGlyph>
    <TTGlyph name="degree" xMin="101" yMin="430" xMax="374" yMax="712">
      <component glyphName="degree.lf" x="18" y="20" flags="0x0"/>
    </TTGlyph>
    <TTGlyph name="degree.lf" xMin="83" yMin="410" xMax="356" yMax="692">
      <contour>
        <pt x="183" y="410" on="0"/>
        <pt x="121" y="444" on="0"/>
        <pt x="83" y="509" on="0"/>
        <pt x="83" y="551" on="1"/>
        <pt x="83" y="592" on="0"/>
        <pt x="121" y="656" on="0"/>
        <pt x="183" y="692" on="0"/>
        <pt x="219" y="692" on="1"/>
        <pt x="279" y="692" on="0"/>
        <pt x="356" y="614" on="0"/>
        <pt x="356" y="550" on="1"/>
        <pt x="356" y="488" on="0"/>
        <pt x="279" y="410" on="0"/>
        <pt x="219" y="410" on="1"/>
      </contour>
      <contour>
        <pt x="271" y="432" on="0"/>
        <pt x="331" y="498" on="0"/>
        <pt x="331" y="550" on="1"/>
        <pt x="331" y="603" on="0"/>
        <pt x="271" y="669" on="0"/>
        <pt x="219" y="669" on="1"/>
        <pt x="171" y="669" on="0"/>
        <pt x="108" y="602" on="0"/>
        <pt x="108" y="551" on="1"/>
        <pt x="108" y="500" on="0"/>
        <pt x="172" y="432" on="0"/>
        <pt x="219" y="432" on="1"/>
      </contour>
    </TTGlyph>
    <TTGlyph name="degree.osf" xMin="83" yMin="410" xMax="356" yMax="692">
      <component glyphName="degree.lf" x="0" y="0" flags="0x0"/>
    </TTGlyph>
    <TTGlyph name="degree.tosf" xMin="103" yMin="410" xMax="376" yMax="692">
      <component glyphName="degree.lf" x="20" y="0" flags="0x0"/>
    </TTGlyph>
    <TTGlyph name="delta" xMin="72" yMin="-10" xMax="485" yMax="737">
      <contour>
        <pt x="362" y="461" on="0"/>
        <pt x="445" y="396" on="0"/>
        <pt x="485" y="303" on="0"/>
        <pt x="485" y="233" on="1"/>
        <pt x="485" y="114" on="0"/>
        <pt x="379" y="-10" on="0"/>
        <pt x="280" y="-10" on="1"/>
        <pt x="183" y="-10" on="0"/>
        <pt x="72" y="117" on="0"/>
        <pt x="72" y="235" on="1"/>
        <pt x="72" y="328" on="0"/>
        <pt x="162" y="452" on="0"/>
        <pt x="243" y="484" on="1"/>
        <pt x="180" y="510" on="0"/>
        <pt x="126" y="570" on="0"/>
        <pt x="126" y="616" on="1"/>
        <pt x="126" y="668" on="0"/>
        <pt x="212" y="737" on="0"/>
        <pt x="281" y="737" on="1"/>
        <pt x="325" y="737" on="0"/>
        <pt x="396" y="715" on="0"/>
        <pt x="431" y="692" on="1"/>
        <pt x="416" y="675" on="1"/>
        <pt x="383" y="696" on="0"/>
        <pt x="323" y="715" on="0"/>
        <pt x="283" y="715" on="1"/>
        <pt x="222" y="715" on="0"/>
        <pt x="151" y="659" on="0"/>
        <pt x="151" y="615" on="1"/>
        <pt x="151" y="586" on="0"/>
        <pt x="175" y="545" on="0"/>
        <pt x="235" y="509" on="0"/>
        <pt x="292" y="487" on="1"/>
      </contour>
      <contour>
        <pt x="460" y="13" on="0"/>
        <pt x="460" y="233" on="1"/>
        <pt x="460" y="299" on="0"/>
        <pt x="424" y="385" on="0"/>
        <pt x="342" y="446" on="0"/>
        <pt x="267" y="475" on="1"/>
        <pt x="190" y="446" on="0"/>
        <pt x="97" y="327" on="0"/>
        <pt x="97" y="235" on="1"/>
        <pt x="97" y="127" on="0"/>
        <pt x="194" y="13" on="0"/>
        <pt x="280" y="13" on="1"/>
      </contour>
    </TTGlyph>
    <TTGlyph name="delta.sc" xMin="27" yMin="0" xMax="473" yMax="559">
      <contour>
        <pt x="473" y="0" on="1"/>
        <pt x="27" y="0" on="1"/>
        <pt x="236" y="559" on="1"/>
        <pt x="265" y="559" on="1"/>
      </contour>
      <contour>
        <pt x="59" y="22" on="1"/>
        <pt x="441" y="22" on="1"/>
        <pt x="251" y="539" on="1"/>
      </contour>
    </TTGlyph>
    <TTGlyph name="dieresis" xMin="30" yMin="672" xMax="240" yMax="714">
      <contour>
        <pt x="61" y="714" on="0"/>
        <pt x="73" y="702" on="0"/>
        <pt x="73" y="693" on="1"/>
        <pt x="73" y="684" on="0"/>
        <pt x="61" y="672" on="0"/>
        <pt x="51" y="672" on="1"/>
        <pt x="41" y="672" on="0"/>
        <pt x="30" y="684" on="0"/>
        <pt x="30" y="693" on="1"/>
        <pt x="30" y="702" on="0"/>
        <pt x="41" y="714" on="0"/>
        <pt x="51" y="714" on="1"/>
      </contour>
      <contour>
        <pt x="228" y="714" on="0"/>
        <pt x="240" y="702" on="0"/>
        <pt x="240" y="693" on="1"/>
        <pt x="240" y="684" on="0"/>
        <pt x="228" y="672" on="0"/>
        <pt x="219" y="672" on="1"/>
        <pt x="209" y="672" on="0"/>
        <pt x="197" y="684" on="0"/>
        <pt x="197" y="693" on="1"/>
        <pt x="197" y="702" on="0"/>
        <pt x="209" y="714" on="0"/>
        <pt x="219" y="714" on="1"/>
      </contour>
    </TTGlyph>
    <TTGlyph name="dieresis.case" xMin="30" yMin="798" xMax="240" yMax="840">
      <component glyphName="uni0308" x="271" y="126" flags="0x0"/>
    </TTGlyph>
    <TTGlyph name="dieresis.sc" xMin="30" yMin="702" xMax="240" yMax="744">
      <component glyphName="uni0308" x="271" y="30" flags="0x0"/>
    </TTGlyph>
    <TTGlyph name="dieresistonos" xMin="30" yMin="642" xMax="240" yMax="822">
      <contour>
        <pt x="181" y="816" on="1"/>
        <pt x="142" y="701" on="1"/>
        <pt x="125" y="704" on="1"/>
        <pt x="154" y="822" on="1"/>
      </contour>
      <contour>
        <pt x="61" y="684" on="0"/>
        <pt x="73" y="672" on="0"/>
        <pt x="73" y="663" on="1"/>
        <pt x="73" y="654" on="0"/>
        <pt x="61" y="642" on="0"/>
        <pt x="51" y="642" on="1"/>
        <pt x="41" y="642" on="0"/>
        <pt x="30" y="654" on="0"/>
        <pt x="30" y="663" on="1"/>
        <pt x="30" y="672" on="0"/>
        <pt x="41" y="684" on="0"/>
        <pt x="51" y="684" on="1"/>
      </contour>
      <contour>
        <pt x="228" y="684" on="0"/>
        <pt x="240" y="672" on="0"/>
        <pt x="240" y="663" on="1"/>
        <pt x="240" y="654" on="0"/>
        <pt x="228" y="642" on="0"/>
        <pt x="219" y="642" on="1"/>
        <pt x="209" y="642" on="0"/>
        <pt x="197" y="654" on="0"/>
        <pt x="197" y="663" on="1"/>
        <pt x="197" y="672" on="0"/>
        <pt x="209" y="684" on="0"/>
        <pt x="219" y="684" on="1"/>
      </contour>
    </TTGlyph>
    <TTGlyph name="divide" xMin="112" yMin="97" xMax="444" yMax="342">
      <component glyphName="period" x="194" y="106" flags="0x0"/>
      <component glyphName="period" x="194" y="523" flags="0x0"/>
      <component glyphName="minus.lf" x="35" y="0" flags="0x0"/>
    </TTGlyph>
    <TTGlyph name="divide.lf" xMin="77" yMin="97" xMax="409" yMax="342">
      <component glyphName="period" x="159" y="106" flags="0x0"/>
      <component glyphName="period" x="159" y="523" flags="0x0"/>
      <component glyphName="minus.lf" x="0" y="0" flags="0x0"/>
    </TTGlyph>
    <TTGlyph name="divide.osf" xMin="77" yMin="97" xMax="409" yMax="342">
      <component glyphName="period" x="159" y="106" flags="0x0"/>
      <component glyphName="period" x="159" y="523" flags="0x0"/>
      <component glyphName="minus.lf" x="0" y="0" flags="0x0"/>
    </TTGlyph>
    <TTGlyph name="divide.tosf" xMin="114" yMin="97" xMax="446" yMax="342">
      <component glyphName="period" x="196" y="106" flags="0x0"/>
      <component glyphName="period" x="196" y="523" flags="0x0"/>
      <component glyphName="minus.lf" x="37" y="0" flags="0x0"/>
    </TTGlyph>
    <TTGlyph name="dollar" xMin="61" yMin="-146" xMax="470" yMax="835">
      <contour>
        <pt x="470" y="100" on="0"/>
        <pt x="366" y="-3" on="0"/>
        <pt x="282" y="-9" on="1"/>
        <pt x="282" y="-146" on="1"/>
        <pt x="260" y="-146" on="1"/>
        <pt x="260" y="-10" on="1"/>
        <pt x="198" y="-9" on="0"/>
        <pt x="102" y="32" on="0"/>
        <pt x="61" y="70" on="1"/>
        <pt x="76" y="87" on="1"/>
        <pt x="116" y="51" on="0"/>
        <pt x="203" y="13" on="0"/>
        <pt x="262" y="13" on="1"/>
        <pt x="345" y="13" on="0"/>
        <pt x="446" y="104" on="0"/>
        <pt x="446" y="179" on="1"/>
        <pt x="446" y="228" on="0"/>
        <pt x="411" y="290" on="0"/>
        <pt x="337" y="332" on="0"/>
        <pt x="271" y="353" on="1"/>
        <pt x="201" y="376" on="0"/>
        <pt x="121" y="422" on="0"/>
        <pt x="86" y="483" on="0"/>
        <pt x="86" y="528" on="1"/>
        <pt x="86" y="571" on="0"/>
        <pt x="130" y="642" on="0"/>
        <pt x="209" y="683" on="0"/>
        <pt x="261" y="684" on="1"/>
        <pt x="261" y="835" on="1"/>
        <pt x="283" y="835" on="1"/>
        <pt x="283" y="684" on="1"/>
        <pt x="336" y="682" on="0"/>
        <pt x="412" y="647" on="0"/>
        <pt x="449" y="615" on="1"/>
        <pt x="433" y="598" on="1"/>
        <pt x="396" y="631" on="0"/>
        <pt x="321" y="661" on="0"/>
        <pt x="268" y="661" on="1"/>
        <pt x="197" y="661" on="0"/>
        <pt x="111" y="587" on="0"/>
        <pt x="111" y="528" on="1"/>
        <pt x="111" y="487" on="0"/>
        <pt x="143" y="434" on="0"/>
        <pt x="215" y="395" on="0"/>
        <pt x="279" y="375" on="1"/>
        <pt x="349" y="353" on="0"/>
        <pt x="430" y="306" on="0"/>
        <pt x="470" y="235" on="0"/>
        <pt x="470" y="180" on="1"/>
      </contour>
    </TTGlyph>
    <TTGlyph name="dollar.lf" xMin="53" yMin="-146" xMax="454" yMax="812">
      <contour>
        <pt x="454" y="99" on="0"/>
        <pt x="352" y="-4" on="0"/>
        <pt x="269" y="-9" on="1"/>
        <pt x="269" y="-146" on="1"/>
        <pt x="247" y="-146" on="1"/>
        <pt x="247" y="-10" on="1"/>
        <pt x="187" y="-9" on="0"/>
        <pt x="94" y="31" on="0"/>
        <pt x="53" y="69" on="1"/>
        <pt x="68" y="85" on="1"/>
        <pt x="107" y="50" on="0"/>
        <pt x="192" y="13" on="0"/>
        <pt x="250" y="13" on="1"/>
        <pt x="331" y="13" on="0"/>
        <pt x="430" y="102" on="0"/>
        <pt x="430" y="176" on="1"/>
        <pt x="430" y="224" on="0"/>
        <pt x="396" y="284" on="0"/>
        <pt x="324" y="326" on="0"/>
        <pt x="259" y="346" on="1"/>
        <pt x="190" y="368" on="0"/>
        <pt x="113" y="413" on="0"/>
        <pt x="78" y="473" on="0"/>
        <pt x="78" y="517" on="1"/>
        <pt x="78" y="582" on="0"/>
        <pt x="172" y="668" on="0"/>
        <pt x="248" y="670" on="1"/>
        <pt x="248" y="812" on="1"/>
        <pt x="270" y="812" on="1"/>
        <pt x="270" y="670" on="1"/>
        <pt x="322" y="669" on="0"/>
        <pt x="396" y="635" on="0"/>
        <pt x="433" y="602" on="1"/>
        <pt x="418" y="585" on="1"/>
        <pt x="382" y="619" on="0"/>
        <pt x="308" y="648" on="0"/>
        <pt x="256" y="648" on="1"/>
        <pt x="187" y="648" on="0"/>
        <pt x="102" y="575" on="0"/>
        <pt x="102" y="517" on="1"/>
        <pt x="102" y="477" on="0"/>
        <pt x="134" y="425" on="0"/>
        <pt x="204" y="387" on="0"/>
        <pt x="267" y="368" on="1"/>
        <pt x="336" y="346" on="0"/>
        <pt x="415" y="299" on="0"/>
        <pt x="454" y="230" on="0"/>
        <pt x="454" y="177" on="1"/>
      </contour>
    </TTGlyph>
    <TTGlyph name="dollar.osf" xMin="53" yMin="-146" xMax="454" yMax="812">
      <component glyphName="dollar.lf" x="0" y="0" flags="0x0"/>
    </TTGlyph>
    <TTGlyph name="dollar.tosf" xMin="63" yMin="-146" xMax="465" yMax="817">
      <contour>
        <pt x="465" y="100" on="0"/>
        <pt x="365" y="-3" on="0"/>
        <pt x="282" y="-8" on="1"/>
        <pt x="282" y="-146" on="1"/>
        <pt x="260" y="-146" on="1"/>
        <pt x="260" y="-9" on="1"/>
        <pt x="151" y="-8" on="0"/>
        <pt x="63" y="72" on="1"/>
        <pt x="78" y="89" on="1"/>
        <pt x="120" y="52" on="0"/>
        <pt x="207" y="13" on="0"/>
        <pt x="262" y="13" on="1"/>
        <pt x="344" y="13" on="0"/>
        <pt x="441" y="104" on="0"/>
        <pt x="441" y="180" on="1"/>
        <pt x="441" y="228" on="0"/>
        <pt x="405" y="288" on="0"/>
        <pt x="331" y="329" on="0"/>
        <pt x="266" y="350" on="1"/>
        <pt x="200" y="372" on="0"/>
        <pt x="126" y="417" on="0"/>
        <pt x="92" y="475" on="0"/>
        <pt x="92" y="518" on="1"/>
        <pt x="92" y="582" on="0"/>
        <pt x="185" y="668" on="0"/>
        <pt x="262" y="671" on="1"/>
        <pt x="262" y="817" on="1"/>
        <pt x="283" y="817" on="1"/>
        <pt x="283" y="671" on="1"/>
        <pt x="337" y="670" on="0"/>
        <pt x="415" y="636" on="0"/>
        <pt x="450" y="604" on="1"/>
        <pt x="435" y="587" on="1"/>
        <pt x="401" y="619" on="0"/>
        <pt x="324" y="649" on="0"/>
        <pt x="272" y="649" on="1"/>
        <pt x="202" y="649" on="0"/>
        <pt x="117" y="576" on="0"/>
        <pt x="117" y="518" on="1"/>
        <pt x="117" y="479" on="0"/>
        <pt x="147" y="428" on="0"/>
        <pt x="214" y="390" on="0"/>
        <pt x="273" y="371" on="1"/>
        <pt x="341" y="349" on="0"/>
        <pt x="422" y="304" on="0"/>
        <pt x="465" y="234" on="0"/>
        <pt x="465" y="181" on="1"/>
      </contour>
    </TTGlyph>
    <TTGlyph name="dotaccent" xMin="30" yMin="684" xMax="73" yMax="726">
      <contour>
        <pt x="62" y="726" on="0"/>
        <pt x="73" y="714" on="0"/>
        <pt x="73" y="705" on="1"/>
        <pt x="73" y="696" on="0"/>
        <pt x="62" y="684" on="0"/>
        <pt x="52" y="684" on="1"/>
        <pt x="42" y="684" on="0"/>
        <pt x="30" y="696" on="0"/>
        <pt x="30" y="705" on="1"/>
        <pt x="30" y="714" on="0"/>
        <pt x="42" y="726" on="0"/>
        <pt x="52" y="726" on="1"/>
      </contour>
    </TTGlyph>
    <TTGlyph name="dotaccent.case" xMin="30" yMin="810" xMax="73" yMax="852">
      <component glyphName="uni0307" x="103" y="126" flags="0x0"/>
    </TTGlyph>
    <TTGlyph name="dotaccent.sc" xMin="30" yMin="714" xMax="73" yMax="756">
      <component glyphName="uni0307" x="103" y="30" flags="0x0"/>
    </TTGlyph>
    <TTGlyph name="dotbelowcomb" xMin="-73" yMin="-140" xMax="-30" yMax="-98">
      <contour>
        <pt x="-61" y="-140" on="0"/>
        <pt x="-73" y="-128" on="0"/>
        <pt x="-73" y="-119" on="1"/>
        <pt x="-73" y="-110" on="0"/>
        <pt x="-61" y="-98" on="0"/>
        <pt x="-51" y="-98" on="1"/>
        <pt x="-42" y="-98" on="0"/>
        <pt x="-30" y="-110" on="0"/>
        <pt x="-30" y="-119" on="1"/>
        <pt x="-30" y="-128" on="0"/>
        <pt x="-42" y="-140" on="0"/>
        <pt x="-51" y="-140" on="1"/>
      </contour>
    </TTGlyph>
    <TTGlyph name="dotlessi" xMin="117" yMin="0" xMax="141" yMax="519">
      <contour>
        <pt x="141" y="0" on="1"/>
        <pt x="117" y="0" on="1"/>
        <pt x="117" y="519" on="1"/>
        <pt x="141" y="519" on="1"/>
      </contour>
    </TTGlyph>
    <TTGlyph name="dotlessi.sc" xMin="122" yMin="0" xMax="146" yMax="559">
      <component glyphName="i.sc" x="0" y="0" flags="0x0"/>
    </TTGlyph>
    <TTGlyph name="dotmath" xMin="58" yMin="302" xMax="109" yMax="351">
      <component glyphName="periodcentered" x="0" y="0" flags="0x0"/>
    </TTGlyph>
    <TTGlyph name="e" xMin="72" yMin="-10" xMax="462" yMax="529">
      <contour>
        <pt x="462" y="266" on="0"/>
        <pt x="460" y="246" on="1"/>
        <pt x="97" y="246" on="1"/>
        <pt x="101" y="131" on="0"/>
        <pt x="200" y="13" on="0"/>
        <pt x="281" y="13" on="1"/>
        <pt x="325" y="13" on="0"/>
        <pt x="391" y="40" on="0"/>
        <pt x="427" y="69" on="1"/>
        <pt x="440" y="52" on="1"/>
        <pt x="403" y="21" on="0"/>
        <pt x="329" y="-10" on="0"/>
        <pt x="281" y="-10" on="1"/>
        <pt x="185" y="-10" on="0"/>
        <pt x="72" y="130" on="0"/>
        <pt x="72" y="255" on="1"/>
        <pt x="72" y="339" on="0"/>
        <pt x="121" y="463" on="0"/>
        <pt x="212" y="529" on="0"/>
        <pt x="272" y="529" on="1"/>
        <pt x="366" y="529" on="0"/>
        <pt x="462" y="397" on="0"/>
        <pt x="462" y="284" on="1"/>
      </contour>
      <contour>
        <pt x="438" y="274" on="0"/>
        <pt x="438" y="293" on="1"/>
        <pt x="438" y="390" on="0"/>
        <pt x="356" y="507" on="0"/>
        <pt x="274" y="507" on="1"/>
        <pt x="197" y="507" on="0"/>
        <pt x="99" y="385" on="0"/>
        <pt x="97" y="267" on="1"/>
        <pt x="437" y="267" on="1"/>
      </contour>
    </TTGlyph>
    <TTGlyph name="e.sc" xMin="122" yMin="0" xMax="409" yMax="559">
      <contour>
        <pt x="400" y="537" on="1"/>
        <pt x="146" y="537" on="1"/>
        <pt x="146" y="306" on="1"/>
        <pt x="365" y="306" on="1"/>
        <pt x="365" y="284" on="1"/>
        <pt x="146" y="284" on="1"/>
        <pt x="146" y="22" on="1"/>
        <pt x="409" y="22" on="1"/>
        <pt x="409" y="0" on="1"/>
        <pt x="122" y="0" on="1"/>
        <pt x="122" y="559" on="1"/>
        <pt x="403" y="559" on="1"/>
      </contour>
    </TTGlyph>
    <TTGlyph name="eacute" xMin="72" yMin="-10" xMax="462" yMax="763">
      <component glyphName="e" x="0" y="0" flags="0x0"/>
      <component glyphName="acutecomb" x="390" y="0" flags="0x0"/>
    </TTGlyph>
    <TTGlyph name="eacute.sc" xMin="122" yMin="0" xMax="409" yMax="793">
      <component glyphName="e.sc" x="0" y="0" flags="0x0"/>
      <component glyphName="acutecomb.sc" x="141" y="0" flags="0x0"/>
    </TTGlyph>
    <TTGlyph name="ebreve" xMin="72" yMin="-10" xMax="462" yMax="753">
      <component glyphName="e" x="0" y="0" flags="0x0"/>
      <component glyphName="uni0306" x="414" y="0" flags="0x0"/>
    </TTGlyph>
    <TTGlyph name="ebreve.sc" xMin="122" yMin="0" xMax="409" yMax="783">
      <component glyphName="e.sc" x="0" y="0" flags="0x0"/>
      <component glyphName="uni0306.sc" x="122" y="0" flags="0x0"/>
    </TTGlyph>
    <TTGlyph name="ecaron" xMin="72" yMin="-10" xMax="462" yMax="751">
      <component glyphName="e" x="0" y="0" flags="0x0"/>
      <component glyphName="uni030C" x="432" y="0" flags="0x0"/>
    </TTGlyph>
    <TTGlyph name="ecaron.sc" xMin="122" yMin="0" xMax="409" yMax="781">
      <component glyphName="e.sc" x="0" y="0" flags="0x0"/>
      <component glyphName="uni030C.sc" x="105" y="0" flags="0x0"/>
    </TTGlyph>
    <TTGlyph name="ecircumflex" xMin="72" yMin="-10" xMax="462" yMax="764">
      <component glyphName="e" x="0" y="0" flags="0x0"/>
      <component glyphName="uni0302" x="432" y="0" flags="0x0"/>
    </TTGlyph>
    <TTGlyph name="ecircumflex.sc" xMin="122" yMin="0" xMax="409" yMax="794">
      <component glyphName="e.sc" x="0" y="0" flags="0x0"/>
      <component glyphName="uni0302.sc" x="105" y="0" flags="0x0"/>
    </TTGlyph>
    <TTGlyph name="edieresis" xMin="72" yMin="-10" xMax="462" yMax="714">
      <component glyphName="e" x="0" y="0" flags="0x0"/>
      <component glyphName="uni0308" x="410" y="0" flags="0x0"/>
    </TTGlyph>
    <TTGlyph name="edieresis.sc" xMin="122" yMin="0" xMax="409" yMax="744">
      <component glyphName="e.sc" x="0" y="0" flags="0x0"/>
      <component glyphName="uni0308.sc" x="127" y="0" flags="0x0"/>
    </TTGlyph>
    <TTGlyph name="edotaccent" xMin="72" yMin="-10" xMax="462" yMax="726">
      <component glyphName="e" x="0" y="0" flags="0x0"/>
      <component glyphName="uni0307" x="326" y="0" flags="0x0"/>
    </TTGlyph>
    <TTGlyph name="edotaccent.sc" xMin="122" yMin="0" xMax="409" yMax="756">
      <component glyphName="e.sc" x="0" y="0" flags="0x0"/>
      <component glyphName="uni0307.sc" x="211" y="0" flags="0x0"/>
    </TTGlyph>
    <TTGlyph name="egrave" xMin="72" yMin="-10" xMax="462" yMax="763">
      <component glyphName="e" x="0" y="0" flags="0x0"/>
      <component glyphName="gravecomb" x="399" y="0" flags="0x0"/>
    </TTGlyph>
    <TTGlyph name="egrave.sc" xMin="122" yMin="0" xMax="409" yMax="793">
      <component glyphName="e.sc" x="0" y="0" flags="0x0"/>
      <component glyphName="gravecomb.sc" x="141" y="0" flags="0x0"/>
    </TTGlyph>
    <TTGlyph name="eight" xMin="73" yMin="-10" xMax="482" yMax="692">
      <contour>
        <pt x="412" y="322" on="0"/>
        <pt x="482" y="243" on="0"/>
        <pt x="482" y="172" on="1"/>
        <pt x="482" y="88" on="0"/>
        <pt x="369" y="-10" on="0"/>
        <pt x="277" y="-10" on="1"/>
        <pt x="184" y="-10" on="0"/>
        <pt x="73" y="90" on="0"/>
        <pt x="73" y="173" on="1"/>
        <pt x="73" y="316" on="0"/>
        <pt x="230" y="372" on="1"/>
        <pt x="161" y="400" on="0"/>
        <pt x="103" y="469" on="0"/>
        <pt x="103" y="528" on="1"/>
        <pt x="103" y="578" on="0"/>
        <pt x="150" y="652" on="0"/>
        <pt x="230" y="692" on="0"/>
        <pt x="278" y="692" on="1"/>
        <pt x="325" y="692" on="0"/>
        <pt x="405" y="654" on="0"/>
        <pt x="453" y="579" on="0"/>
        <pt x="453" y="527" on="1"/>
        <pt x="453" y="469" on="0"/>
        <pt x="395" y="390" on="0"/>
        <pt x="328" y="355" on="1"/>
      </contour>
      <contour>
        <pt x="128" y="491" on="0"/>
        <pt x="150" y="442" on="0"/>
        <pt x="205" y="402" on="0"/>
        <pt x="256" y="382" on="1"/>
        <pt x="306" y="364" on="1"/>
        <pt x="371" y="397" on="0"/>
        <pt x="429" y="472" on="0"/>
        <pt x="429" y="526" on="1"/>
        <pt x="429" y="595" on="0"/>
        <pt x="344" y="670" on="0"/>
        <pt x="278" y="670" on="1"/>
        <pt x="213" y="670" on="0"/>
        <pt x="128" y="593" on="0"/>
        <pt x="128" y="527" on="1"/>
      </contour>
      <contour>
        <pt x="359" y="13" on="0"/>
        <pt x="458" y="96" on="0"/>
        <pt x="458" y="172" on="1"/>
        <pt x="458" y="219" on="0"/>
        <pt x="424" y="280" on="0"/>
        <pt x="359" y="321" on="0"/>
        <pt x="302" y="344" on="1"/>
        <pt x="256" y="362" on="1"/>
        <pt x="172" y="332" on="0"/>
        <pt x="97" y="243" on="0"/>
        <pt x="97" y="173" on="1"/>
        <pt x="97" y="97" on="0"/>
        <pt x="196" y="13" on="0"/>
        <pt x="278" y="13" on="1"/>
      </contour>
    </TTGlyph>
    <TTGlyph name="eight.dnom" xMin="66" yMin="-7" xMax="334" yMax="418">
      <contour>
        <pt x="287" y="196" on="0"/>
        <pt x="334" y="148" on="0"/>
        <pt x="334" y="105" on="1"/>
        <pt x="334" y="53" on="0"/>
        <pt x="258" y="-7" on="0"/>
        <pt x="198" y="-7" on="1"/>
        <pt x="138" y="-7" on="0"/>
        <pt x="66" y="54" on="0"/>
        <pt x="66" y="103" on="1"/>
        <pt x="66" y="145" on="0"/>
        <pt x="117" y="207" on="0"/>
        <pt x="164" y="223" on="1"/>
        <pt x="122" y="241" on="0"/>
        <pt x="85" y="281" on="0"/>
        <pt x="85" y="317" on="1"/>
        <pt x="85" y="364" on="0"/>
        <pt x="152" y="418" on="0"/>
        <pt x="200" y="418" on="1"/>
        <pt x="247" y="418" on="0"/>
        <pt x="314" y="364" on="0"/>
        <pt x="314" y="316" on="1"/>
        <pt x="314" y="284" on="0"/>
        <pt x="275" y="238" on="0"/>
        <pt x="232" y="217" on="1"/>
      </contour>
      <contour>
        <pt x="109" y="287" on="0"/>
        <pt x="141" y="251" on="0"/>
        <pt x="186" y="235" on="1"/>
        <pt x="213" y="225" on="1"/>
        <pt x="254" y="244" on="0"/>
        <pt x="291" y="287" on="0"/>
        <pt x="291" y="316" on="1"/>
        <pt x="291" y="356" on="0"/>
        <pt x="240" y="398" on="0"/>
        <pt x="200" y="398" on="1"/>
        <pt x="161" y="398" on="0"/>
        <pt x="109" y="356" on="0"/>
        <pt x="109" y="319" on="1"/>
      </contour>
      <contour>
        <pt x="248" y="14" on="0"/>
        <pt x="310" y="60" on="0"/>
        <pt x="310" y="105" on="1"/>
        <pt x="310" y="143" on="0"/>
        <pt x="268" y="184" on="0"/>
        <pt x="216" y="203" on="1"/>
        <pt x="189" y="214" on="1"/>
        <pt x="136" y="197" on="0"/>
        <pt x="90" y="144" on="0"/>
        <pt x="90" y="103" on="1"/>
        <pt x="90" y="60" on="0"/>
        <pt x="150" y="14" on="0"/>
        <pt x="199" y="14" on="1"/>
      </contour>
    </TTGlyph>
    <TTGlyph name="eight.lf" xMin="62" yMin="-10" xMax="464" yMax="673">
      <contour>
        <pt x="394" y="312" on="0"/>
        <pt x="464" y="234" on="0"/>
        <pt x="464" y="167" on="1"/>
        <pt x="464" y="87" on="0"/>
        <pt x="353" y="-10" on="0"/>
        <pt x="262" y="-10" on="1"/>
        <pt x="171" y="-10" on="0"/>
        <pt x="62" y="88" on="0"/>
        <pt x="62" y="167" on="1"/>
        <pt x="62" y="305" on="0"/>
        <pt x="216" y="362" on="1"/>
        <pt x="150" y="390" on="0"/>
        <pt x="92" y="457" on="0"/>
        <pt x="92" y="512" on="1"/>
        <pt x="92" y="561" on="0"/>
        <pt x="139" y="634" on="0"/>
        <pt x="218" y="673" on="0"/>
        <pt x="264" y="673" on="1"/>
        <pt x="310" y="673" on="0"/>
        <pt x="388" y="636" on="0"/>
        <pt x="435" y="562" on="0"/>
        <pt x="435" y="511" on="1"/>
        <pt x="435" y="457" on="0"/>
        <pt x="376" y="380" on="0"/>
        <pt x="310" y="345" on="1"/>
      </contour>
      <contour>
        <pt x="117" y="462" on="0"/>
        <pt x="171" y="401" on="0"/>
        <pt x="242" y="372" on="1"/>
        <pt x="288" y="354" on="1"/>
        <pt x="353" y="387" on="0"/>
        <pt x="410" y="460" on="0"/>
        <pt x="410" y="511" on="1"/>
        <pt x="410" y="578" on="0"/>
        <pt x="328" y="651" on="0"/>
        <pt x="264" y="651" on="1"/>
        <pt x="201" y="651" on="0"/>
        <pt x="117" y="576" on="0"/>
        <pt x="117" y="512" on="1"/>
      </contour>
      <contour>
        <pt x="342" y="13" on="0"/>
        <pt x="439" y="94" on="0"/>
        <pt x="439" y="167" on="1"/>
        <pt x="439" y="212" on="0"/>
        <pt x="406" y="270" on="0"/>
        <pt x="341" y="312" on="0"/>
        <pt x="283" y="335" on="1"/>
        <pt x="242" y="351" on="1"/>
        <pt x="160" y="321" on="0"/>
        <pt x="87" y="234" on="0"/>
        <pt x="87" y="167" on="1"/>
        <pt x="87" y="95" on="0"/>
        <pt x="183" y="13" on="0"/>
        <pt x="263" y="13" on="1"/>
      </contour>
    </TTGlyph>
    <TTGlyph name="eight.numr" xMin="66" yMin="264" xMax="334" yMax="689">
      <component glyphName="eight.dnom" x="0" y="271" flags="0x0"/>
    </TTGlyph>
    <TTGlyph name="eight.osf" xMin="62" yMin="-10" xMax="464" yMax="673">
      <contour>
        <pt x="394" y="312" on="0"/>
        <pt x="464" y="234" on="0"/>
        <pt x="464" y="167" on="1"/>
        <pt x="464" y="87" on="0"/>
        <pt x="353" y="-10" on="0"/>
        <pt x="262" y="-10" on="1"/>
        <pt x="171" y="-10" on="0"/>
        <pt x="62" y="88" on="0"/>
        <pt x="62" y="167" on="1"/>
        <pt x="62" y="305" on="0"/>
        <pt x="216" y="362" on="1"/>
        <pt x="150" y="390" on="0"/>
        <pt x="92" y="457" on="0"/>
        <pt x="92" y="512" on="1"/>
        <pt x="92" y="561" on="0"/>
        <pt x="139" y="634" on="0"/>
        <pt x="218" y="673" on="0"/>
        <pt x="264" y="673" on="1"/>
        <pt x="310" y="673" on="0"/>
        <pt x="388" y="636" on="0"/>
        <pt x="435" y="562" on="0"/>
        <pt x="435" y="511" on="1"/>
        <pt x="435" y="457" on="0"/>
        <pt x="376" y="380" on="0"/>
        <pt x="310" y="345" on="1"/>
      </contour>
      <contour>
        <pt x="117" y="462" on="0"/>
        <pt x="171" y="401" on="0"/>
        <pt x="242" y="372" on="1"/>
        <pt x="288" y="354" on="1"/>
        <pt x="353" y="387" on="0"/>
        <pt x="410" y="460" on="0"/>
        <pt x="410" y="511" on="1"/>
        <pt x="410" y="578" on="0"/>
        <pt x="328" y="651" on="0"/>
        <pt x="264" y="651" on="1"/>
        <pt x="201" y="651" on="0"/>
        <pt x="117" y="576" on="0"/>
        <pt x="117" y="512" on="1"/>
      </contour>
      <contour>
        <pt x="342" y="13" on="0"/>
        <pt x="439" y="94" on="0"/>
        <pt x="439" y="167" on="1"/>
        <pt x="439" y="212" on="0"/>
        <pt x="406" y="270" on="0"/>
        <pt x="341" y="312" on="0"/>
        <pt x="283" y="335" on="1"/>
        <pt x="242" y="351" on="1"/>
        <pt x="160" y="321" on="0"/>
        <pt x="87" y="234" on="0"/>
        <pt x="87" y="167" on="1"/>
        <pt x="87" y="95" on="0"/>
        <pt x="183" y="13" on="0"/>
        <pt x="263" y="13" on="1"/>
      </contour>
    </TTGlyph>
    <TTGlyph name="eight.tosf" xMin="75" yMin="-10" xMax="484" yMax="673">
      <contour>
        <pt x="414" y="313" on="0"/>
        <pt x="484" y="234" on="0"/>
        <pt x="484" y="167" on="1"/>
        <pt x="484" y="87" on="0"/>
        <pt x="371" y="-10" on="0"/>
        <pt x="279" y="-10" on="1"/>
        <pt x="186" y="-10" on="0"/>
        <pt x="75" y="88" on="0"/>
        <pt x="75" y="167" on="1"/>
        <pt x="75" y="237" on="0"/>
        <pt x="155" y="335" on="0"/>
        <pt x="232" y="362" on="1"/>
        <pt x="163" y="389" on="0"/>
        <pt x="105" y="458" on="0"/>
        <pt x="105" y="513" on="1"/>
        <pt x="105" y="560" on="0"/>
        <pt x="153" y="633" on="0"/>
        <pt x="233" y="673" on="0"/>
        <pt x="280" y="673" on="1"/>
        <pt x="327" y="673" on="0"/>
        <pt x="408" y="635" on="0"/>
        <pt x="456" y="563" on="0"/>
        <pt x="456" y="512" on="1"/>
        <pt x="456" y="457" on="0"/>
        <pt x="397" y="381" on="0"/>
        <pt x="330" y="346" on="1"/>
      </contour>
      <contour>
        <pt x="130" y="462" on="0"/>
        <pt x="185" y="402" on="0"/>
        <pt x="259" y="374" on="1"/>
        <pt x="309" y="355" on="1"/>
        <pt x="374" y="388" on="0"/>
        <pt x="431" y="461" on="0"/>
        <pt x="431" y="511" on="1"/>
        <pt x="431" y="576" on="0"/>
        <pt x="345" y="651" on="0"/>
        <pt x="280" y="651" on="1"/>
        <pt x="216" y="651" on="0"/>
        <pt x="130" y="576" on="0"/>
        <pt x="130" y="512" on="1"/>
      </contour>
      <contour>
        <pt x="361" y="13" on="0"/>
        <pt x="460" y="95" on="0"/>
        <pt x="460" y="167" on="1"/>
        <pt x="460" y="211" on="0"/>
        <pt x="426" y="270" on="0"/>
        <pt x="361" y="312" on="0"/>
        <pt x="306" y="334" on="1"/>
        <pt x="259" y="352" on="1"/>
        <pt x="174" y="322" on="0"/>
        <pt x="100" y="234" on="0"/>
        <pt x="100" y="167" on="1"/>
        <pt x="100" y="95" on="0"/>
        <pt x="198" y="13" on="0"/>
        <pt x="280" y="13" on="1"/>
      </contour>
    </TTGlyph>
    <TTGlyph name="ellipsis" xMin="226" yMin="-9" xMax="276" yMax="41">
      <component glyphName="period" x="167" y="0" flags="0x0"/>
      <component glyphName="period" x="334" y="0" flags="0x0"/>
      <component glyphName="period" x="0" y="0" flags="0x0"/>
    </TTGlyph>
    <TTGlyph name="emacron" xMin="72" yMin="-10" xMax="462" yMax="708">
      <component glyphName="e" x="0" y="0" flags="0x0"/>
      <component glyphName="uni0304" x="409" y="0" flags="0x0"/>
    </TTGlyph>
    <TTGlyph name="emacron.sc" xMin="122" yMin="0" xMax="409" yMax="738">
      <component glyphName="e.sc" x="0" y="0" flags="0x0"/>
      <component glyphName="uni0304.sc" x="128" y="0" flags="0x0"/>
    </TTGlyph>
    <TTGlyph name="emdash" xMin="48" yMin="302" xMax="728" yMax="324">
      <contour>
        <pt x="48" y="324" on="1"/>
        <pt x="728" y="324" on="1"/>
        <pt x="728" y="302" on="1"/>
        <pt x="48" y="302" on="1"/>
      </contour>
    </TTGlyph>
    <TTGlyph name="emdash.case" xMin="48" yMin="347" xMax="728" yMax="369">
      <component glyphName="emdash" x="0" y="45" flags="0x0"/>
    </TTGlyph>
    <TTGlyph name="emptyset" xMin="84" yMin="-16" xMax="816" yMax="716">
      <contour>
        <pt x="738" y="593" on="0"/>
        <pt x="816" y="438" on="0"/>
        <pt x="816" y="349" on="1"/>
        <pt x="816" y="248" on="0"/>
        <pt x="718" y="81" on="0"/>
        <pt x="551" y="-16" on="0"/>
        <pt x="451" y="-16" on="1"/>
        <pt x="392" y="-16" on="0"/>
        <pt x="282" y="19" on="0"/>
        <pt x="236" y="52" on="1"/>
        <pt x="188" y="-12" on="1"/>
        <pt x="161" y="-12" on="1"/>
        <pt x="218" y="66" on="1"/>
        <pt x="155" y="117" on="0"/>
        <pt x="84" y="264" on="0"/>
        <pt x="84" y="349" on="1"/>
        <pt x="84" y="450" on="0"/>
        <pt x="183" y="618" on="0"/>
        <pt x="351" y="716" on="0"/>
        <pt x="451" y="716" on="1"/>
        <pt x="562" y="716" on="0"/>
        <pt x="652" y="656" on="1"/>
        <pt x="694" y="712" on="1"/>
        <pt x="721" y="712" on="1"/>
        <pt x="671" y="643" on="1"/>
      </contour>
      <contour>
        <pt x="110" y="270" on="0"/>
        <pt x="175" y="132" on="0"/>
        <pt x="232" y="85" on="1"/>
        <pt x="639" y="637" on="1"/>
        <pt x="554" y="694" on="0"/>
        <pt x="451" y="694" on="1"/>
        <pt x="358" y="694" on="0"/>
        <pt x="201" y="601" on="0"/>
        <pt x="110" y="443" on="0"/>
        <pt x="110" y="349" on="1"/>
      </contour>
      <contour>
        <pt x="545" y="6" on="0"/>
        <pt x="700" y="98" on="0"/>
        <pt x="790" y="255" on="0"/>
        <pt x="790" y="349" on="1"/>
        <pt x="790" y="433" on="0"/>
        <pt x="719" y="576" on="0"/>
        <pt x="657" y="624" on="1"/>
        <pt x="250" y="71" on="1"/>
        <pt x="339" y="6" on="0"/>
        <pt x="451" y="6" on="1"/>
      </contour>
    </TTGlyph>
    <TTGlyph name="endash" xMin="48" yMin="302" xMax="472" yMax="324">
      <contour>
        <pt x="48" y="324" on="1"/>
        <pt x="472" y="324" on="1"/>
        <pt x="472" y="302" on="1"/>
        <pt x="48" y="302" on="1"/>
      </contour>
    </TTGlyph>
    <TTGlyph name="endash.case" xMin="48" yMin="347" xMax="472" yMax="369">
      <component glyphName="endash" x="0" y="45" flags="0x0"/>
    </TTGlyph>
    <TTGlyph name="eng" xMin="117" yMin="-198" xMax="469" yMax="529">
      <contour>
        <pt x="469" y="-85" on="1"/>
        <pt x="469" y="-140" on="0"/>
        <pt x="414" y="-198" on="0"/>
        <pt x="369" y="-198" on="1"/>
        <pt x="320" y="-198" on="0"/>
        <pt x="281" y="-167" on="1"/>
        <pt x="293" y="-151" on="1"/>
        <pt x="327" y="-176" on="0"/>
        <pt x="369" y="-176" on="1"/>
        <pt x="403" y="-176" on="0"/>
        <pt x="445" y="-132" on="0"/>
        <pt x="445" y="-84" on="1"/>
        <pt x="445" y="366" on="1"/>
        <pt x="445" y="437" on="0"/>
        <pt x="388" y="508" on="0"/>
        <pt x="330" y="508" on="1"/>
        <pt x="271" y="508" on="0"/>
        <pt x="181" y="444" on="0"/>
        <pt x="141" y="384" on="1"/>
        <pt x="141" y="0" on="1"/>
        <pt x="117" y="0" on="1"/>
        <pt x="117" y="519" on="1"/>
        <pt x="138" y="519" on="1"/>
        <pt x="141" y="415" on="1"/>
        <pt x="218" y="529" on="0"/>
        <pt x="331" y="529" on="1"/>
        <pt x="400" y="529" on="0"/>
        <pt x="469" y="447" on="0"/>
        <pt x="469" y="370" on="1"/>
      </contour>
    </TTGlyph>
    <TTGlyph name="eng.sc" xMin="122" yMin="-198" xMax="486" yMax="559">
      <contour>
        <pt x="486" y="-140" on="0"/>
        <pt x="431" y="-198" on="0"/>
        <pt x="386" y="-198" on="1"/>
        <pt x="337" y="-198" on="0"/>
        <pt x="298" y="-167" on="1"/>
        <pt x="310" y="-151" on="1"/>
        <pt x="344" y="-176" on="0"/>
        <pt x="386" y="-176" on="1"/>
        <pt x="420" y="-176" on="0"/>
        <pt x="462" y="-132" on="0"/>
        <pt x="462" y="-84" on="1"/>
        <pt x="462" y="0" on="1"/>
        <pt x="454" y="0" on="1"/>
        <pt x="142" y="536" on="1"/>
        <pt x="145" y="500" on="0"/>
        <pt x="145" y="366" on="1"/>
        <pt x="145" y="0" on="1"/>
        <pt x="122" y="0" on="1"/>
        <pt x="122" y="559" on="1"/>
        <pt x="153" y="559" on="1"/>
        <pt x="466" y="23" on="1"/>
        <pt x="463" y="76" on="0"/>
        <pt x="463" y="185" on="1"/>
        <pt x="463" y="559" on="1"/>
        <pt x="486" y="559" on="1"/>
        <pt x="486" y="-85" on="1"/>
      </contour>
    </TTGlyph>
    <TTGlyph name="eng.sc.ss01" xMin="122" yMin="-198" xMax="493" yMax="569">
      <contour>
        <pt x="493" y="-85" on="1"/>
        <pt x="493" y="-140" on="0"/>
        <pt x="439" y="-198" on="0"/>
        <pt x="394" y="-198" on="1"/>
        <pt x="346" y="-198" on="0"/>
        <pt x="305" y="-167" on="1"/>
        <pt x="317" y="-151" on="1"/>
        <pt x="333" y="-163" on="0"/>
        <pt x="369" y="-176" on="0"/>
        <pt x="394" y="-176" on="1"/>
        <pt x="428" y="-176" on="0"/>
        <pt x="469" y="-132" on="0"/>
        <pt x="469" y="-84" on="1"/>
        <pt x="469" y="404" on="1"/>
        <pt x="469" y="477" on="0"/>
        <pt x="409" y="548" on="0"/>
        <pt x="346" y="548" on="1"/>
        <pt x="284" y="548" on="0"/>
        <pt x="187" y="482" on="0"/>
        <pt x="146" y="424" on="1"/>
        <pt x="146" y="0" on="1"/>
        <pt x="122" y="0" on="1"/>
        <pt x="122" y="559" on="1"/>
        <pt x="143" y="559" on="1"/>
        <pt x="146" y="454" on="1"/>
        <pt x="229" y="569" on="0"/>
        <pt x="347" y="569" on="1"/>
        <pt x="493" y="569" on="0"/>
        <pt x="493" y="407" on="1"/>
      </contour>
    </TTGlyph>
</ttFont>
